solid OpenSCAD_Model
  facet normal -0.831471 0.555568 0
    outer loop
      vertex 34.8107 -10.5607 -11
      vertex 35.1358 -10.074 11
      vertex 35.1358 -10.074 -11
    endloop
  endfacet
  facet normal -0.831471 0.555568 0
    outer loop
      vertex 35.1358 -10.074 11
      vertex 34.8107 -10.5607 -11
      vertex 34.8107 -10.5607 11
    endloop
  endfacet
  facet normal -0.195092 0.980785 0
    outer loop
      vertex 34.324 -10.8858 -11
      vertex 33.9902 -10.9522 11
      vertex 34.324 -10.8858 11
    endloop
  endfacet
  facet normal -0.195092 0.980785 5.90039e-009
    outer loop
      vertex 33.9902 -10.9522 11
      vertex 34.324 -10.8858 -11
      vertex 34.0838 -10.9336 -11
    endloop
  endfacet
  facet normal 1.3617e-014 1 4.33488e-008
    outer loop
      vertex 33.75 -11 -11
      vertex 30.714 -11 11
      vertex 33.75 -11 11
    endloop
  endfacet
  facet normal -0 1 4.33488e-008
    outer loop
      vertex -35.25 -11 -11
      vertex 30.714 -11 11
      vertex 33.75 -11 -11
    endloop
  endfacet
  facet normal 0 1 4.33488e-008
    outer loop
      vertex 30.714 -11 11
      vertex -35.25 -11 -11
      vertex -35.25 -11 11
    endloop
  endfacet
  facet normal -0.555569 0.831471 0
    outer loop
      vertex 34.8107 -10.5607 -11
      vertex 34.324 -10.8858 11
      vertex 34.8107 -10.5607 11
    endloop
  endfacet
  facet normal -0.555569 0.831471 0
    outer loop
      vertex 34.324 -10.8858 11
      vertex 34.8107 -10.5607 -11
      vertex 34.324 -10.8858 -11
    endloop
  endfacet
  facet normal 0.980786 0.195089 0
    outer loop
      vertex -40.5748 -6.38088 11
      vertex -40.75 -5.5 -11
      vertex -40.75 -5.5 11
    endloop
  endfacet
  facet normal 0.980785 0.195092 1.21038e-007
    outer loop
      vertex -40.75 -5.5 -11
      vertex -40.5748 -6.38088 11
      vertex -40.5066 -6.72388 -11
    endloop
  endfacet
  facet normal -0.980785 0.19509 4.63143e-008
    outer loop
      vertex 35.1358 -10.074 -11
      vertex 35.2022 -9.74024 11
      vertex 35.1836 -9.83378 -11
    endloop
  endfacet
  facet normal -0.980785 0.195093 0
    outer loop
      vertex 35.2022 -9.74024 11
      vertex 35.1358 -10.074 -11
      vertex 35.1358 -10.074 11
    endloop
  endfacet
  facet normal 0.83147 0.55557 0
    outer loop
      vertex -39.1391 -9.38909 11
      vertex -40.3313 -7.60476 -11
      vertex -40.3313 -7.60476 11
    endloop
  endfacet
  facet normal 0.83147 0.55557 0
    outer loop
      vertex -40.3313 -7.60476 -11
      vertex -39.1391 -9.38909 11
      vertex -39.1391 -9.38909 -11
    endloop
  endfacet
  facet normal 0.195094 0.980785 4.25159e-008
    outer loop
      vertex -35.25 -11 -11
      vertex -35.5003 -10.9502 11
      vertex -35.25 -11 11
    endloop
  endfacet
  facet normal 0.19509 0.980785 6.69626e-009
    outer loop
      vertex -35.5003 -10.9502 11
      vertex -35.25 -11 -11
      vertex -36.1309 -10.8248 11
    endloop
  endfacet
  facet normal 0.19509 0.980785 -2.52917e-008
    outer loop
      vertex -36.1309 -10.8248 11
      vertex -35.25 -11 -11
      vertex -36.4739 -10.7566 -11
    endloop
  endfacet
  facet normal -0.195092 0.980785 5.90039e-009
    outer loop
      vertex 34.0838 -10.9336 -11
      vertex 33.75 -11 11
      vertex 33.9902 -10.9522 11
    endloop
  endfacet
  facet normal -0.195089 0.980785 4.25159e-008
    outer loop
      vertex 33.75 -11 11
      vertex 34.0838 -10.9336 -11
      vertex 33.75 -11 -11
    endloop
  endfacet
  facet normal 0.980785 0.195092 1.19853e-007
    outer loop
      vertex -40.3313 -7.60476 11
      vertex -40.5066 -6.72388 -11
      vertex -40.5748 -6.38088 11
    endloop
  endfacet
  facet normal 0.980786 0.195089 0
    outer loop
      vertex -40.5066 -6.72388 -11
      vertex -40.3313 -7.60476 11
      vertex -40.3313 -7.60476 -11
    endloop
  endfacet
  facet normal 0.980781 -0.195112 2.12922e-007
    outer loop
      vertex -40.5268 -4.37773 11
      vertex -40.5748 -4.61912 -11
      vertex -40.5066 -4.27612 11
    endloop
  endfacet
  facet normal 0.980785 -0.19509 -4.33836e-008
    outer loop
      vertex -40.75 -5.5 11
      vertex -40.5748 -4.61912 -11
      vertex -40.5268 -4.37773 11
    endloop
  endfacet
  facet normal 0.980786 -0.195089 0
    outer loop
      vertex -40.5748 -4.61912 -11
      vertex -40.75 -5.5 11
      vertex -40.75 -5.5 -11
    endloop
  endfacet
  facet normal 0.980786 -0.195089 0
    outer loop
      vertex -40.5066 -4.27612 11
      vertex -40.3313 -3.39524 -11
      vertex -40.3313 -3.39524 11
    endloop
  endfacet
  facet normal 0.980785 -0.195092 -1.19853e-007
    outer loop
      vertex -40.3313 -3.39524 -11
      vertex -40.5066 -4.27612 11
      vertex -40.5748 -4.61912 -11
    endloop
  endfacet
  facet normal -0.980785 0.19509 8.45694e-009
    outer loop
      vertex 35.25 -9.5 -11
      vertex 35.2022 -9.74024 11
      vertex 35.25 -9.5 11
    endloop
  endfacet
  facet normal -0.980785 0.195093 3.57047e-008
    outer loop
      vertex 35.2022 -9.74024 11
      vertex 35.25 -9.5 -11
      vertex 35.1836 -9.83378 -11
    endloop
  endfacet
  facet normal -1 0 0
    outer loop
      vertex 35.25 -1.05 -11
      vertex 35.25 -3.52267 11
      vertex 35.25 -1.05 11
    endloop
  endfacet
  facet normal -1 0 0
    outer loop
      vertex 35.25 -9.5 -11
      vertex 35.25 -3.52267 11
      vertex 35.25 -1.05 -11
    endloop
  endfacet
  facet normal -1 0 0
    outer loop
      vertex 35.25 -3.52267 11
      vertex 35.25 -9.5 -11
      vertex 35.25 -9.5 11
    endloop
  endfacet
  facet normal -0.980787 -0.19508 0
    outer loop
      vertex 35.25 -1.05 -11
      vertex 35.2401 -1 11
      vertex 35.2401 -1 -11
    endloop
  endfacet
  facet normal -0.980787 -0.19508 0
    outer loop
      vertex 35.2401 -1 11
      vertex 35.25 -1.05 -11
      vertex 35.25 -1.05 11
    endloop
  endfacet
  facet normal 0.55557 0.83147 -0
    outer loop
      vertex -37.3548 -10.5813 -11
      vertex -39.1391 -9.38909 11
      vertex -37.3548 -10.5813 11
    endloop
  endfacet
  facet normal 0.55557 0.83147 0
    outer loop
      vertex -39.1391 -9.38909 11
      vertex -37.3548 -10.5813 -11
      vertex -39.1391 -9.38909 -11
    endloop
  endfacet
  facet normal 0.19509 0.980785 -2.77266e-008
    outer loop
      vertex -36.4739 -10.7566 -11
      vertex -37.3548 -10.5813 11
      vertex -36.1309 -10.8248 11
    endloop
  endfacet
  facet normal 0.195091 0.980785 0
    outer loop
      vertex -37.3548 -10.5813 11
      vertex -36.4739 -10.7566 -11
      vertex -37.3548 -10.5813 -11
    endloop
  endfacet
  facet normal 0.55557 -0.83147 0
    outer loop
      vertex -39.1391 -1.61091 -11
      vertex -38.2248 -1 11
      vertex -39.1391 -1.61091 11
    endloop
  endfacet
  facet normal 0.55557 -0.83147 0
    outer loop
      vertex -38.2248 -1 11
      vertex -39.1391 -1.61091 -11
      vertex -38.2248 -1 -11
    endloop
  endfacet
  facet normal 0.83147 -0.55557 0
    outer loop
      vertex -39.1391 -1.61091 11
      vertex -39.9025 -2.7535 -11
      vertex -39.1391 -1.61091 -11
    endloop
  endfacet
  facet normal 0.83147 -0.55557 3.26608e-008
    outer loop
      vertex -40.3313 -3.39524 11
      vertex -39.9025 -2.7535 -11
      vertex -39.1391 -1.61091 11
    endloop
  endfacet
  facet normal 0.831469 -0.555571 0
    outer loop
      vertex -39.9025 -2.7535 -11
      vertex -40.3313 -3.39524 11
      vertex -40.3313 -3.39524 -11
    endloop
  endfacet
  facet normal -0.0980171 -0.995185 0
    outer loop
      vertex 0 -19 -2.5
      vertex 4.29199 -19.4227 2.5
      vertex 0 -19 2.5
    endloop
  endfacet
  facet normal -0.0980171 -0.995185 -0
    outer loop
      vertex 4.29199 -19.4227 2.5
      vertex 0 -19 -2.5
      vertex 4.29199 -19.4227 -2.5
    endloop
  endfacet
  facet normal -0.77301 -0.634393 0
    outer loop
      vertex 18.2923 -28.7775 -2.5
      vertex 15.5563 -25.4437 2.5
      vertex 15.5563 -25.4437 -2.5
    endloop
  endfacet
  facet normal -0.77301 -0.634393 0
    outer loop
      vertex 15.5563 -25.4437 2.5
      vertex 18.2923 -28.7775 -2.5
      vertex 18.2923 -28.7775 2.5
    endloop
  endfacet
  facet normal 0.634393 -0.77301 0
    outer loop
      vertex -15.5563 -25.4437 -2.5
      vertex -12.2225 -22.7077 2.5
      vertex -15.5563 -25.4437 2.5
    endloop
  endfacet
  facet normal 0.634393 -0.77301 0
    outer loop
      vertex -12.2225 -22.7077 2.5
      vertex -15.5563 -25.4437 -2.5
      vertex -12.2225 -22.7077 -2.5
    endloop
  endfacet
  facet normal 0.290285 -0.95694 0
    outer loop
      vertex -8.41903 -20.6747 -2.5
      vertex -4.29199 -19.4227 2.5
      vertex -8.41903 -20.6747 2.5
    endloop
  endfacet
  facet normal 0.290285 -0.95694 0
    outer loop
      vertex -4.29199 -19.4227 2.5
      vertex -8.41903 -20.6747 -2.5
      vertex -4.29199 -19.4227 -2.5
    endloop
  endfacet
  facet normal -0.881922 -0.471396 0
    outer loop
      vertex 19.8776 -31.7432 -2.5
      vertex 18.2923 -28.7775 2.5
      vertex 18.2923 -28.7775 -2.5
    endloop
  endfacet
  facet normal -0.881922 -0.471396 0
    outer loop
      vertex 18.2923 -28.7775 2.5
      vertex 19.8776 -31.7432 -2.5
      vertex 19.8776 -31.7432 2.5
    endloop
  endfacet
  facet normal -0.471397 -0.881921 0
    outer loop
      vertex 8.41903 -20.6747 -2.5
      vertex 12.2225 -22.7077 2.5
      vertex 8.41903 -20.6747 2.5
    endloop
  endfacet
  facet normal -0.471397 -0.881921 -0
    outer loop
      vertex 12.2225 -22.7077 2.5
      vertex 8.41903 -20.6747 -2.5
      vertex 12.2225 -22.7077 -2.5
    endloop
  endfacet
  facet normal -0.290285 -0.95694 0
    outer loop
      vertex 4.29199 -19.4227 -2.5
      vertex 8.41903 -20.6747 2.5
      vertex 4.29199 -19.4227 2.5
    endloop
  endfacet
  facet normal -0.290285 -0.95694 -0
    outer loop
      vertex 8.41903 -20.6747 2.5
      vertex 4.29199 -19.4227 -2.5
      vertex 8.41903 -20.6747 -2.5
    endloop
  endfacet
  facet normal -0.634393 -0.77301 0
    outer loop
      vertex 12.2225 -22.7077 -2.5
      vertex 15.5563 -25.4437 2.5
      vertex 12.2225 -22.7077 2.5
    endloop
  endfacet
  facet normal -0.634393 -0.77301 -0
    outer loop
      vertex 15.5563 -25.4437 2.5
      vertex 12.2225 -22.7077 -2.5
      vertex 15.5563 -25.4437 -2.5
    endloop
  endfacet
  facet normal 0.881921 -0.471396 0
    outer loop
      vertex -20.2602 -32.4592 2.5
      vertex -18.2923 -28.7775 -2.5
      vertex -18.2923 -28.7775 2.5
    endloop
  endfacet
  facet normal 0.881921 -0.471396 0
    outer loop
      vertex -18.2923 -28.7775 -2.5
      vertex -20.2602 -32.4592 2.5
      vertex -20.2602 -32.4592 -2.5
    endloop
  endfacet
  facet normal 0.77301 -0.634393 0
    outer loop
      vertex -18.2923 -28.7775 2.5
      vertex -15.5563 -25.4437 -2.5
      vertex -15.5563 -25.4437 2.5
    endloop
  endfacet
  facet normal 0.77301 -0.634393 0
    outer loop
      vertex -15.5563 -25.4437 -2.5
      vertex -18.2923 -28.7775 2.5
      vertex -18.2923 -28.7775 -2.5
    endloop
  endfacet
  facet normal 0 0 -1
    outer loop
      vertex 18.0157 -33.5377 2.5
      vertex 19.8776 -31.7432 2.5
      vertex 18.136 -33.9343 2.5
    endloop
  endfacet
  facet normal 0 0 -1
    outer loop
      vertex 16.2137 -30.1664 2.5
      vertex 19.8776 -31.7432 2.5
      vertex 18.0157 -33.5377 2.5
    endloop
  endfacet
  facet normal 0 0 -1
    outer loop
      vertex 19.8776 -31.7432 2.5
      vertex 16.2137 -30.1664 2.5
      vertex 18.2923 -28.7775 2.5
    endloop
  endfacet
  facet normal 0 0 -1
    outer loop
      vertex 16.2137 -30.1664 2.5
      vertex 15.5563 -25.4437 2.5
      vertex 18.2923 -28.7775 2.5
    endloop
  endfacet
  facet normal 0 0 -1
    outer loop
      vertex 13.7886 -27.2114 2.5
      vertex 15.5563 -25.4437 2.5
      vertex 16.2137 -30.1664 2.5
    endloop
  endfacet
  facet normal 0 0 -1
    outer loop
      vertex 13.7886 -27.2114 2.5
      vertex 12.2225 -22.7077 2.5
      vertex 15.5563 -25.4437 2.5
    endloop
  endfacet
  facet normal 0 0 -1
    outer loop
      vertex 10.8336 -24.7863 2.5
      vertex 12.2225 -22.7077 2.5
      vertex 13.7886 -27.2114 2.5
    endloop
  endfacet
  facet normal 0 0 -1
    outer loop
      vertex 10.8336 -24.7863 2.5
      vertex 8.41903 -20.6747 2.5
      vertex 12.2225 -22.7077 2.5
    endloop
  endfacet
  facet normal 0 0 -1
    outer loop
      vertex 7.46233 -22.9843 2.5
      vertex 8.41903 -20.6747 2.5
      vertex 10.8336 -24.7863 2.5
    endloop
  endfacet
  facet normal 0 0 -1
    outer loop
      vertex 7.46233 -22.9843 2.5
      vertex 4.29199 -19.4227 2.5
      vertex 8.41903 -20.6747 2.5
    endloop
  endfacet
  facet normal 0 0 -1
    outer loop
      vertex 3.80426 -21.8747 2.5
      vertex 4.29199 -19.4227 2.5
      vertex 7.46233 -22.9843 2.5
    endloop
  endfacet
  facet normal 0 0 -1
    outer loop
      vertex 0 -21.5 2.5
      vertex 4.29199 -19.4227 2.5
      vertex 3.80426 -21.8747 2.5
    endloop
  endfacet
  facet normal 0 0 -1
    outer loop
      vertex 0 -21.5 2.5
      vertex 0 -19 2.5
      vertex 4.29199 -19.4227 2.5
    endloop
  endfacet
  facet normal 0 0 -1
    outer loop
      vertex -3.80426 -21.8747 2.5
      vertex 0 -19 2.5
      vertex 0 -21.5 2.5
    endloop
  endfacet
  facet normal 0 0 -1
    outer loop
      vertex -3.80426 -21.8747 2.5
      vertex -4.29199 -19.4227 2.5
      vertex 0 -19 2.5
    endloop
  endfacet
  facet normal 0 0 -1
    outer loop
      vertex -7.46233 -22.9843 2.5
      vertex -4.29199 -19.4227 2.5
      vertex -3.80426 -21.8747 2.5
    endloop
  endfacet
  facet normal 0 0 -1
    outer loop
      vertex -7.46233 -22.9843 2.5
      vertex -8.41903 -20.6747 2.5
      vertex -4.29199 -19.4227 2.5
    endloop
  endfacet
  facet normal 0 0 -1
    outer loop
      vertex -10.8336 -24.7863 2.5
      vertex -8.41903 -20.6747 2.5
      vertex -7.46233 -22.9843 2.5
    endloop
  endfacet
  facet normal 0 0 -1
    outer loop
      vertex -10.8336 -24.7863 2.5
      vertex -12.2225 -22.7077 2.5
      vertex -8.41903 -20.6747 2.5
    endloop
  endfacet
  facet normal 0 0 -1
    outer loop
      vertex -13.7886 -27.2114 2.5
      vertex -12.2225 -22.7077 2.5
      vertex -10.8336 -24.7863 2.5
    endloop
  endfacet
  facet normal 0 0 -1
    outer loop
      vertex -13.7886 -27.2114 2.5
      vertex -15.5563 -25.4437 2.5
      vertex -12.2225 -22.7077 2.5
    endloop
  endfacet
  facet normal 0 0 -1
    outer loop
      vertex -16.2137 -30.1664 2.5
      vertex -15.5563 -25.4437 2.5
      vertex -13.7886 -27.2114 2.5
    endloop
  endfacet
  facet normal 0 0 -1
    outer loop
      vertex -20.2602 -32.4592 2.5
      vertex -16.2137 -30.1664 2.5
      vertex -18.0157 -33.5377 2.5
    endloop
  endfacet
  facet normal 0 0 -1
    outer loop
      vertex -16.2137 -30.1664 2.5
      vertex -18.2923 -28.7775 2.5
      vertex -15.5563 -25.4437 2.5
    endloop
  endfacet
  facet normal 0 0 -1
    outer loop
      vertex -20.2602 -32.4592 2.5
      vertex -18.0157 -33.5377 2.5
      vertex -18.3336 -34.5858 2.5
    endloop
  endfacet
  facet normal -0 0 -1
    outer loop
      vertex -16.2137 -30.1664 2.5
      vertex -20.2602 -32.4592 2.5
      vertex -18.2923 -28.7775 2.5
    endloop
  endfacet
  facet normal 0.471397 -0.881921 0
    outer loop
      vertex -12.2225 -22.7077 -2.5
      vertex -8.41903 -20.6747 2.5
      vertex -12.2225 -22.7077 2.5
    endloop
  endfacet
  facet normal 0.471397 -0.881921 0
    outer loop
      vertex -8.41903 -20.6747 2.5
      vertex -12.2225 -22.7077 -2.5
      vertex -8.41903 -20.6747 -2.5
    endloop
  endfacet
  facet normal 0.0980171 -0.995185 0
    outer loop
      vertex -4.29199 -19.4227 -2.5
      vertex 0 -19 2.5
      vertex -4.29199 -19.4227 2.5
    endloop
  endfacet
  facet normal 0.0980171 -0.995185 0
    outer loop
      vertex 0 -19 2.5
      vertex -4.29199 -19.4227 -2.5
      vertex 0 -19 -2.5
    endloop
  endfacet
  facet normal -0 0 1
    outer loop
      vertex 16.2137 -30.1664 -2.5
      vertex 19.8776 -31.7432 -2.5
      vertex 18.2923 -28.7775 -2.5
    endloop
  endfacet
  facet normal 0 0 1
    outer loop
      vertex 19.8776 -31.7432 -2.5
      vertex 18.0157 -33.5377 -2.5
      vertex 18.136 -33.9343 -2.5
    endloop
  endfacet
  facet normal 0 0 1
    outer loop
      vertex 19.8776 -31.7432 -2.5
      vertex 16.2137 -30.1664 -2.5
      vertex 18.0157 -33.5377 -2.5
    endloop
  endfacet
  facet normal 0 0 1
    outer loop
      vertex 15.5563 -25.4437 -2.5
      vertex 16.2137 -30.1664 -2.5
      vertex 18.2923 -28.7775 -2.5
    endloop
  endfacet
  facet normal 0 0 1
    outer loop
      vertex 15.5563 -25.4437 -2.5
      vertex 13.7886 -27.2114 -2.5
      vertex 16.2137 -30.1664 -2.5
    endloop
  endfacet
  facet normal 0 0 1
    outer loop
      vertex 12.2225 -22.7077 -2.5
      vertex 13.7886 -27.2114 -2.5
      vertex 15.5563 -25.4437 -2.5
    endloop
  endfacet
  facet normal 0 0 1
    outer loop
      vertex 12.2225 -22.7077 -2.5
      vertex 10.8336 -24.7863 -2.5
      vertex 13.7886 -27.2114 -2.5
    endloop
  endfacet
  facet normal 0 0 1
    outer loop
      vertex 8.41903 -20.6747 -2.5
      vertex 10.8336 -24.7863 -2.5
      vertex 12.2225 -22.7077 -2.5
    endloop
  endfacet
  facet normal 0 0 1
    outer loop
      vertex 8.41903 -20.6747 -2.5
      vertex 7.46233 -22.9843 -2.5
      vertex 10.8336 -24.7863 -2.5
    endloop
  endfacet
  facet normal 0 0 1
    outer loop
      vertex 4.29199 -19.4227 -2.5
      vertex 7.46233 -22.9843 -2.5
      vertex 8.41903 -20.6747 -2.5
    endloop
  endfacet
  facet normal 0 0 1
    outer loop
      vertex 4.29199 -19.4227 -2.5
      vertex 3.80426 -21.8747 -2.5
      vertex 7.46233 -22.9843 -2.5
    endloop
  endfacet
  facet normal 0 0 1
    outer loop
      vertex 0 -19 -2.5
      vertex 3.80426 -21.8747 -2.5
      vertex 4.29199 -19.4227 -2.5
    endloop
  endfacet
  facet normal 0 0 1
    outer loop
      vertex 0 -19 -2.5
      vertex 0 -21.5 -2.5
      vertex 3.80426 -21.8747 -2.5
    endloop
  endfacet
  facet normal 0 0 1
    outer loop
      vertex 0 -19 -2.5
      vertex -3.80426 -21.8747 -2.5
      vertex 0 -21.5 -2.5
    endloop
  endfacet
  facet normal -0 0 1
    outer loop
      vertex -4.29199 -19.4227 -2.5
      vertex -3.80426 -21.8747 -2.5
      vertex 0 -19 -2.5
    endloop
  endfacet
  facet normal 0 0 1
    outer loop
      vertex -4.29199 -19.4227 -2.5
      vertex -7.46233 -22.9843 -2.5
      vertex -3.80426 -21.8747 -2.5
    endloop
  endfacet
  facet normal -0 0 1
    outer loop
      vertex -8.41903 -20.6747 -2.5
      vertex -7.46233 -22.9843 -2.5
      vertex -4.29199 -19.4227 -2.5
    endloop
  endfacet
  facet normal 0 0 1
    outer loop
      vertex -8.41903 -20.6747 -2.5
      vertex -10.8336 -24.7863 -2.5
      vertex -7.46233 -22.9843 -2.5
    endloop
  endfacet
  facet normal -0 0 1
    outer loop
      vertex -12.2225 -22.7077 -2.5
      vertex -10.8336 -24.7863 -2.5
      vertex -8.41903 -20.6747 -2.5
    endloop
  endfacet
  facet normal 0 0 1
    outer loop
      vertex -12.2225 -22.7077 -2.5
      vertex -13.7886 -27.2114 -2.5
      vertex -10.8336 -24.7863 -2.5
    endloop
  endfacet
  facet normal -0 0 1
    outer loop
      vertex -15.5563 -25.4437 -2.5
      vertex -13.7886 -27.2114 -2.5
      vertex -12.2225 -22.7077 -2.5
    endloop
  endfacet
  facet normal 0 0 1
    outer loop
      vertex -15.5563 -25.4437 -2.5
      vertex -16.2137 -30.1664 -2.5
      vertex -13.7886 -27.2114 -2.5
    endloop
  endfacet
  facet normal -0 0 1
    outer loop
      vertex -18.2923 -28.7775 -2.5
      vertex -16.2137 -30.1664 -2.5
      vertex -15.5563 -25.4437 -2.5
    endloop
  endfacet
  facet normal 0 0 1
    outer loop
      vertex -20.2602 -32.4592 -2.5
      vertex -16.2137 -30.1664 -2.5
      vertex -18.2923 -28.7775 -2.5
    endloop
  endfacet
  facet normal 0 0 1
    outer loop
      vertex -16.2137 -30.1664 -2.5
      vertex -20.2602 -32.4592 -2.5
      vertex -18.0157 -33.5377 -2.5
    endloop
  endfacet
  facet normal 0 0 1
    outer loop
      vertex -18.0157 -33.5377 -2.5
      vertex -20.2602 -32.4592 -2.5
      vertex -18.3336 -34.5858 -2.5
    endloop
  endfacet
  facet normal 0.0980172 0.995185 -0
    outer loop
      vertex 3.80426 -21.8747 -2.5
      vertex 0 -21.5 2.5
      vertex 3.80426 -21.8747 2.5
    endloop
  endfacet
  facet normal 0.0980172 0.995185 0
    outer loop
      vertex 0 -21.5 2.5
      vertex 3.80426 -21.8747 -2.5
      vertex 0 -21.5 -2.5
    endloop
  endfacet
  facet normal 0.634393 0.77301 -0
    outer loop
      vertex 13.7886 -27.2114 -2.5
      vertex 10.8336 -24.7863 2.5
      vertex 13.7886 -27.2114 2.5
    endloop
  endfacet
  facet normal 0.634393 0.77301 0
    outer loop
      vertex 10.8336 -24.7863 2.5
      vertex 13.7886 -27.2114 -2.5
      vertex 10.8336 -24.7863 -2.5
    endloop
  endfacet
  facet normal -0.634393 0.77301 0
    outer loop
      vertex -10.8336 -24.7863 -2.5
      vertex -13.7886 -27.2114 2.5
      vertex -10.8336 -24.7863 2.5
    endloop
  endfacet
  facet normal -0.634393 0.77301 0
    outer loop
      vertex -13.7886 -27.2114 2.5
      vertex -10.8336 -24.7863 -2.5
      vertex -13.7886 -27.2114 -2.5
    endloop
  endfacet
  facet normal -0.290285 0.95694 0
    outer loop
      vertex -3.80426 -21.8747 -2.5
      vertex -7.46233 -22.9843 2.5
      vertex -3.80426 -21.8747 2.5
    endloop
  endfacet
  facet normal -0.290285 0.95694 0
    outer loop
      vertex -7.46233 -22.9843 2.5
      vertex -3.80426 -21.8747 -2.5
      vertex -7.46233 -22.9843 -2.5
    endloop
  endfacet
  facet normal 0.881921 0.471397 0
    outer loop
      vertex 18.0157 -33.5377 2.5
      vertex 16.2137 -30.1664 -2.5
      vertex 16.2137 -30.1664 2.5
    endloop
  endfacet
  facet normal 0.881921 0.471397 0
    outer loop
      vertex 16.2137 -30.1664 -2.5
      vertex 18.0157 -33.5377 2.5
      vertex 18.0157 -33.5377 -2.5
    endloop
  endfacet
  facet normal 0.956941 0.290283 0
    outer loop
      vertex 18.136 -33.9343 2.5
      vertex 18.0157 -33.5377 -2.5
      vertex 18.0157 -33.5377 2.5
    endloop
  endfacet
  facet normal 0.956941 0.290283 0
    outer loop
      vertex 18.0157 -33.5377 -2.5
      vertex 18.136 -33.9343 2.5
      vertex 18.136 -33.9343 -2.5
    endloop
  endfacet
  facet normal 0.77301 0.634393 0
    outer loop
      vertex 16.2137 -30.1664 2.5
      vertex 13.7886 -27.2114 -2.5
      vertex 13.7886 -27.2114 2.5
    endloop
  endfacet
  facet normal 0.77301 0.634393 0
    outer loop
      vertex 13.7886 -27.2114 -2.5
      vertex 16.2137 -30.1664 2.5
      vertex 16.2137 -30.1664 -2.5
    endloop
  endfacet
  facet normal 0.290285 0.95694 -0
    outer loop
      vertex 7.46233 -22.9843 -2.5
      vertex 3.80426 -21.8747 2.5
      vertex 7.46233 -22.9843 2.5
    endloop
  endfacet
  facet normal 0.290285 0.95694 0
    outer loop
      vertex 3.80426 -21.8747 2.5
      vertex 7.46233 -22.9843 -2.5
      vertex 3.80426 -21.8747 -2.5
    endloop
  endfacet
  facet normal 0.471397 0.881921 -0
    outer loop
      vertex 10.8336 -24.7863 -2.5
      vertex 7.46233 -22.9843 2.5
      vertex 10.8336 -24.7863 2.5
    endloop
  endfacet
  facet normal 0.471397 0.881921 0
    outer loop
      vertex 7.46233 -22.9843 2.5
      vertex 10.8336 -24.7863 -2.5
      vertex 7.46233 -22.9843 -2.5
    endloop
  endfacet
  facet normal -0.881921 0.471397 0
    outer loop
      vertex -18.0157 -33.5377 -2.5
      vertex -16.2137 -30.1664 2.5
      vertex -16.2137 -30.1664 -2.5
    endloop
  endfacet
  facet normal -0.881921 0.471397 0
    outer loop
      vertex -16.2137 -30.1664 2.5
      vertex -18.0157 -33.5377 -2.5
      vertex -18.0157 -33.5377 2.5
    endloop
  endfacet
  facet normal -0.77301 0.634393 0
    outer loop
      vertex -16.2137 -30.1664 -2.5
      vertex -13.7886 -27.2114 2.5
      vertex -13.7886 -27.2114 -2.5
    endloop
  endfacet
  facet normal -0.77301 0.634393 0
    outer loop
      vertex -13.7886 -27.2114 2.5
      vertex -16.2137 -30.1664 -2.5
      vertex -16.2137 -30.1664 2.5
    endloop
  endfacet
  facet normal -0.956941 0.290283 0
    outer loop
      vertex -18.3336 -34.5858 -2.5
      vertex -18.0157 -33.5377 2.5
      vertex -18.0157 -33.5377 -2.5
    endloop
  endfacet
  facet normal -0.956941 0.290283 0
    outer loop
      vertex -18.0157 -33.5377 2.5
      vertex -18.3336 -34.5858 -2.5
      vertex -18.3336 -34.5858 2.5
    endloop
  endfacet
  facet normal -0.471397 0.881921 0
    outer loop
      vertex -7.46233 -22.9843 -2.5
      vertex -10.8336 -24.7863 2.5
      vertex -7.46233 -22.9843 2.5
    endloop
  endfacet
  facet normal -0.471397 0.881921 0
    outer loop
      vertex -10.8336 -24.7863 2.5
      vertex -7.46233 -22.9843 -2.5
      vertex -10.8336 -24.7863 -2.5
    endloop
  endfacet
  facet normal -0.0980172 0.995185 0
    outer loop
      vertex 0 -21.5 -2.5
      vertex -3.80426 -21.8747 2.5
      vertex 0 -21.5 2.5
    endloop
  endfacet
  facet normal -0.0980172 0.995185 0
    outer loop
      vertex -3.80426 -21.8747 2.5
      vertex 0 -21.5 -2.5
      vertex -3.80426 -21.8747 -2.5
    endloop
  endfacet
  facet normal -0.980785 -0.195093 0
    outer loop
      vertex 22.8833 -19.9133 -11
      vertex 22.7716 -19.3519 11
      vertex 22.7716 -19.3519 -11
    endloop
  endfacet
  facet normal -0.980785 -0.195094 3.12582e-008
    outer loop
      vertex 22.7716 -19.3519 11
      vertex 22.8833 -19.9133 -11
      vertex 22.8883 -19.9386 11
    endloop
  endfacet
  facet normal -0.83147 -0.55557 0
    outer loop
      vertex 22.7716 -19.3519 -11
      vertex 22.1213 -18.3787 11
      vertex 22.1213 -18.3787 -11
    endloop
  endfacet
  facet normal -0.83147 -0.55557 0
    outer loop
      vertex 22.1213 -18.3787 11
      vertex 22.7716 -19.3519 -11
      vertex 22.7716 -19.3519 11
    endloop
  endfacet
  facet normal -0.980785 -0.195091 3.49226e-008
    outer loop
      vertex 23 -20.5 -11
      vertex 22.8883 -19.9386 11
      vertex 22.8833 -19.9133 -11
    endloop
  endfacet
  facet normal -0.980785 -0.195089 0
    outer loop
      vertex 22.8883 -19.9386 11
      vertex 23 -20.5 -11
      vertex 23 -20.5 11
    endloop
  endfacet
  facet normal 0.980785 0.19509 -3.57336e-008
    outer loop
      vertex 17.2284 -21.648 11
      vertex 17.1117 -21.0614 -11
      vertex 17.1167 -21.0867 11
    endloop
  endfacet
  facet normal 0.980785 0.195091 0
    outer loop
      vertex 17.1117 -21.0614 -11
      vertex 17.2284 -21.648 11
      vertex 17.2284 -21.648 -11
    endloop
  endfacet
  facet normal 0.195091 -0.980785 0
    outer loop
      vertex 18.8519 -17.7284 -11
      vertex 19.4386 -17.6117 11
      vertex 18.8519 -17.7284 11
    endloop
  endfacet
  facet normal 0.195089 -0.980785 3.64953e-008
    outer loop
      vertex 19.4386 -17.6117 11
      vertex 18.8519 -17.7284 -11
      vertex 19.4133 -17.6167 -11
    endloop
  endfacet
  facet normal -0.195093 0.980785 0
    outer loop
      vertex 21.148 -23.2716 -11
      vertex 20.5867 -23.3833 11
      vertex 21.148 -23.2716 11
    endloop
  endfacet
  facet normal -0.195094 0.980784 -3.05293e-008
    outer loop
      vertex 20.5867 -23.3833 11
      vertex 21.148 -23.2716 -11
      vertex 20.5614 -23.3883 -11
    endloop
  endfacet
  facet normal -0.55557 0.83147 0
    outer loop
      vertex 22.1213 -22.6213 -11
      vertex 21.148 -23.2716 11
      vertex 22.1213 -22.6213 11
    endloop
  endfacet
  facet normal -0.55557 0.83147 0
    outer loop
      vertex 21.148 -23.2716 11
      vertex 22.1213 -22.6213 -11
      vertex 21.148 -23.2716 -11
    endloop
  endfacet
  facet normal -0.55557 -0.83147 0
    outer loop
      vertex 21.148 -17.7284 -11
      vertex 22.1213 -18.3787 11
      vertex 21.148 -17.7284 11
    endloop
  endfacet
  facet normal -0.55557 -0.83147 -0
    outer loop
      vertex 22.1213 -18.3787 11
      vertex 21.148 -17.7284 -11
      vertex 22.1213 -18.3787 -11
    endloop
  endfacet
  facet normal -0.195091 -0.980785 3.41937e-008
    outer loop
      vertex 20.5867 -17.6167 -11
      vertex 21.148 -17.7284 11
      vertex 20.5614 -17.6117 11
    endloop
  endfacet
  facet normal -0.19509 -0.980785 -0
    outer loop
      vertex 21.148 -17.7284 11
      vertex 20.5867 -17.6167 -11
      vertex 21.148 -17.7284 -11
    endloop
  endfacet
  facet normal 0.83147 -0.55557 0
    outer loop
      vertex 17.2284 -19.3519 11
      vertex 17.8787 -18.3787 -11
      vertex 17.8787 -18.3787 11
    endloop
  endfacet
  facet normal 0.83147 -0.55557 0
    outer loop
      vertex 17.8787 -18.3787 -11
      vertex 17.2284 -19.3519 11
      vertex 17.2284 -19.3519 -11
    endloop
  endfacet
  facet normal 0.980785 -0.195089 0
    outer loop
      vertex 17.2284 -19.3519 11
      vertex 17.1167 -19.9133 -11
      vertex 17.2284 -19.3519 -11
    endloop
  endfacet
  facet normal 0.980785 -0.195091 3.49226e-008
    outer loop
      vertex 17.1167 -19.9133 -11
      vertex 17.2284 -19.3519 11
      vertex 17.1117 -19.9386 11
    endloop
  endfacet
  facet normal 0.55557 -0.83147 0
    outer loop
      vertex 17.8787 -18.3787 -11
      vertex 18.8519 -17.7284 11
      vertex 17.8787 -18.3787 11
    endloop
  endfacet
  facet normal 0.55557 -0.83147 0
    outer loop
      vertex 18.8519 -17.7284 11
      vertex 17.8787 -18.3787 -11
      vertex 18.8519 -17.7284 -11
    endloop
  endfacet
  facet normal -0.83147 0.55557 0
    outer loop
      vertex 22.1213 -22.6213 -11
      vertex 22.7716 -21.648 11
      vertex 22.7716 -21.648 -11
    endloop
  endfacet
  facet normal -0.83147 0.55557 0
    outer loop
      vertex 22.7716 -21.648 11
      vertex 22.1213 -22.6213 -11
      vertex 22.1213 -22.6213 11
    endloop
  endfacet
  facet normal 0.195093 0.980785 -3.26659e-008
    outer loop
      vertex 19.4386 -23.3883 -11
      vertex 18.8519 -23.2716 11
      vertex 19.4133 -23.3833 11
    endloop
  endfacet
  facet normal 0.195094 0.980785 0
    outer loop
      vertex 18.8519 -23.2716 11
      vertex 19.4386 -23.3883 -11
      vertex 18.8519 -23.2716 -11
    endloop
  endfacet
  facet normal 0.83147 0.55557 0
    outer loop
      vertex 17.8787 -22.6213 11
      vertex 17.2284 -21.648 -11
      vertex 17.2284 -21.648 11
    endloop
  endfacet
  facet normal 0.83147 0.55557 0
    outer loop
      vertex 17.2284 -21.648 -11
      vertex 17.8787 -22.6213 11
      vertex 17.8787 -22.6213 -11
    endloop
  endfacet
  facet normal -0.195089 -0.980785 0
    outer loop
      vertex 20 -17.5 -11
      vertex 20.5614 -17.6117 11
      vertex 20 -17.5 11
    endloop
  endfacet
  facet normal -0.195091 -0.980785 3.49226e-008
    outer loop
      vertex 20.5614 -17.6117 11
      vertex 20 -17.5 -11
      vertex 20.5867 -17.6167 -11
    endloop
  endfacet
  facet normal 0.195089 -0.980785 3.64953e-008
    outer loop
      vertex 19.4133 -17.6167 -11
      vertex 20 -17.5 11
      vertex 19.4386 -17.6117 11
    endloop
  endfacet
  facet normal 0.195091 -0.980785 0
    outer loop
      vertex 20 -17.5 11
      vertex 19.4133 -17.6167 -11
      vertex 20 -17.5 -11
    endloop
  endfacet
  facet normal 0.980785 -0.195089 3.64953e-008
    outer loop
      vertex 17 -20.5 11
      vertex 17.1167 -19.9133 -11
      vertex 17.1117 -19.9386 11
    endloop
  endfacet
  facet normal 0.980785 -0.195091 0
    outer loop
      vertex 17.1167 -19.9133 -11
      vertex 17 -20.5 11
      vertex 17 -20.5 -11
    endloop
  endfacet
  facet normal 0.980785 0.195089 0
    outer loop
      vertex 17 -20.5 11
      vertex 17.1117 -21.0614 -11
      vertex 17 -20.5 -11
    endloop
  endfacet
  facet normal 0.980785 0.195091 -3.49226e-008
    outer loop
      vertex 17.1117 -21.0614 -11
      vertex 17 -20.5 11
      vertex 17.1167 -21.0867 11
    endloop
  endfacet
  facet normal -0.980784 0.195094 -3.05293e-008
    outer loop
      vertex 22.7716 -21.648 -11
      vertex 22.8833 -21.0867 11
      vertex 22.8883 -21.0614 -11
    endloop
  endfacet
  facet normal -0.980785 0.195093 0
    outer loop
      vertex 22.8833 -21.0867 11
      vertex 22.7716 -21.648 -11
      vertex 22.7716 -21.648 11
    endloop
  endfacet
  facet normal -0.980785 0.195089 0
    outer loop
      vertex 22.8883 -21.0614 -11
      vertex 23 -20.5 11
      vertex 23 -20.5 -11
    endloop
  endfacet
  facet normal -0.980785 0.195091 -3.49226e-008
    outer loop
      vertex 23 -20.5 11
      vertex 22.8883 -21.0614 -11
      vertex 22.8833 -21.0867 11
    endloop
  endfacet
  facet normal 0.195091 0.980785 -0
    outer loop
      vertex 20 -23.5 -11
      vertex 19.4133 -23.3833 11
      vertex 20 -23.5 11
    endloop
  endfacet
  facet normal 0.195089 0.980785 -3.64953e-008
    outer loop
      vertex 19.4133 -23.3833 11
      vertex 20 -23.5 -11
      vertex 19.4386 -23.3883 -11
    endloop
  endfacet
  facet normal -0.195091 0.980785 -3.49226e-008
    outer loop
      vertex 20.5614 -23.3883 -11
      vertex 20 -23.5 11
      vertex 20.5867 -23.3833 11
    endloop
  endfacet
  facet normal -0.195089 0.980785 0
    outer loop
      vertex 20 -23.5 11
      vertex 20.5614 -23.3883 -11
      vertex 20 -23.5 -11
    endloop
  endfacet
  facet normal 0.55557 0.83147 -0
    outer loop
      vertex 18.8519 -23.2716 -11
      vertex 17.8787 -22.6213 11
      vertex 18.8519 -23.2716 11
    endloop
  endfacet
  facet normal 0.55557 0.83147 0
    outer loop
      vertex 17.8787 -22.6213 11
      vertex 18.8519 -23.2716 -11
      vertex 17.8787 -22.6213 -11
    endloop
  endfacet
  facet normal 0.980785 -0.195089 3.64953e-008
    outer loop
      vertex -23 -20.5 11
      vertex -22.8833 -19.9133 -11
      vertex -22.8883 -19.9386 11
    endloop
  endfacet
  facet normal 0.980785 -0.195091 0
    outer loop
      vertex -22.8833 -19.9133 -11
      vertex -23 -20.5 11
      vertex -23 -20.5 -11
    endloop
  endfacet
  facet normal -0.980785 0.195091 -3.41937e-008
    outer loop
      vertex -17.2284 -21.648 -11
      vertex -17.1167 -21.0867 11
      vertex -17.1117 -21.0614 -11
    endloop
  endfacet
  facet normal -0.980785 0.19509 0
    outer loop
      vertex -17.1167 -21.0867 11
      vertex -17.2284 -21.648 -11
      vertex -17.2284 -21.648 11
    endloop
  endfacet
  facet normal 0.980785 -0.195093 0
    outer loop
      vertex -22.7716 -19.3519 11
      vertex -22.8833 -19.9133 -11
      vertex -22.7716 -19.3519 -11
    endloop
  endfacet
  facet normal 0.980785 -0.195094 3.12582e-008
    outer loop
      vertex -22.8833 -19.9133 -11
      vertex -22.7716 -19.3519 11
      vertex -22.8883 -19.9386 11
    endloop
  endfacet
  facet normal 0.195093 0.980785 -3.19042e-008
    outer loop
      vertex -20.5614 -23.3883 -11
      vertex -21.148 -23.2716 11
      vertex -20.5867 -23.3833 11
    endloop
  endfacet
  facet normal 0.195094 0.980784 0
    outer loop
      vertex -21.148 -23.2716 11
      vertex -20.5614 -23.3883 -11
      vertex -21.148 -23.2716 -11
    endloop
  endfacet
  facet normal -0.195091 -0.980785 3.49226e-008
    outer loop
      vertex -19.4133 -17.6167 -11
      vertex -18.8519 -17.7284 11
      vertex -19.4386 -17.6117 11
    endloop
  endfacet
  facet normal -0.195089 -0.980785 -0
    outer loop
      vertex -18.8519 -17.7284 11
      vertex -19.4133 -17.6167 -11
      vertex -18.8519 -17.7284 -11
    endloop
  endfacet
  facet normal 0.55557 0.83147 -0
    outer loop
      vertex -21.148 -23.2716 -11
      vertex -22.1213 -22.6213 11
      vertex -21.148 -23.2716 11
    endloop
  endfacet
  facet normal 0.55557 0.83147 0
    outer loop
      vertex -22.1213 -22.6213 11
      vertex -21.148 -23.2716 -11
      vertex -22.1213 -22.6213 -11
    endloop
  endfacet
  facet normal 0.980785 0.195089 0
    outer loop
      vertex -23 -20.5 11
      vertex -22.8883 -21.0614 -11
      vertex -23 -20.5 -11
    endloop
  endfacet
  facet normal 0.980785 0.195091 -3.49226e-008
    outer loop
      vertex -22.8883 -21.0614 -11
      vertex -23 -20.5 11
      vertex -22.8833 -21.0867 11
    endloop
  endfacet
  facet normal 0.83147 -0.55557 0
    outer loop
      vertex -22.7716 -19.3519 11
      vertex -22.1213 -18.3787 -11
      vertex -22.1213 -18.3787 11
    endloop
  endfacet
  facet normal 0.83147 -0.55557 0
    outer loop
      vertex -22.1213 -18.3787 -11
      vertex -22.7716 -19.3519 11
      vertex -22.7716 -19.3519 -11
    endloop
  endfacet
  facet normal 0.195091 -0.980785 0
    outer loop
      vertex -21.148 -17.7284 -11
      vertex -20.5614 -17.6117 11
      vertex -21.148 -17.7284 11
    endloop
  endfacet
  facet normal 0.19509 -0.980785 3.57336e-008
    outer loop
      vertex -20.5614 -17.6117 11
      vertex -21.148 -17.7284 -11
      vertex -20.5867 -17.6167 -11
    endloop
  endfacet
  facet normal -0.980785 -0.195089 0
    outer loop
      vertex -17.1167 -19.9133 -11
      vertex -17.2284 -19.3519 11
      vertex -17.2284 -19.3519 -11
    endloop
  endfacet
  facet normal -0.980785 -0.195091 3.49226e-008
    outer loop
      vertex -17.2284 -19.3519 11
      vertex -17.1167 -19.9133 -11
      vertex -17.1117 -19.9386 11
    endloop
  endfacet
  facet normal -0.55557 -0.83147 0
    outer loop
      vertex -18.8519 -17.7284 -11
      vertex -17.8787 -18.3787 11
      vertex -18.8519 -17.7284 11
    endloop
  endfacet
  facet normal -0.55557 -0.83147 -0
    outer loop
      vertex -17.8787 -18.3787 11
      vertex -18.8519 -17.7284 -11
      vertex -17.8787 -18.3787 -11
    endloop
  endfacet
  facet normal -0.55557 0.83147 0
    outer loop
      vertex -17.8787 -22.6213 -11
      vertex -18.8519 -23.2716 11
      vertex -17.8787 -22.6213 11
    endloop
  endfacet
  facet normal -0.55557 0.83147 0
    outer loop
      vertex -18.8519 -23.2716 11
      vertex -17.8787 -22.6213 -11
      vertex -18.8519 -23.2716 -11
    endloop
  endfacet
  facet normal -0.83147 0.55557 0
    outer loop
      vertex -17.8787 -22.6213 -11
      vertex -17.2284 -21.648 11
      vertex -17.2284 -21.648 -11
    endloop
  endfacet
  facet normal -0.83147 0.55557 0
    outer loop
      vertex -17.2284 -21.648 11
      vertex -17.8787 -22.6213 -11
      vertex -17.8787 -22.6213 11
    endloop
  endfacet
  facet normal -0.195093 0.980785 0
    outer loop
      vertex -18.8519 -23.2716 -11
      vertex -19.4133 -23.3833 11
      vertex -18.8519 -23.2716 11
    endloop
  endfacet
  facet normal -0.195094 0.980785 -3.12582e-008
    outer loop
      vertex -19.4133 -23.3833 11
      vertex -18.8519 -23.2716 -11
      vertex -19.4386 -23.3883 -11
    endloop
  endfacet
  facet normal 0.83147 0.55557 0
    outer loop
      vertex -22.1213 -22.6213 11
      vertex -22.7716 -21.648 -11
      vertex -22.7716 -21.648 11
    endloop
  endfacet
  facet normal 0.83147 0.55557 0
    outer loop
      vertex -22.7716 -21.648 -11
      vertex -22.1213 -22.6213 11
      vertex -22.1213 -22.6213 -11
    endloop
  endfacet
  facet normal 0.55557 -0.83147 0
    outer loop
      vertex -22.1213 -18.3787 -11
      vertex -21.148 -17.7284 11
      vertex -22.1213 -18.3787 11
    endloop
  endfacet
  facet normal 0.55557 -0.83147 0
    outer loop
      vertex -21.148 -17.7284 11
      vertex -22.1213 -18.3787 -11
      vertex -21.148 -17.7284 -11
    endloop
  endfacet
  facet normal 0.195089 -0.980785 3.64953e-008
    outer loop
      vertex -20.5867 -17.6167 -11
      vertex -20 -17.5 11
      vertex -20.5614 -17.6117 11
    endloop
  endfacet
  facet normal 0.195091 -0.980785 0
    outer loop
      vertex -20 -17.5 11
      vertex -20.5867 -17.6167 -11
      vertex -20 -17.5 -11
    endloop
  endfacet
  facet normal -0.195089 -0.980785 0
    outer loop
      vertex -20 -17.5 -11
      vertex -19.4386 -17.6117 11
      vertex -20 -17.5 11
    endloop
  endfacet
  facet normal -0.195091 -0.980785 3.49226e-008
    outer loop
      vertex -19.4386 -17.6117 11
      vertex -20 -17.5 -11
      vertex -19.4133 -17.6167 -11
    endloop
  endfacet
  facet normal -0.980785 -0.195091 3.49226e-008
    outer loop
      vertex -17 -20.5 -11
      vertex -17.1117 -19.9386 11
      vertex -17.1167 -19.9133 -11
    endloop
  endfacet
  facet normal -0.980785 -0.195089 0
    outer loop
      vertex -17.1117 -19.9386 11
      vertex -17 -20.5 -11
      vertex -17 -20.5 11
    endloop
  endfacet
  facet normal -0.980785 0.195089 0
    outer loop
      vertex -17.1117 -21.0614 -11
      vertex -17 -20.5 11
      vertex -17 -20.5 -11
    endloop
  endfacet
  facet normal -0.980785 0.195091 -3.49226e-008
    outer loop
      vertex -17 -20.5 11
      vertex -17.1117 -21.0614 -11
      vertex -17.1167 -21.0867 11
    endloop
  endfacet
  facet normal -0.83147 -0.55557 0
    outer loop
      vertex -17.2284 -19.3519 -11
      vertex -17.8787 -18.3787 11
      vertex -17.8787 -18.3787 -11
    endloop
  endfacet
  facet normal -0.83147 -0.55557 0
    outer loop
      vertex -17.8787 -18.3787 11
      vertex -17.2284 -19.3519 -11
      vertex -17.2284 -19.3519 11
    endloop
  endfacet
  facet normal -0.195091 0.980785 -3.49226e-008
    outer loop
      vertex -19.4386 -23.3883 -11
      vertex -20 -23.5 11
      vertex -19.4133 -23.3833 11
    endloop
  endfacet
  facet normal -0.195089 0.980785 0
    outer loop
      vertex -20 -23.5 11
      vertex -19.4386 -23.3883 -11
      vertex -20 -23.5 -11
    endloop
  endfacet
  facet normal 0.195091 0.980785 -0
    outer loop
      vertex -20 -23.5 -11
      vertex -20.5867 -23.3833 11
      vertex -20 -23.5 11
    endloop
  endfacet
  facet normal 0.195089 0.980785 -3.64953e-008
    outer loop
      vertex -20.5867 -23.3833 11
      vertex -20 -23.5 -11
      vertex -20.5614 -23.3883 -11
    endloop
  endfacet
  facet normal 0.980785 0.195093 -3.19042e-008
    outer loop
      vertex -22.7716 -21.648 11
      vertex -22.8883 -21.0614 -11
      vertex -22.8833 -21.0867 11
    endloop
  endfacet
  facet normal 0.980784 0.195094 0
    outer loop
      vertex -22.8883 -21.0614 -11
      vertex -22.7716 -21.648 11
      vertex -22.7716 -21.648 -11
    endloop
  endfacet
  facet normal -0 0 -1
    outer loop
      vertex -40.8914 -1 -11
      vertex -41.7171 -2.82121 -11
      vertex -40.9043 -1 -11
    endloop
  endfacet
  facet normal -2.66404e-007 -1.78005e-007 1
    outer loop
      vertex -40.1997 -10.4497 11
      vertex -41.7171 -2.82121 11
      vertex -41.7171 -8.17877 11
    endloop
  endfacet
  facet normal 1.70479e-007 -1.03417e-007 1
    outer loop
      vertex 35.25 -3.52267 11
      vertex 36.5216 -10.648 11
      vertex 36.75 -1.04999 11
    endloop
  endfacet
  facet normal -1.44041e-007 -1.59549e-007 1
    outer loop
      vertex 35.25 -9.5 11
      vertex 36.5216 -10.648 11
      vertex 35.25 -3.52267 11
    endloop
  endfacet
  facet normal -0 0 1
    outer loop
      vertex 35.2022 -9.74024 11
      vertex 36.5216 -10.648 11
      vertex 35.25 -9.5 11
    endloop
  endfacet
  facet normal -0 0 1
    outer loop
      vertex 35.1358 -10.074 11
      vertex 36.5216 -10.648 11
      vertex 35.2022 -9.74024 11
    endloop
  endfacet
  facet normal -0 0 1
    outer loop
      vertex 34.8107 -10.5607 11
      vertex 36.5216 -10.648 11
      vertex 35.1358 -10.074 11
    endloop
  endfacet
  facet normal 0 0 1
    outer loop
      vertex 34.324 -10.8858 11
      vertex 36.5216 -10.648 11
      vertex 34.8107 -10.5607 11
    endloop
  endfacet
  facet normal 0 0 1
    outer loop
      vertex 33.9902 -10.9522 11
      vertex 36.5216 -10.648 11
      vertex 34.324 -10.8858 11
    endloop
  endfacet
  facet normal 0 0 1
    outer loop
      vertex 33.75 -11 11
      vertex 36.5216 -10.648 11
      vertex 33.9902 -10.9522 11
    endloop
  endfacet
  facet normal -5.0635e-009 3.98745e-008 1
    outer loop
      vertex 33.75 -11 11
      vertex 15.4973 -37.2348 11
      vertex 36.5216 -10.648 11
    endloop
  endfacet
  facet normal 3.14126e-007 -1.90558e-007 1
    outer loop
      vertex 15.2646 -36.4677 11
      vertex 33.75 -11 11
      vertex 30.714 -11 11
    endloop
  endfacet
  facet normal 3.63846e-008 1.10371e-008 1
    outer loop
      vertex 33.75 -11 11
      vertex 15.2646 -36.4677 11
      vertex 15.4973 -37.2348 11
    endloop
  endfacet
  facet normal -0.913169 0.407581 0
    outer loop
      vertex -41.7171 -2.82121 -11
      vertex -40.9043 -1 8.28273
      vertex -40.9043 -1 -11
    endloop
  endfacet
  facet normal -0.913169 0.407581 1.76682e-008
    outer loop
      vertex -40.9043 -1 8.28273
      vertex -41.7171 -2.82121 -11
      vertex -41.7171 -2.82121 11
    endloop
  endfacet
  facet normal -0 0 -1
    outer loop
      vertex -40.7913 -1 -11
      vertex -41.7171 -2.82121 -11
      vertex -40.8517 -1 -11
    endloop
  endfacet
  facet normal -0.741097 -0.671398 -0
    outer loop
      vertex -15.6068 -37.5957 -8.53251
      vertex -40.1997 -10.4497 -11
      vertex -15.6068 -37.5957 -11
    endloop
  endfacet
  facet normal -0.741097 -0.671398 -2.91043e-008
    outer loop
      vertex -40.1997 -10.4497 -11
      vertex -15.6068 -37.5957 -8.53251
      vertex -40.1997 -10.4497 11
    endloop
  endfacet
  facet normal 0.980785 -0.195093 -8.45706e-009
    outer loop
      vertex 36.75 -9.5 11
      vertex 36.5216 -10.648 -11
      vertex 36.75 -9.5 -11
    endloop
  endfacet
  facet normal 0.980785 -0.195093 -8.45706e-009
    outer loop
      vertex 36.5216 -10.648 -11
      vertex 36.75 -9.5 11
      vertex 36.5216 -10.648 11
    endloop
  endfacet
  facet normal 0.831464 -0.555578 -2.40837e-008
    outer loop
      vertex 36.5216 -10.648 11
      vertex 35.8713 -11.6213 -11
      vertex 36.5216 -10.648 -11
    endloop
  endfacet
  facet normal 0.831464 -0.555578 -2.40837e-008
    outer loop
      vertex 35.8713 -11.6213 -11
      vertex 36.5216 -10.648 11
      vertex 35.8713 -11.6213 11
    endloop
  endfacet
  facet normal 2.92599e-007 -1.95512e-007 1
    outer loop
      vertex 15.4973 -37.2348 11
      vertex 35.8713 -11.6213 11
      vertex 36.5216 -10.648 11
    endloop
  endfacet
  facet normal 3.38869e-008 1.02782e-008 1
    outer loop
      vertex 35.8713 -11.6213 11
      vertex 15.4973 -37.2348 11
      vertex 15.5015 -37.2488 11
    endloop
  endfacet
  facet normal 0.782834 -0.62223 -1.70104e-007
    outer loop
      vertex 15.5015 -37.2488 11
      vertex 19.8776 -31.7432 2.5
      vertex 35.8713 -11.6213 11
    endloop
  endfacet
  facet normal 0.782834 -0.62223 0
    outer loop
      vertex 15.5015 -37.2488 -8.1746
      vertex 18.136 -33.9343 2.5
      vertex 15.5015 -37.2488 11
    endloop
  endfacet
  facet normal 0.782835 -0.62223 1.23566e-007
    outer loop
      vertex 19.8776 -31.7432 2.5
      vertex 15.5015 -37.2488 11
      vertex 18.136 -33.9343 2.5
    endloop
  endfacet
  facet normal 0.782834 -0.62223 0
    outer loop
      vertex 19.8776 -31.7432 -2.5
      vertex 35.8713 -11.6213 11
      vertex 19.8776 -31.7432 2.5
    endloop
  endfacet
  facet normal 0.782834 -0.622231 9.29638e-007
    outer loop
      vertex 19.8776 -31.7432 -2.5
      vertex 15.5015 -37.2488 -8.1746
      vertex 35.8713 -11.6213 11
    endloop
  endfacet
  facet normal 0.782835 -0.62223 -1.8509e-007
    outer loop
      vertex 18.136 -33.9343 -2.5
      vertex 15.5015 -37.2488 -8.1746
      vertex 19.8776 -31.7432 -2.5
    endloop
  endfacet
  facet normal 0.782834 -0.62223 0
    outer loop
      vertex 18.136 -33.9343 2.5
      vertex 15.5015 -37.2488 -8.1746
      vertex 18.136 -33.9343 -2.5
    endloop
  endfacet
  facet normal -0.980785 0.195093 8.45706e-009
    outer loop
      vertex -41.7171 -2.82121 -11
      vertex -42.25 -5.5 -11
      vertex -41.7171 -2.82121 11
    endloop
  endfacet
  facet normal 0 0 -1
    outer loop
      vertex -8.88912 -27.6965 -11
      vertex -17.1117 -21.0614 -11
      vertex -17 -20.5 -11
    endloop
  endfacet
  facet normal 0 0 -1
    outer loop
      vertex -14.7821 -34.8771 -11
      vertex -17.2284 -21.648 -11
      vertex -17.1117 -21.0614 -11
    endloop
  endfacet
  facet normal 0 0 -1
    outer loop
      vertex -14.7821 -34.8771 -11
      vertex -17.8787 -22.6213 -11
      vertex -17.2284 -21.648 -11
    endloop
  endfacet
  facet normal 0 0 -1
    outer loop
      vertex -14.7821 -34.8771 -11
      vertex -18.8519 -23.2716 -11
      vertex -17.8787 -22.6213 -11
    endloop
  endfacet
  facet normal 0 0 -1
    outer loop
      vertex -14.7821 -34.8771 -11
      vertex -19.4386 -23.3883 -11
      vertex -18.8519 -23.2716 -11
    endloop
  endfacet
  facet normal 0 0 -1
    outer loop
      vertex -14.7821 -34.8771 -11
      vertex -20 -23.5 -11
      vertex -19.4386 -23.3883 -11
    endloop
  endfacet
  facet normal 0 0 -1
    outer loop
      vertex -14.7821 -34.8771 -11
      vertex -20.5614 -23.3883 -11
      vertex -20 -23.5 -11
    endloop
  endfacet
  facet normal 0 0 -1
    outer loop
      vertex -14.7821 -34.8771 -11
      vertex -21.148 -23.2716 -11
      vertex -20.5614 -23.3883 -11
    endloop
  endfacet
  facet normal 0 0 -1
    outer loop
      vertex -15.6068 -37.5957 -11
      vertex -22.1213 -22.6213 -11
      vertex -21.148 -23.2716 -11
    endloop
  endfacet
  facet normal 0 0 -1
    outer loop
      vertex -40.1997 -10.4497 -11
      vertex -22.1213 -22.6213 -11
      vertex -15.6068 -37.5957 -11
    endloop
  endfacet
  facet normal 0 0 -1
    outer loop
      vertex -22.8883 -21.0614 -11
      vertex -35.25 -11 -11
      vertex -23 -20.5 -11
    endloop
  endfacet
  facet normal 0 0 -1
    outer loop
      vertex -22.7716 -21.648 -11
      vertex -35.25 -11 -11
      vertex -22.8883 -21.0614 -11
    endloop
  endfacet
  facet normal 0 0 -1
    outer loop
      vertex -22.1213 -22.6213 -11
      vertex -40.1997 -10.4497 -11
      vertex -22.7716 -21.648 -11
    endloop
  endfacet
  facet normal -0 -0 -1
    outer loop
      vertex -36.4739 -10.7566 -11
      vertex -22.7716 -21.648 -11
      vertex -40.1997 -10.4497 -11
    endloop
  endfacet
  facet normal 0 0 -1
    outer loop
      vertex -22.7716 -21.648 -11
      vertex -36.4739 -10.7566 -11
      vertex -35.25 -11 -11
    endloop
  endfacet
  facet normal 0 0 -1
    outer loop
      vertex -36.4739 -10.7566 -11
      vertex -40.1997 -10.4497 -11
      vertex -37.3548 -10.5813 -11
    endloop
  endfacet
  facet normal 0 0 -1
    outer loop
      vertex -37.3548 -10.5813 -11
      vertex -40.1997 -10.4497 -11
      vertex -39.1391 -9.38909 -11
    endloop
  endfacet
  facet normal 0 0 -1
    outer loop
      vertex -40.1997 -10.4497 -11
      vertex -40.3313 -7.60476 -11
      vertex -39.1391 -9.38909 -11
    endloop
  endfacet
  facet normal 0 0 -1
    outer loop
      vertex -41.7171 -8.17877 -11
      vertex -40.3313 -7.60476 -11
      vertex -40.1997 -10.4497 -11
    endloop
  endfacet
  facet normal -0 0 -1
    outer loop
      vertex -40.3313 -7.60476 -11
      vertex -41.7171 -8.17877 -11
      vertex -40.5066 -6.72388 -11
    endloop
  endfacet
  facet normal 0 0 -1
    outer loop
      vertex -42.25 -5.5 -11
      vertex -40.5066 -6.72388 -11
      vertex -41.7171 -8.17877 -11
    endloop
  endfacet
  facet normal 0 0 -1
    outer loop
      vertex -40.5066 -6.72388 -11
      vertex -42.25 -5.5 -11
      vertex -40.75 -5.5 -11
    endloop
  endfacet
  facet normal 0 0 -1
    outer loop
      vertex -40.75 -5.5 -11
      vertex -42.25 -5.5 -11
      vertex -40.5748 -4.61912 -11
    endloop
  endfacet
  facet normal 0 0 -1
    outer loop
      vertex -40.3313 -3.39524 -11
      vertex -41.7171 -2.82121 -11
      vertex -39.9025 -2.7535 -11
    endloop
  endfacet
  facet normal 0 -0 -1
    outer loop
      vertex -41.7171 -2.82121 -11
      vertex -40.5748 -4.61912 -11
      vertex -42.25 -5.5 -11
    endloop
  endfacet
  facet normal 0 0 -1
    outer loop
      vertex -40.5748 -4.61912 -11
      vertex -41.7171 -2.82121 -11
      vertex -40.3313 -3.39524 -11
    endloop
  endfacet
  facet normal -0 0 -1
    outer loop
      vertex 36.75 -9.5 -11
      vertex 35.1836 -9.83378 -11
      vertex 35.25 -9.5 -11
    endloop
  endfacet
  facet normal 0 0 -1
    outer loop
      vertex 36.5216 -10.648 -11
      vertex 35.1358 -10.074 -11
      vertex 35.1836 -9.83378 -11
    endloop
  endfacet
  facet normal 0 0 -1
    outer loop
      vertex 35.8713 -11.6213 -11
      vertex 34.8107 -10.5607 -11
      vertex 35.1358 -10.074 -11
    endloop
  endfacet
  facet normal 0 0 -1
    outer loop
      vertex 35.8713 -11.6213 -11
      vertex 34.324 -10.8858 -11
      vertex 34.8107 -10.5607 -11
    endloop
  endfacet
  facet normal 0 0 -1
    outer loop
      vertex 35.8713 -11.6213 -11
      vertex 34.0838 -10.9336 -11
      vertex 34.324 -10.8858 -11
    endloop
  endfacet
  facet normal 0 0 -1
    outer loop
      vertex 35.8713 -11.6213 -11
      vertex 33.75 -11 -11
      vertex 34.0838 -10.9336 -11
    endloop
  endfacet
  facet normal -0 0 -1
    outer loop
      vertex 35.8713 -11.6213 -11
      vertex 23 -20.5 -11
      vertex 33.75 -11 -11
    endloop
  endfacet
  facet normal 0 0 -1
    outer loop
      vertex 35.8713 -11.6213 -11
      vertex 22.8883 -21.0614 -11
      vertex 23 -20.5 -11
    endloop
  endfacet
  facet normal 0 0 -1
    outer loop
      vertex 35.8713 -11.6213 -11
      vertex 22.7716 -21.648 -11
      vertex 22.8883 -21.0614 -11
    endloop
  endfacet
  facet normal 0 0 -1
    outer loop
      vertex 35.8713 -11.6213 -11
      vertex 22.1213 -22.6213 -11
      vertex 22.7716 -21.648 -11
    endloop
  endfacet
  facet normal -0 0 -1
    outer loop
      vertex 18.8519 -23.2716 -11
      vertex 11.3137 -29.6863 -11
      vertex 17.8787 -22.6213 -11
    endloop
  endfacet
  facet normal 0 0 -1
    outer loop
      vertex 11.3137 -29.6863 -11
      vertex 18.8519 -23.2716 -11
      vertex 13.3035 -32.1109 -11
    endloop
  endfacet
  facet normal -0 0 -1
    outer loop
      vertex 19.4386 -23.3883 -11
      vertex 13.3035 -32.1109 -11
      vertex 18.8519 -23.2716 -11
    endloop
  endfacet
  facet normal -0 0 -1
    outer loop
      vertex 20 -23.5 -11
      vertex 13.3035 -32.1109 -11
      vertex 19.4386 -23.3883 -11
    endloop
  endfacet
  facet normal 0 0 -1
    outer loop
      vertex 13.3035 -32.1109 -11
      vertex 20 -23.5 -11
      vertex 14.7821 -34.8771 -11
    endloop
  endfacet
  facet normal 0 0 -1
    outer loop
      vertex 20.5614 -23.3883 -11
      vertex 14.7821 -34.8771 -11
      vertex 20 -23.5 -11
    endloop
  endfacet
  facet normal 0 0 -1
    outer loop
      vertex 21.148 -23.2716 -11
      vertex 14.7821 -34.8771 -11
      vertex 20.5614 -23.3883 -11
    endloop
  endfacet
  facet normal 0 0 -1
    outer loop
      vertex 14.7821 -34.8771 -11
      vertex 21.148 -23.2716 -11
      vertex 15.5015 -37.2488 -11
    endloop
  endfacet
  facet normal 0 0 -1
    outer loop
      vertex 22.1213 -22.6213 -11
      vertex 15.5015 -37.2488 -11
      vertex 21.148 -23.2716 -11
    endloop
  endfacet
  facet normal 0 0 -1
    outer loop
      vertex 15.5015 -37.2488 -11
      vertex 22.1213 -22.6213 -11
      vertex 35.8713 -11.6213 -11
    endloop
  endfacet
  facet normal 0 0 -1
    outer loop
      vertex 35.25 -1.05 -11
      vertex 36.75 -1.04999 -11
      vertex 36.75 -9.5 -11
    endloop
  endfacet
  facet normal 0 0 -1
    outer loop
      vertex 35.1836 -9.83378 -11
      vertex 36.75 -9.5 -11
      vertex 36.5216 -10.648 -11
    endloop
  endfacet
  facet normal 0 0 -1
    outer loop
      vertex 35.1358 -10.074 -11
      vertex 36.5216 -10.648 -11
      vertex 35.8713 -11.6213 -11
    endloop
  endfacet
  facet normal 0 0 -1
    outer loop
      vertex 35.25 -1.05 -11
      vertex 36.75 -9.5 -11
      vertex 35.25 -9.5 -11
    endloop
  endfacet
  facet normal -0 0 -1
    outer loop
      vertex 36.75 -1.04999 -11
      vertex 35.25 -1.05 -11
      vertex 36.7401 -1 -11
    endloop
  endfacet
  facet normal -0 0 -1
    outer loop
      vertex 36.7401 -1 -11
      vertex 35.25 -1.05 -11
      vertex 35.2401 -1 -11
    endloop
  endfacet
  facet normal 0 0 -1
    outer loop
      vertex 22.8833 -19.9133 -11
      vertex 33.75 -11 -11
      vertex 23 -20.5 -11
    endloop
  endfacet
  facet normal 0 0 -1
    outer loop
      vertex 22.7716 -19.3519 -11
      vertex 33.75 -11 -11
      vertex 22.8833 -19.9133 -11
    endloop
  endfacet
  facet normal 0 0 -1
    outer loop
      vertex 22.1213 -18.3787 -11
      vertex 33.75 -11 -11
      vertex 22.7716 -19.3519 -11
    endloop
  endfacet
  facet normal 0 0 -1
    outer loop
      vertex 21.148 -17.7284 -11
      vertex 33.75 -11 -11
      vertex 22.1213 -18.3787 -11
    endloop
  endfacet
  facet normal 0 0 -1
    outer loop
      vertex 20.5867 -17.6167 -11
      vertex 33.75 -11 -11
      vertex 21.148 -17.7284 -11
    endloop
  endfacet
  facet normal 0 0 -1
    outer loop
      vertex 20 -17.5 -11
      vertex 33.75 -11 -11
      vertex 20.5867 -17.6167 -11
    endloop
  endfacet
  facet normal 0 0 -1
    outer loop
      vertex 19.4133 -17.6167 -11
      vertex 33.75 -11 -11
      vertex 20 -17.5 -11
    endloop
  endfacet
  facet normal 0 0 -1
    outer loop
      vertex 18.8519 -17.7284 -11
      vertex 33.75 -11 -11
      vertex 19.4133 -17.6167 -11
    endloop
  endfacet
  facet normal 0 0 -1
    outer loop
      vertex 6.12293 -26.2179 -11
      vertex 17.1167 -19.9133 -11
      vertex 17 -20.5 -11
    endloop
  endfacet
  facet normal -0 0 -1
    outer loop
      vertex 17.8787 -22.6213 -11
      vertex 11.3137 -29.6863 -11
      vertex 17.2284 -21.648 -11
    endloop
  endfacet
  facet normal 0 0 -1
    outer loop
      vertex 8.88912 -27.6965 -11
      vertex 17.2284 -21.648 -11
      vertex 11.3137 -29.6863 -11
    endloop
  endfacet
  facet normal -0 0 -1
    outer loop
      vertex 17.2284 -21.648 -11
      vertex 8.88912 -27.6965 -11
      vertex 17.1117 -21.0614 -11
    endloop
  endfacet
  facet normal -0 0 -1
    outer loop
      vertex 17.1117 -21.0614 -11
      vertex 8.88912 -27.6965 -11
      vertex 17 -20.5 -11
    endloop
  endfacet
  facet normal 0 0 -1
    outer loop
      vertex 6.12293 -26.2179 -11
      vertex 17 -20.5 -11
      vertex 8.88912 -27.6965 -11
    endloop
  endfacet
  facet normal -0 0 -1
    outer loop
      vertex 17.1167 -19.9133 -11
      vertex 6.12293 -26.2179 -11
      vertex 17.2284 -19.3519 -11
    endloop
  endfacet
  facet normal 0 0 -1
    outer loop
      vertex 3.12144 -25.3074 -11
      vertex 17.2284 -19.3519 -11
      vertex 6.12293 -26.2179 -11
    endloop
  endfacet
  facet normal -0 0 -1
    outer loop
      vertex 17.2284 -19.3519 -11
      vertex 3.12144 -25.3074 -11
      vertex 17.8787 -18.3787 -11
    endloop
  endfacet
  facet normal 0 0 -1
    outer loop
      vertex 1.90408 -25.1875 -11
      vertex 17.8787 -18.3787 -11
      vertex 3.12144 -25.3074 -11
    endloop
  endfacet
  facet normal 0 0 -1
    outer loop
      vertex 0 -25 -11
      vertex 17.8787 -18.3787 -11
      vertex 1.90408 -25.1875 -11
    endloop
  endfacet
  facet normal 0 0 -1
    outer loop
      vertex -17.8787 -18.3787 -11
      vertex 17.8787 -18.3787 -11
      vertex 0 -25 -11
    endloop
  endfacet
  facet normal 0 0 -1
    outer loop
      vertex 17.8787 -18.3787 -11
      vertex -17.8787 -18.3787 -11
      vertex 18.8519 -17.7284 -11
    endloop
  endfacet
  facet normal 0 0 -1
    outer loop
      vertex -17.8787 -18.3787 -11
      vertex 0 -25 -11
      vertex -1.90408 -25.1875 -11
    endloop
  endfacet
  facet normal 0 0 -1
    outer loop
      vertex -17.8787 -18.3787 -11
      vertex -1.90408 -25.1875 -11
      vertex -3.12144 -25.3074 -11
    endloop
  endfacet
  facet normal 0 0 -1
    outer loop
      vertex -17.2284 -19.3519 -11
      vertex -3.12144 -25.3074 -11
      vertex -6.12293 -26.2179 -11
    endloop
  endfacet
  facet normal 0 0 -1
    outer loop
      vertex -21.148 -23.2716 -11
      vertex -14.7821 -34.8771 -11
      vertex -15.6068 -37.5957 -11
    endloop
  endfacet
  facet normal 0 0 -1
    outer loop
      vertex -17.1117 -21.0614 -11
      vertex -13.3035 -32.1109 -11
      vertex -14.7821 -34.8771 -11
    endloop
  endfacet
  facet normal 0 0 -1
    outer loop
      vertex -17.1117 -21.0614 -11
      vertex -11.3137 -29.6863 -11
      vertex -13.3035 -32.1109 -11
    endloop
  endfacet
  facet normal 0 0 -1
    outer loop
      vertex -17.1117 -21.0614 -11
      vertex -8.88912 -27.6965 -11
      vertex -11.3137 -29.6863 -11
    endloop
  endfacet
  facet normal 0 0 -1
    outer loop
      vertex -17 -20.5 -11
      vertex -6.12293 -26.2179 -11
      vertex -8.88912 -27.6965 -11
    endloop
  endfacet
  facet normal 0 0 -1
    outer loop
      vertex -17.1167 -19.9133 -11
      vertex -6.12293 -26.2179 -11
      vertex -17 -20.5 -11
    endloop
  endfacet
  facet normal 0 0 -1
    outer loop
      vertex -17.2284 -19.3519 -11
      vertex -6.12293 -26.2179 -11
      vertex -17.1167 -19.9133 -11
    endloop
  endfacet
  facet normal 0 0 -1
    outer loop
      vertex -3.12144 -25.3074 -11
      vertex -17.2284 -19.3519 -11
      vertex -17.8787 -18.3787 -11
    endloop
  endfacet
  facet normal 0 0 -1
    outer loop
      vertex -18.8519 -17.7284 -11
      vertex 18.8519 -17.7284 -11
      vertex -17.8787 -18.3787 -11
    endloop
  endfacet
  facet normal 0 0 -1
    outer loop
      vertex 18.8519 -17.7284 -11
      vertex -18.8519 -17.7284 -11
      vertex 33.75 -11 -11
    endloop
  endfacet
  facet normal 0 0 -1
    outer loop
      vertex -35.25 -11 -11
      vertex -18.8519 -17.7284 -11
      vertex -19.4133 -17.6167 -11
    endloop
  endfacet
  facet normal 0 0 -1
    outer loop
      vertex -35.25 -11 -11
      vertex -19.4133 -17.6167 -11
      vertex -20 -17.5 -11
    endloop
  endfacet
  facet normal 0 0 -1
    outer loop
      vertex -35.25 -11 -11
      vertex -20.5867 -17.6167 -11
      vertex -21.148 -17.7284 -11
    endloop
  endfacet
  facet normal 0 0 -1
    outer loop
      vertex -18.8519 -17.7284 -11
      vertex -35.25 -11 -11
      vertex 33.75 -11 -11
    endloop
  endfacet
  facet normal 0 0 -1
    outer loop
      vertex -20.5867 -17.6167 -11
      vertex -35.25 -11 -11
      vertex -20 -17.5 -11
    endloop
  endfacet
  facet normal 0 0 -1
    outer loop
      vertex -22.1213 -18.3787 -11
      vertex -35.25 -11 -11
      vertex -21.148 -17.7284 -11
    endloop
  endfacet
  facet normal 0 0 -1
    outer loop
      vertex -22.7716 -19.3519 -11
      vertex -35.25 -11 -11
      vertex -22.1213 -18.3787 -11
    endloop
  endfacet
  facet normal 0 0 -1
    outer loop
      vertex -22.8833 -19.9133 -11
      vertex -35.25 -11 -11
      vertex -22.7716 -19.3519 -11
    endloop
  endfacet
  facet normal 0 0 -1
    outer loop
      vertex -35.25 -11 -11
      vertex -22.8833 -19.9133 -11
      vertex -23 -20.5 -11
    endloop
  endfacet
  facet normal 0 0 1
    outer loop
      vertex -40.5268 -4.37773 11
      vertex -41.7171 -2.82121 11
      vertex -40.75 -5.5 11
    endloop
  endfacet
  facet normal 0 0 1
    outer loop
      vertex -35.5003 -10.9502 11
      vertex -15.6068 -37.5957 11
      vertex -15.4693 -37.1424 11
    endloop
  endfacet
  facet normal 0 0 1
    outer loop
      vertex -36.1309 -10.8248 11
      vertex -15.6068 -37.5957 11
      vertex -35.5003 -10.9502 11
    endloop
  endfacet
  facet normal -4.36788e-007 -2.19589e-006 1
    outer loop
      vertex -40.1997 -10.4497 11
      vertex -36.1309 -10.8248 11
      vertex -37.3548 -10.5813 11
    endloop
  endfacet
  facet normal -3.20393e-007 3.20393e-007 1
    outer loop
      vertex -40.1997 -10.4497 11
      vertex -37.3548 -10.5813 11
      vertex -39.1391 -9.38909 11
    endloop
  endfacet
  facet normal -2.52206e-007 -1.93355e-007 1
    outer loop
      vertex -36.1309 -10.8248 11
      vertex -40.1997 -10.4497 11
      vertex -15.6068 -37.5957 11
    endloop
  endfacet
  facet normal 0 0 1
    outer loop
      vertex -40.3313 -7.60476 11
      vertex -40.1997 -10.4497 11
      vertex -39.1391 -9.38909 11
    endloop
  endfacet
  facet normal 5.1044e-006 2.36113e-007 1
    outer loop
      vertex -40.5748 -6.38088 11
      vertex -40.1997 -10.4497 11
      vertex -40.3313 -7.60476 11
    endloop
  endfacet
  facet normal 0 0 1
    outer loop
      vertex -41.7171 -2.82121 11
      vertex -40.5748 -6.38088 11
      vertex -40.75 -5.5 11
    endloop
  endfacet
  facet normal -1.02465e-006 -3.28831e-007 1
    outer loop
      vertex -40.5748 -6.38088 11
      vertex -41.7171 -2.82121 11
      vertex -40.1997 -10.4497 11
    endloop
  endfacet
  facet normal -0 0 -1
    outer loop
      vertex -40.8517 -1 -11
      vertex -41.7171 -2.82121 -11
      vertex -40.8914 -1 -11
    endloop
  endfacet
  facet normal -0.741097 -0.671398 0
    outer loop
      vertex -18.3336 -34.5858 -2.5
      vertex -15.6068 -37.5957 -8.53251
      vertex -18.3336 -34.5858 2.5
    endloop
  endfacet
  facet normal -0.741097 -0.671398 -3.45826e-007
    outer loop
      vertex -20.2602 -32.4592 -2.5
      vertex -15.6068 -37.5957 -8.53251
      vertex -18.3336 -34.5858 -2.5
    endloop
  endfacet
  facet normal -0.741096 -0.671399 8.22776e-007
    outer loop
      vertex -15.6068 -37.5957 -8.53251
      vertex -20.2602 -32.4592 -2.5
      vertex -40.1997 -10.4497 11
    endloop
  endfacet
  facet normal -0.741097 -0.671398 -0
    outer loop
      vertex -20.2602 -32.4592 2.5
      vertex -40.1997 -10.4497 11
      vertex -20.2602 -32.4592 -2.5
    endloop
  endfacet
  facet normal -0.741097 -0.671398 2.45435e-007
    outer loop
      vertex -15.6068 -37.5957 11
      vertex -20.2602 -32.4592 2.5
      vertex -18.3336 -34.5858 2.5
    endloop
  endfacet
  facet normal -0.741097 -0.671398 -2.26174e-007
    outer loop
      vertex -20.2602 -32.4592 2.5
      vertex -15.6068 -37.5957 11
      vertex -40.1997 -10.4497 11
    endloop
  endfacet
  facet normal -0.741097 -0.671398 -0
    outer loop
      vertex -15.6068 -37.5957 11
      vertex -18.3336 -34.5858 2.5
      vertex -15.6068 -37.5957 -8.53251
    endloop
  endfacet
  facet normal 0 0 -1
    outer loop
      vertex -39.1391 -1.61091 -11
      vertex -40.7913 -1 -11
      vertex -38.2248 -1 -11
    endloop
  endfacet
  facet normal 0 0 -1
    outer loop
      vertex -39.9025 -2.7535 -11
      vertex -40.7913 -1 -11
      vertex -39.1391 -1.61091 -11
    endloop
  endfacet
  facet normal 0 -0 -1
    outer loop
      vertex -40.7913 -1 -11
      vertex -39.9025 -2.7535 -11
      vertex -41.7171 -2.82121 -11
    endloop
  endfacet
  facet normal 1 0 0
    outer loop
      vertex 36.75 -1.04999 11
      vertex 36.75 -9.5 -11
      vertex 36.75 -1.04999 -11
    endloop
  endfacet
  facet normal 1 0 -0
    outer loop
      vertex 36.75 -9.5 -11
      vertex 36.75 -1.04999 11
      vertex 36.75 -9.5 11
    endloop
  endfacet
  facet normal 5.6738e-007 -1.12861e-007 1
    outer loop
      vertex 36.75 -1.04999 11
      vertex 36.5216 -10.648 11
      vertex 36.75 -9.5 11
    endloop
  endfacet
  facet normal 0.782834 -0.62223 -2.69729e-008
    outer loop
      vertex 15.5015 -37.2488 -8.1746
      vertex 35.8713 -11.6213 -11
      vertex 35.8713 -11.6213 11
    endloop
  endfacet
  facet normal 0.782834 -0.62223 -8.40099e-007
    outer loop
      vertex 35.8713 -11.6213 -11
      vertex 15.5015 -37.2488 -8.1746
      vertex 15.5015 -37.2488 -11
    endloop
  endfacet
  facet normal -0.980785 0.195093 8.45706e-009
    outer loop
      vertex -42.25 -5.5 -11
      vertex -42.25 -5.5 11
      vertex -41.7171 -2.82121 11
    endloop
  endfacet
  facet normal -0.913169 0.407581 0
    outer loop
      vertex -40.9043 -1 8.28273
      vertex -41.7171 -2.82121 11
      vertex -40.9043 -1 11
    endloop
  endfacet
  facet normal 0 0 1
    outer loop
      vertex 36.744 -1 11
      vertex 35.2401 -1 11
      vertex 35.25 -1.05 11
    endloop
  endfacet
  facet normal 0 0 1
    outer loop
      vertex 35.25 -1.05 11
      vertex 36.75 -1.04999 11
      vertex 36.744 -1 11
    endloop
  endfacet
  facet normal 0 0 1
    outer loop
      vertex 36.75 -1.04999 11
      vertex 35.25 -1.05 11
      vertex 35.25 -3.52267 11
    endloop
  endfacet
  facet normal 0 0 1
    outer loop
      vertex -41.7171 -2.82121 11
      vertex -40.5066 -4.27612 11
      vertex -40.3313 -3.39524 11
    endloop
  endfacet
  facet normal -0 0 1
    outer loop
      vertex -40.9043 -1 11
      vertex -39.1391 -1.61091 11
      vertex -38.2248 -1 11
    endloop
  endfacet
  facet normal 0 0 1
    outer loop
      vertex -40.9043 -1 11
      vertex -40.3313 -3.39524 11
      vertex -39.1391 -1.61091 11
    endloop
  endfacet
  facet normal -0 0 1
    outer loop
      vertex -41.7171 -2.82121 11
      vertex -40.3313 -3.39524 11
      vertex -40.9043 -1 11
    endloop
  endfacet
  facet normal 0 0 1
    outer loop
      vertex -40.5066 -4.27612 11
      vertex -41.7171 -2.82121 11
      vertex -40.5268 -4.37773 11
    endloop
  endfacet
  facet normal 0 0 1
    outer loop
      vertex 30.714 -11 11
      vertex 22.8883 -19.9386 11
      vertex 23 -20.5 11
    endloop
  endfacet
  facet normal 0 0 1
    outer loop
      vertex 30.714 -11 11
      vertex 22.7716 -19.3519 11
      vertex 22.8883 -19.9386 11
    endloop
  endfacet
  facet normal 0 0 1
    outer loop
      vertex 30.714 -11 11
      vertex 22.1213 -18.3787 11
      vertex 22.7716 -19.3519 11
    endloop
  endfacet
  facet normal 0 0 1
    outer loop
      vertex 30.714 -11 11
      vertex 21.148 -17.7284 11
      vertex 22.1213 -18.3787 11
    endloop
  endfacet
  facet normal 0 0 1
    outer loop
      vertex 30.714 -11 11
      vertex 20.5614 -17.6117 11
      vertex 21.148 -17.7284 11
    endloop
  endfacet
  facet normal 0 0 1
    outer loop
      vertex 30.714 -11 11
      vertex 20 -17.5 11
      vertex 20.5614 -17.6117 11
    endloop
  endfacet
  facet normal 0 0 1
    outer loop
      vertex 30.714 -11 11
      vertex 19.4386 -17.6117 11
      vertex 20 -17.5 11
    endloop
  endfacet
  facet normal 0 0 1
    outer loop
      vertex 30.714 -11 11
      vertex 18.8519 -17.7284 11
      vertex 19.4386 -17.6117 11
    endloop
  endfacet
  facet normal 0 0 1
    outer loop
      vertex 21.148 -23.2716 11
      vertex 14.7821 -34.8771 11
      vertex 15.2646 -36.4677 11
    endloop
  endfacet
  facet normal 0 0 1
    outer loop
      vertex 17.1167 -21.0867 11
      vertex 13.3035 -32.1109 11
      vertex 14.7821 -34.8771 11
    endloop
  endfacet
  facet normal 0 0 1
    outer loop
      vertex 6.12293 -26.2179 11
      vertex 17 -20.5 11
      vertex 17.1117 -19.9386 11
    endloop
  endfacet
  facet normal 0 0 1
    outer loop
      vertex 6.12293 -26.2179 11
      vertex 17.1117 -19.9386 11
      vertex 17.2284 -19.3519 11
    endloop
  endfacet
  facet normal 0 0 1
    outer loop
      vertex 17.1167 -21.0867 11
      vertex 11.3137 -29.6863 11
      vertex 13.3035 -32.1109 11
    endloop
  endfacet
  facet normal 0 0 1
    outer loop
      vertex 17.1167 -21.0867 11
      vertex 8.88912 -27.6965 11
      vertex 11.3137 -29.6863 11
    endloop
  endfacet
  facet normal 0 0 1
    outer loop
      vertex 3.12144 -25.3074 11
      vertex 17.2284 -19.3519 11
      vertex 17.8787 -18.3787 11
    endloop
  endfacet
  facet normal 0 0 1
    outer loop
      vertex 17 -20.5 11
      vertex 6.12293 -26.2179 11
      vertex 8.88912 -27.6965 11
    endloop
  endfacet
  facet normal 0 0 1
    outer loop
      vertex -17.8787 -18.3787 11
      vertex 17.8787 -18.3787 11
      vertex 18.8519 -17.7284 11
    endloop
  endfacet
  facet normal 0 0 1
    outer loop
      vertex 17.2284 -19.3519 11
      vertex 3.12144 -25.3074 11
      vertex 6.12293 -26.2179 11
    endloop
  endfacet
  facet normal 0 0 1
    outer loop
      vertex -18.8519 -17.7284 11
      vertex 18.8519 -17.7284 11
      vertex 30.714 -11 11
    endloop
  endfacet
  facet normal 0 0 1
    outer loop
      vertex 17.8787 -18.3787 11
      vertex 1.21736 -25.1199 11
      vertex 3.12144 -25.3074 11
    endloop
  endfacet
  facet normal 0 0 1
    outer loop
      vertex 17.8787 -18.3787 11
      vertex 0 -25 11
      vertex 1.21736 -25.1199 11
    endloop
  endfacet
  facet normal 0 0 1
    outer loop
      vertex 17.8787 -18.3787 11
      vertex -17.8787 -18.3787 11
      vertex 0 -25 11
    endloop
  endfacet
  facet normal 0 0 1
    outer loop
      vertex 0 -25 11
      vertex -17.8787 -18.3787 11
      vertex -1.21736 -25.1199 11
    endloop
  endfacet
  facet normal 0 0 1
    outer loop
      vertex -1.21736 -25.1199 11
      vertex -17.8787 -18.3787 11
      vertex -3.12144 -25.3074 11
    endloop
  endfacet
  facet normal -0 0 1
    outer loop
      vertex -17.8787 -22.6213 11
      vertex -11.3137 -29.6863 11
      vertex -17.2284 -21.648 11
    endloop
  endfacet
  facet normal 0 0 1
    outer loop
      vertex -8.88912 -27.6965 11
      vertex -17.2284 -21.648 11
      vertex -11.3137 -29.6863 11
    endloop
  endfacet
  facet normal -0 0 1
    outer loop
      vertex -17.2284 -21.648 11
      vertex -8.88912 -27.6965 11
      vertex -17.1167 -21.0867 11
    endloop
  endfacet
  facet normal -0 0 1
    outer loop
      vertex -17.1167 -21.0867 11
      vertex -8.88912 -27.6965 11
      vertex -17 -20.5 11
    endloop
  endfacet
  facet normal 0 0 1
    outer loop
      vertex -6.12293 -26.2179 11
      vertex -17 -20.5 11
      vertex -8.88912 -27.6965 11
    endloop
  endfacet
  facet normal -0 -0 1
    outer loop
      vertex -17.2284 -19.3519 11
      vertex -3.12144 -25.3074 11
      vertex -17.8787 -18.3787 11
    endloop
  endfacet
  facet normal 0 0 1
    outer loop
      vertex -6.12293 -26.2179 11
      vertex -17.1117 -19.9386 11
      vertex -17 -20.5 11
    endloop
  endfacet
  facet normal 0 0 1
    outer loop
      vertex -6.12293 -26.2179 11
      vertex -17.2284 -19.3519 11
      vertex -17.1117 -19.9386 11
    endloop
  endfacet
  facet normal 0 0 1
    outer loop
      vertex -3.12144 -25.3074 11
      vertex -17.2284 -19.3519 11
      vertex -6.12293 -26.2179 11
    endloop
  endfacet
  facet normal 0 0 1
    outer loop
      vertex 18.8519 -17.7284 11
      vertex -18.8519 -17.7284 11
      vertex -17.8787 -18.3787 11
    endloop
  endfacet
  facet normal -0 0 1
    outer loop
      vertex -35.25 -11 11
      vertex -18.8519 -17.7284 11
      vertex 30.714 -11 11
    endloop
  endfacet
  facet normal 0 0 1
    outer loop
      vertex -18.8519 -17.7284 11
      vertex -35.25 -11 11
      vertex -19.4386 -17.6117 11
    endloop
  endfacet
  facet normal 0 0 1
    outer loop
      vertex -22.8883 -19.9386 11
      vertex -35.25 -11 11
      vertex -23 -20.5 11
    endloop
  endfacet
  facet normal 0 0 1
    outer loop
      vertex -22.7716 -19.3519 11
      vertex -35.25 -11 11
      vertex -22.8883 -19.9386 11
    endloop
  endfacet
  facet normal 0 0 1
    outer loop
      vertex -22.1213 -18.3787 11
      vertex -35.25 -11 11
      vertex -22.7716 -19.3519 11
    endloop
  endfacet
  facet normal 0 0 1
    outer loop
      vertex -21.148 -17.7284 11
      vertex -35.25 -11 11
      vertex -22.1213 -18.3787 11
    endloop
  endfacet
  facet normal 0 0 1
    outer loop
      vertex -20.5614 -17.6117 11
      vertex -35.25 -11 11
      vertex -21.148 -17.7284 11
    endloop
  endfacet
  facet normal 0 0 1
    outer loop
      vertex -20 -17.5 11
      vertex -35.25 -11 11
      vertex -20.5614 -17.6117 11
    endloop
  endfacet
  facet normal 0 0 1
    outer loop
      vertex -19.4386 -17.6117 11
      vertex -35.25 -11 11
      vertex -20 -17.5 11
    endloop
  endfacet
  facet normal 0 0 1
    outer loop
      vertex 22.8833 -21.0867 11
      vertex 30.714 -11 11
      vertex 23 -20.5 11
    endloop
  endfacet
  facet normal 0 0 1
    outer loop
      vertex 22.7716 -21.648 11
      vertex 30.714 -11 11
      vertex 22.8833 -21.0867 11
    endloop
  endfacet
  facet normal 0 0 1
    outer loop
      vertex 15.2646 -36.4677 11
      vertex 22.7716 -21.648 11
      vertex 22.1213 -22.6213 11
    endloop
  endfacet
  facet normal 0 0 1
    outer loop
      vertex 8.88912 -27.6965 11
      vertex 17.1167 -21.0867 11
      vertex 17 -20.5 11
    endloop
  endfacet
  facet normal -0 0 1
    outer loop
      vertex 22.7716 -21.648 11
      vertex 15.2646 -36.4677 11
      vertex 30.714 -11 11
    endloop
  endfacet
  facet normal -0 0 1
    outer loop
      vertex 21.148 -23.2716 11
      vertex 15.2646 -36.4677 11
      vertex 22.1213 -22.6213 11
    endloop
  endfacet
  facet normal 0 0 1
    outer loop
      vertex 14.7821 -34.8771 11
      vertex 21.148 -23.2716 11
      vertex 20.5867 -23.3833 11
    endloop
  endfacet
  facet normal 0 0 1
    outer loop
      vertex 14.7821 -34.8771 11
      vertex 20.5867 -23.3833 11
      vertex 20 -23.5 11
    endloop
  endfacet
  facet normal 0 0 1
    outer loop
      vertex 14.7821 -34.8771 11
      vertex 20 -23.5 11
      vertex 19.4133 -23.3833 11
    endloop
  endfacet
  facet normal 0 0 1
    outer loop
      vertex 14.7821 -34.8771 11
      vertex 19.4133 -23.3833 11
      vertex 18.8519 -23.2716 11
    endloop
  endfacet
  facet normal 0 0 1
    outer loop
      vertex 14.7821 -34.8771 11
      vertex 18.8519 -23.2716 11
      vertex 17.8787 -22.6213 11
    endloop
  endfacet
  facet normal 0 0 1
    outer loop
      vertex 14.7821 -34.8771 11
      vertex 17.8787 -22.6213 11
      vertex 17.2284 -21.648 11
    endloop
  endfacet
  facet normal 0 0 1
    outer loop
      vertex 14.7821 -34.8771 11
      vertex 17.2284 -21.648 11
      vertex 17.1167 -21.0867 11
    endloop
  endfacet
  facet normal -0 0 1
    outer loop
      vertex -18.8519 -23.2716 11
      vertex -11.3137 -29.6863 11
      vertex -17.8787 -22.6213 11
    endloop
  endfacet
  facet normal 0 0 1
    outer loop
      vertex -11.3137 -29.6863 11
      vertex -18.8519 -23.2716 11
      vertex -13.3035 -32.1109 11
    endloop
  endfacet
  facet normal -0 0 1
    outer loop
      vertex -19.4133 -23.3833 11
      vertex -13.3035 -32.1109 11
      vertex -18.8519 -23.2716 11
    endloop
  endfacet
  facet normal -0 0 1
    outer loop
      vertex -20 -23.5 11
      vertex -13.3035 -32.1109 11
      vertex -19.4133 -23.3833 11
    endloop
  endfacet
  facet normal 0 0 1
    outer loop
      vertex -13.3035 -32.1109 11
      vertex -20 -23.5 11
      vertex -14.7821 -34.8771 11
    endloop
  endfacet
  facet normal 0 0 1
    outer loop
      vertex -20.5867 -23.3833 11
      vertex -14.7821 -34.8771 11
      vertex -20 -23.5 11
    endloop
  endfacet
  facet normal 0 0 1
    outer loop
      vertex -21.148 -23.2716 11
      vertex -14.7821 -34.8771 11
      vertex -20.5867 -23.3833 11
    endloop
  endfacet
  facet normal 0 0 1
    outer loop
      vertex -14.7821 -34.8771 11
      vertex -21.148 -23.2716 11
      vertex -15.4693 -37.1424 11
    endloop
  endfacet
  facet normal 0 0 1
    outer loop
      vertex -22.1213 -22.6213 11
      vertex -15.4693 -37.1424 11
      vertex -21.148 -23.2716 11
    endloop
  endfacet
  facet normal 0 0 1
    outer loop
      vertex -35.5003 -10.9502 11
      vertex -22.1213 -22.6213 11
      vertex -22.7716 -21.648 11
    endloop
  endfacet
  facet normal 0 0 1
    outer loop
      vertex -35.25 -11 11
      vertex -22.8833 -21.0867 11
      vertex -23 -20.5 11
    endloop
  endfacet
  facet normal 0 0 1
    outer loop
      vertex -35.25 -11 11
      vertex -22.7716 -21.648 11
      vertex -22.8833 -21.0867 11
    endloop
  endfacet
  facet normal 0 0 1
    outer loop
      vertex -35.5003 -10.9502 11
      vertex -22.7716 -21.648 11
      vertex -35.25 -11 11
    endloop
  endfacet
  facet normal 0 0 1
    outer loop
      vertex -22.1213 -22.6213 11
      vertex -35.5003 -10.9502 11
      vertex -15.4693 -37.1424 11
    endloop
  endfacet
  facet normal -8.94874e-007 -1.78005e-007 1
    outer loop
      vertex -41.7171 -2.82121 11
      vertex -42.25 -5.5 11
      vertex -41.7171 -8.17877 11
    endloop
  endfacet
  facet normal 0.992764 0.12008 -0
    outer loop
      vertex 36.744 -1 10.9113
      vertex 36.744 -1 11
      vertex 36.75 -1.04999 11
    endloop
  endfacet
  facet normal 0.992764 0.120082 0
    outer loop
      vertex 36.744 -1 10.9113
      vertex 36.75 -1.04999 -11
      vertex 36.744 -1 -11
    endloop
  endfacet
  facet normal 0.992764 0.12008 5.20534e-009
    outer loop
      vertex 36.75 -1.04999 -11
      vertex 36.744 -1 10.9113
      vertex 36.75 -1.04999 11
    endloop
  endfacet
  facet normal -0.980784 -0.195094 -8.45711e-009
    outer loop
      vertex -41.7171 -8.17877 -11
      vertex -42.25 -5.5 11
      vertex -42.25 -5.5 -11
    endloop
  endfacet
  facet normal -0.980784 -0.195094 -8.45711e-009
    outer loop
      vertex -42.25 -5.5 11
      vertex -41.7171 -8.17877 -11
      vertex -41.7171 -8.17877 11
    endloop
  endfacet
  facet normal -0.83147 -0.55557 -2.40833e-008
    outer loop
      vertex -40.1997 -10.4497 -11
      vertex -41.7171 -8.17877 11
      vertex -41.7171 -8.17877 -11
    endloop
  endfacet
  facet normal -0.83147 -0.55557 -2.40833e-008
    outer loop
      vertex -41.7171 -8.17877 11
      vertex -40.1997 -10.4497 -11
      vertex -40.1997 -10.4497 11
    endloop
  endfacet
  facet normal 0 0 -1
    outer loop
      vertex 36.75 -1.04999 -11
      vertex 36.7438 -1 -11
      vertex 36.744 -1 -11
    endloop
  endfacet
  facet normal 0 0 -1
    outer loop
      vertex 36.75 -1.04999 -11
      vertex 36.7401 -1 -11
      vertex 36.7438 -1 -11
    endloop
  endfacet
  facet normal 0 1 0
    outer loop
      vertex -38.2248 -1 11
      vertex -40.9043 -1 8.28273
      vertex -40.9043 -1 11
    endloop
  endfacet
  facet normal 0 1 -0
    outer loop
      vertex -38.2248 -1 -11
      vertex -40.9043 -1 8.28273
      vertex -38.2248 -1 11
    endloop
  endfacet
  facet normal 0 1 -0
    outer loop
      vertex -40.7913 -1 -11
      vertex -40.9043 -1 8.28273
      vertex -38.2248 -1 -11
    endloop
  endfacet
  facet normal 0 1 -0
    outer loop
      vertex -40.8517 -1 -11
      vertex -40.9043 -1 8.28273
      vertex -40.7913 -1 -11
    endloop
  endfacet
  facet normal 0 1 -0
    outer loop
      vertex -40.8914 -1 -11
      vertex -40.9043 -1 8.28273
      vertex -40.8517 -1 -11
    endloop
  endfacet
  facet normal 0 1 0
    outer loop
      vertex -40.9043 -1 8.28273
      vertex -40.8914 -1 -11
      vertex -40.9043 -1 -11
    endloop
  endfacet
  facet normal 0 1 -0
    outer loop
      vertex 36.744 -1 10.9113
      vertex 35.2401 -1 11
      vertex 36.744 -1 11
    endloop
  endfacet
  facet normal 0 1 0
    outer loop
      vertex 36.7438 -1 -11
      vertex 36.744 -1 10.9113
      vertex 36.744 -1 -11
    endloop
  endfacet
  facet normal 0 1 0
    outer loop
      vertex 36.7401 -1 -11
      vertex 36.744 -1 10.9113
      vertex 36.7438 -1 -11
    endloop
  endfacet
  facet normal 0 1 0
    outer loop
      vertex 35.2401 -1 -11
      vertex 36.744 -1 10.9113
      vertex 36.7401 -1 -11
    endloop
  endfacet
  facet normal 0 1 0
    outer loop
      vertex 36.744 -1 10.9113
      vertex 35.2401 -1 -11
      vertex 35.2401 -1 11
    endloop
  endfacet
  facet normal -0.634393 -0.773011 0
    outer loop
      vertex 8.88912 -27.6965 -11
      vertex 11.3137 -29.6863 11
      vertex 8.88912 -27.6965 11
    endloop
  endfacet
  facet normal -0.634393 -0.773011 -0
    outer loop
      vertex 11.3137 -29.6863 11
      vertex 8.88912 -27.6965 -11
      vertex 11.3137 -29.6863 -11
    endloop
  endfacet
  facet normal 0.290285 -0.95694 0
    outer loop
      vertex -6.12293 -26.2179 -11
      vertex -3.12144 -25.3074 11
      vertex -6.12293 -26.2179 11
    endloop
  endfacet
  facet normal 0.290285 -0.95694 0
    outer loop
      vertex -3.12144 -25.3074 11
      vertex -6.12293 -26.2179 -11
      vertex -3.12144 -25.3074 -11
    endloop
  endfacet
  facet normal 0.0980171 -0.995185 0
    outer loop
      vertex -1.90408 -25.1875 -11
      vertex -3.12144 -25.3074 11
      vertex -3.12144 -25.3074 -11
    endloop
  endfacet
  facet normal 0.0980165 -0.995185 -3.36329e-008
    outer loop
      vertex -3.12144 -25.3074 11
      vertex -1.90408 -25.1875 -11
      vertex -1.21736 -25.1199 11
    endloop
  endfacet
  facet normal -0.95694 -0.290284 0
    outer loop
      vertex 15.5015 -37.2488 -8.1746
      vertex 14.7821 -34.8771 11
      vertex 14.7821 -34.8771 -11
    endloop
  endfacet
  facet normal -0.95694 -0.290284 2.58696e-008
    outer loop
      vertex 14.7821 -34.8771 11
      vertex 15.5015 -37.2488 -8.1746
      vertex 15.2646 -36.4677 11
    endloop
  endfacet
  facet normal -0.95694 -0.290285 -3.91926e-007
    outer loop
      vertex 15.5015 -37.2488 -8.1746
      vertex 14.7821 -34.8771 -11
      vertex 15.5015 -37.2488 -11
    endloop
  endfacet
  facet normal -0.95694 -0.290284 2.6324e-008
    outer loop
      vertex 15.2646 -36.4677 11
      vertex 15.5015 -37.2488 -8.1746
      vertex 15.4973 -37.2348 11
    endloop
  endfacet
  facet normal -0.95695 -0.290251 0
    outer loop
      vertex 15.4973 -37.2348 11
      vertex 15.5015 -37.2488 -8.1746
      vertex 15.5015 -37.2488 11
    endloop
  endfacet
  facet normal -0.0980171 -0.995185 0
    outer loop
      vertex 0 -25 -11
      vertex 1.21736 -25.1199 11
      vertex 0 -25 11
    endloop
  endfacet
  facet normal -0.0980165 -0.995185 -3.36329e-008
    outer loop
      vertex 1.21736 -25.1199 11
      vertex 0 -25 -11
      vertex 1.90408 -25.1875 -11
    endloop
  endfacet
  facet normal 0.471397 -0.881921 0
    outer loop
      vertex -8.88912 -27.6965 -11
      vertex -6.12293 -26.2179 11
      vertex -8.88912 -27.6965 11
    endloop
  endfacet
  facet normal 0.471397 -0.881921 0
    outer loop
      vertex -6.12293 -26.2179 11
      vertex -8.88912 -27.6965 -11
      vertex -6.12293 -26.2179 -11
    endloop
  endfacet
  facet normal 0.634393 -0.773011 0
    outer loop
      vertex -11.3137 -29.6863 -11
      vertex -8.88912 -27.6965 11
      vertex -11.3137 -29.6863 11
    endloop
  endfacet
  facet normal 0.634393 -0.773011 0
    outer loop
      vertex -8.88912 -27.6965 11
      vertex -11.3137 -29.6863 -11
      vertex -8.88912 -27.6965 -11
    endloop
  endfacet
  facet normal 0.0980165 -0.995185 -3.36329e-008
    outer loop
      vertex 0 -25 -11
      vertex -1.21736 -25.1199 11
      vertex -1.90408 -25.1875 -11
    endloop
  endfacet
  facet normal 0.0980171 -0.995185 0
    outer loop
      vertex -1.21736 -25.1199 11
      vertex 0 -25 -11
      vertex 0 -25 11
    endloop
  endfacet
  facet normal -0.471397 -0.881921 0
    outer loop
      vertex 6.12293 -26.2179 -11
      vertex 8.88912 -27.6965 11
      vertex 6.12293 -26.2179 11
    endloop
  endfacet
  facet normal -0.471397 -0.881921 -0
    outer loop
      vertex 8.88912 -27.6965 11
      vertex 6.12293 -26.2179 -11
      vertex 8.88912 -27.6965 -11
    endloop
  endfacet
  facet normal -0.290285 -0.95694 0
    outer loop
      vertex 3.12144 -25.3074 -11
      vertex 6.12293 -26.2179 11
      vertex 3.12144 -25.3074 11
    endloop
  endfacet
  facet normal -0.290285 -0.95694 -0
    outer loop
      vertex 6.12293 -26.2179 11
      vertex 3.12144 -25.3074 -11
      vertex 6.12293 -26.2179 -11
    endloop
  endfacet
  facet normal -0.0980165 -0.995185 -3.36329e-008
    outer loop
      vertex 1.90408 -25.1875 -11
      vertex 3.12144 -25.3074 11
      vertex 1.21736 -25.1199 11
    endloop
  endfacet
  facet normal -0.0980171 -0.995185 -0
    outer loop
      vertex 3.12144 -25.3074 11
      vertex 1.90408 -25.1875 -11
      vertex 3.12144 -25.3074 -11
    endloop
  endfacet
  facet normal -0.881921 -0.471397 -8.1738e-008
    outer loop
      vertex 14.7821 -34.8771 -11
      vertex 13.3035 -32.1109 11
      vertex 13.3035 -32.1109 -11
    endloop
  endfacet
  facet normal -0.881921 -0.471397 0
    outer loop
      vertex 13.3035 -32.1109 11
      vertex 14.7821 -34.8771 -11
      vertex 14.7821 -34.8771 11
    endloop
  endfacet
  facet normal -0.77301 -0.634393 0
    outer loop
      vertex 13.3035 -32.1109 -11
      vertex 11.3137 -29.6863 11
      vertex 11.3137 -29.6863 -11
    endloop
  endfacet
  facet normal -0.773011 -0.634393 -1.10001e-007
    outer loop
      vertex 11.3137 -29.6863 11
      vertex 13.3035 -32.1109 -11
      vertex 13.3035 -32.1109 11
    endloop
  endfacet
  facet normal 0.77301 -0.634393 0
    outer loop
      vertex -11.3137 -29.6863 11
      vertex -13.3035 -32.1109 -11
      vertex -11.3137 -29.6863 -11
    endloop
  endfacet
  facet normal 0.773011 -0.634393 -1.10001e-007
    outer loop
      vertex -13.3035 -32.1109 -11
      vertex -11.3137 -29.6863 11
      vertex -13.3035 -32.1109 11
    endloop
  endfacet
  facet normal 0.881921 -0.471397 -8.17381e-008
    outer loop
      vertex -14.7821 -34.8771 11
      vertex -13.3035 -32.1109 -11
      vertex -13.3035 -32.1109 11
    endloop
  endfacet
  facet normal 0.881921 -0.471397 0
    outer loop
      vertex -13.3035 -32.1109 -11
      vertex -14.7821 -34.8771 11
      vertex -14.7821 -34.8771 -11
    endloop
  endfacet
  facet normal 0.95694 -0.290285 2.38059e-008
    outer loop
      vertex -15.6068 -37.5957 -8.53251
      vertex -14.7821 -34.8771 11
      vertex -15.4693 -37.1424 11
    endloop
  endfacet
  facet normal 0.956941 -0.290284 0
    outer loop
      vertex -15.6068 -37.5957 -8.53251
      vertex -15.4693 -37.1424 11
      vertex -15.6068 -37.5957 11
    endloop
  endfacet
  facet normal 0.95694 -0.290285 0
    outer loop
      vertex -14.7821 -34.8771 11
      vertex -15.6068 -37.5957 -8.53251
      vertex -14.7821 -34.8771 -11
    endloop
  endfacet
  facet normal 0.95694 -0.290285 0
    outer loop
      vertex -14.7821 -34.8771 -11
      vertex -15.6068 -37.5957 -8.53251
      vertex -15.6068 -37.5957 -11
    endloop
  endfacet
endsolid OpenSCAD_Model
