solid OpenSCAD_Model
  facet normal 0.95472 -0.297504 0
    outer loop
      vertex 20.7919 -2.27226 6
      vertex 21.5 0 0
      vertex 21.5 0 6
    endloop
  endfacet
  facet normal 0.95472 -0.297504 0
    outer loop
      vertex 21.5 0 0
      vertex 20.7919 -2.27226 6
      vertex 20.7919 -2.27226 0
    endloop
  endfacet
  facet normal -0.846723 0.532034 0
    outer loop
      vertex -20.0204 19.6746 0
      vertex -18.9779 21.3336 6
      vertex -18.9779 21.3336 0
    endloop
  endfacet
  facet normal -0.846723 0.532034 0
    outer loop
      vertex -18.9779 21.3336 6
      vertex -20.0204 19.6746 0
      vertex -20.0204 19.6746 6
    endloop
  endfacet
  facet normal 0.663121 -0.748512 0
    outer loop
      vertex 19.3589 -3.54182 0
      vertex 20.7919 -2.27226 6
      vertex 19.3589 -3.54182 6
    endloop
  endfacet
  facet normal 0.663121 -0.748512 0
    outer loop
      vertex 20.7919 -2.27226 6
      vertex 19.3589 -3.54182 0
      vertex 20.7919 -2.27226 0
    endloop
  endfacet
  facet normal 0.433884 0.900969 -0
    outer loop
      vertex 14.6746 25.0204 0
      vertex 13.8676 25.409 6
      vertex 14.6746 25.0204 6
    endloop
  endfacet
  facet normal 0.433884 0.900969 0
    outer loop
      vertex 13.8676 25.409 6
      vertex 14.6746 25.0204 0
      vertex 13.8676 25.409 0
    endloop
  endfacet
  facet normal -0.748512 -0.663121 0
    outer loop
      vertex -19.7723 -3.29193 0
      vertex -21.0418 -1.85889 6
      vertex -21.0418 -1.85889 0
    endloop
  endfacet
  facet normal -0.748512 -0.663121 0
    outer loop
      vertex -21.0418 -1.85889 6
      vertex -19.7723 -3.29193 0
      vertex -19.7723 -3.29193 6
    endloop
  endfacet
  facet normal -0.297504 -0.95472 0
    outer loop
      vertex -19.7723 -3.29193 0
      vertex -17.5 -4 6
      vertex -19.7723 -3.29193 6
    endloop
  endfacet
  facet normal -0.297504 -0.95472 -0
    outer loop
      vertex -17.5 -4 6
      vertex -19.7723 -3.29193 0
      vertex -17.5 -4 0
    endloop
  endfacet
  facet normal 0.974924 0.222538 0
    outer loop
      vertex 21.2555 16.1449 6
      vertex 21.0561 17.0182 0
      vertex 21.0561 17.0182 6
    endloop
  endfacet
  facet normal 0.974924 0.222538 0
    outer loop
      vertex 21.0561 17.0182 0
      vertex 21.2555 16.1449 6
      vertex 21.2555 16.1449 0
    endloop
  endfacet
  facet normal -1 0 0
    outer loop
      vertex -21.5 0 0
      vertex -21.5 13.75 6
      vertex -21.5 13.75 0
    endloop
  endfacet
  facet normal -1 -0 0
    outer loop
      vertex -21.5 13.75 6
      vertex -21.5 0 0
      vertex -21.5 0 6
    endloop
  endfacet
  facet normal -0.970942 -0.239316 0
    outer loop
      vertex -21.0418 -1.85889 0
      vertex -21.5 0 6
      vertex -21.5 0 0
    endloop
  endfacet
  facet normal -0.970942 -0.239316 0
    outer loop
      vertex -21.5 0 6
      vertex -21.0418 -1.85889 0
      vertex -21.0418 -1.85889 6
    endloop
  endfacet
  facet normal 0 -1 0
    outer loop
      vertex 16.5 -4 0
      vertex 17.5 -4 6
      vertex 16.5 -4 6
    endloop
  endfacet
  facet normal 0 -1 -0
    outer loop
      vertex 17.5 -4 6
      vertex 16.5 -4 0
      vertex 17.5 -4 0
    endloop
  endfacet
  facet normal 0 -1 0
    outer loop
      vertex -17.5 -4 0
      vertex -16.5 -4 6
      vertex -17.5 -4 6
    endloop
  endfacet
  facet normal 0 -1 -0
    outer loop
      vertex -16.5 -4 6
      vertex -17.5 -4 0
      vertex -16.5 -4 0
    endloop
  endfacet
  facet normal -0.11197 0.993712 0
    outer loop
      vertex -9.19788 26.4749 0
      vertex -11.1449 26.2555 6
      vertex -9.19788 26.4749 6
    endloop
  endfacet
  facet normal -0.11197 0.993712 0
    outer loop
      vertex -11.1449 26.2555 6
      vertex -9.19788 26.4749 0
      vertex -11.1449 26.2555 0
    endloop
  endfacet
  facet normal 1 -0 0
    outer loop
      vertex 21.5 0 6
      vertex 21.5 13.75 0
      vertex 21.5 13.75 6
    endloop
  endfacet
  facet normal 1 0 0
    outer loop
      vertex 21.5 13.75 0
      vertex 21.5 0 6
      vertex 21.5 0 0
    endloop
  endfacet
  facet normal -0.993712 0.11197 0
    outer loop
      vertex -21.4749 14.1979 0
      vertex -21.2555 16.1449 6
      vertex -21.2555 16.1449 0
    endloop
  endfacet
  facet normal -0.993712 0.11197 0
    outer loop
      vertex -21.2555 16.1449 6
      vertex -21.4749 14.1979 0
      vertex -21.4749 14.1979 6
    endloop
  endfacet
  facet normal 0 0 1
    outer loop
      vertex 21.2555 16.1449 6
      vertex 17.2806 15.6971 6
      vertex 17.5 13.75 6
    endloop
  endfacet
  facet normal 0 0 1
    outer loop
      vertex 15.591 19.2055 6
      vertex 18.4194 22.034 6
      vertex 17.034 23.4194 6
    endloop
  endfacet
  facet normal 0 0 1
    outer loop
      vertex 18.9779 21.3336 6
      vertex 16.6335 17.5465 6
      vertex 17.2806 15.6971 6
    endloop
  endfacet
  facet normal 0 0 1
    outer loop
      vertex 14.2055 20.591 6
      vertex 17.034 23.4194 6
      vertex 16.3336 23.9779 6
    endloop
  endfacet
  facet normal 0 0 1
    outer loop
      vertex 18.9779 21.3336 6
      vertex 15.591 19.2055 6
      vertex 16.6335 17.5465 6
    endloop
  endfacet
  facet normal 0 0 1
    outer loop
      vertex 14.2055 20.591 6
      vertex 16.3336 23.9779 6
      vertex 14.6746 25.0204 6
    endloop
  endfacet
  facet normal 0 0 1
    outer loop
      vertex 17.034 23.4194 6
      vertex 14.2055 20.591 6
      vertex 15.591 19.2055 6
    endloop
  endfacet
  facet normal 0 0 1
    outer loop
      vertex 12.5465 21.6335 6
      vertex 14.6746 25.0204 6
      vertex 13.8676 25.409 6
    endloop
  endfacet
  facet normal 0 0 1
    outer loop
      vertex 14.6746 25.0204 6
      vertex 12.5465 21.6335 6
      vertex 14.2055 20.591 6
    endloop
  endfacet
  facet normal 0 0 1
    outer loop
      vertex 12.0182 26.0561 6
      vertex 12.5465 21.6335 6
      vertex 13.8676 25.409 6
    endloop
  endfacet
  facet normal 0 0 1
    outer loop
      vertex 10.6971 22.2806 6
      vertex 12.0182 26.0561 6
      vertex 11.1449 26.2555 6
    endloop
  endfacet
  facet normal 0 0 1
    outer loop
      vertex 12.0182 26.0561 6
      vertex 10.6971 22.2806 6
      vertex 12.5465 21.6335 6
    endloop
  endfacet
  facet normal 0 0 1
    outer loop
      vertex 9.19788 26.4749 6
      vertex 10.6971 22.2806 6
      vertex 11.1449 26.2555 6
    endloop
  endfacet
  facet normal 0 0 1
    outer loop
      vertex 8.75 22.5 6
      vertex 9.19788 26.4749 6
      vertex 8.75 26.5 6
    endloop
  endfacet
  facet normal 0 0 1
    outer loop
      vertex 9.19788 26.4749 6
      vertex 8.75 22.5 6
      vertex 10.6971 22.2806 6
    endloop
  endfacet
  facet normal -0 0 1
    outer loop
      vertex -8.75 26.5 6
      vertex 8.75 22.5 6
      vertex 8.75 26.5 6
    endloop
  endfacet
  facet normal 0 0 1
    outer loop
      vertex -8.75 26.5 6
      vertex -8.75 22.5 6
      vertex 8.75 22.5 6
    endloop
  endfacet
  facet normal -0 0 1
    outer loop
      vertex -9.19788 26.4749 6
      vertex -8.75 22.5 6
      vertex -8.75 26.5 6
    endloop
  endfacet
  facet normal 0 0 1
    outer loop
      vertex -9.19788 26.4749 6
      vertex -10.6971 22.2806 6
      vertex -8.75 22.5 6
    endloop
  endfacet
  facet normal -0 0 1
    outer loop
      vertex -11.1449 26.2555 6
      vertex -10.6971 22.2806 6
      vertex -9.19788 26.4749 6
    endloop
  endfacet
  facet normal -0 0 1
    outer loop
      vertex -12.0182 26.0561 6
      vertex -10.6971 22.2806 6
      vertex -11.1449 26.2555 6
    endloop
  endfacet
  facet normal 0 0 1
    outer loop
      vertex -12.0182 26.0561 6
      vertex -12.5465 21.6335 6
      vertex -10.6971 22.2806 6
    endloop
  endfacet
  facet normal -0 0 1
    outer loop
      vertex -13.8676 25.409 6
      vertex -12.5465 21.6335 6
      vertex -12.0182 26.0561 6
    endloop
  endfacet
  facet normal -0 0 1
    outer loop
      vertex -14.6746 25.0204 6
      vertex -12.5465 21.6335 6
      vertex -13.8676 25.409 6
    endloop
  endfacet
  facet normal 0 0 1
    outer loop
      vertex -12.5465 21.6335 6
      vertex -14.6746 25.0204 6
      vertex -14.2055 20.591 6
    endloop
  endfacet
  facet normal -0 0 1
    outer loop
      vertex -16.3336 23.9779 6
      vertex -14.2055 20.591 6
      vertex -14.6746 25.0204 6
    endloop
  endfacet
  facet normal -0 0 1
    outer loop
      vertex -17.034 23.4194 6
      vertex -14.2055 20.591 6
      vertex -16.3336 23.9779 6
    endloop
  endfacet
  facet normal 0 0 1
    outer loop
      vertex -14.2055 20.591 6
      vertex -17.034 23.4194 6
      vertex -15.591 19.2055 6
    endloop
  endfacet
  facet normal -0 0 1
    outer loop
      vertex -18.4194 22.034 6
      vertex -15.591 19.2055 6
      vertex -17.034 23.4194 6
    endloop
  endfacet
  facet normal -0 0 1
    outer loop
      vertex -18.9779 21.3336 6
      vertex -15.591 19.2055 6
      vertex -18.4194 22.034 6
    endloop
  endfacet
  facet normal 0 0 1
    outer loop
      vertex -15.591 19.2055 6
      vertex -18.9779 21.3336 6
      vertex -16.6335 17.5465 6
    endloop
  endfacet
  facet normal 0 0 1
    outer loop
      vertex -21.5 0 6
      vertex -17.5 0 6
      vertex -17.5 13.75 6
    endloop
  endfacet
  facet normal -0 0 1
    outer loop
      vertex -20.0204 19.6746 6
      vertex -16.6335 17.5465 6
      vertex -18.9779 21.3336 6
    endloop
  endfacet
  facet normal -0 0 1
    outer loop
      vertex -20.409 18.8676 6
      vertex -16.6335 17.5465 6
      vertex -20.0204 19.6746 6
    endloop
  endfacet
  facet normal 0 0 1
    outer loop
      vertex -16.6335 17.5465 6
      vertex -20.409 18.8676 6
      vertex -17.2806 15.6971 6
    endloop
  endfacet
  facet normal 0 0 1
    outer loop
      vertex -21.5 0 6
      vertex -17.5 13.75 6
      vertex -21.5 13.75 6
    endloop
  endfacet
  facet normal -0 0 1
    outer loop
      vertex -21.0561 17.0182 6
      vertex -17.2806 15.6971 6
      vertex -20.409 18.8676 6
    endloop
  endfacet
  facet normal -0 0 1
    outer loop
      vertex -21.2555 16.1449 6
      vertex -17.2806 15.6971 6
      vertex -21.0561 17.0182 6
    endloop
  endfacet
  facet normal 0 -0 1
    outer loop
      vertex -21.0418 -1.85889 6
      vertex -17.5 0 6
      vertex -21.5 0 6
    endloop
  endfacet
  facet normal 0 0 1
    outer loop
      vertex -17.2806 15.6971 6
      vertex -21.2555 16.1449 6
      vertex -17.5 13.75 6
    endloop
  endfacet
  facet normal 0 0 1
    outer loop
      vertex -17.5 13.75 6
      vertex -21.2555 16.1449 6
      vertex -21.4749 14.1979 6
    endloop
  endfacet
  facet normal 0 0 1
    outer loop
      vertex -17.5 13.75 6
      vertex -21.4749 14.1979 6
      vertex -21.5 13.75 6
    endloop
  endfacet
  facet normal 0 0 1
    outer loop
      vertex -17.5 0 6
      vertex -19.7723 -3.29193 6
      vertex -17.5 -4 6
    endloop
  endfacet
  facet normal 0 0 1
    outer loop
      vertex -17.5 0 6
      vertex -21.0418 -1.85889 6
      vertex -19.7723 -3.29193 6
    endloop
  endfacet
  facet normal 0 0 1
    outer loop
      vertex 17.5 13.75 6
      vertex 21.5 13.75 6
      vertex 21.4749 14.1979 6
    endloop
  endfacet
  facet normal 0 0 1
    outer loop
      vertex 17.5 13.75 6
      vertex 21.4749 14.1979 6
      vertex 21.2555 16.1449 6
    endloop
  endfacet
  facet normal 0 0 1
    outer loop
      vertex 17.2806 15.6971 6
      vertex 21.2555 16.1449 6
      vertex 21.0561 17.0182 6
    endloop
  endfacet
  facet normal 0 0 1
    outer loop
      vertex 21.5 13.75 6
      vertex 17.5 13.75 6
      vertex 21.5 0 6
    endloop
  endfacet
  facet normal 0 0 1
    outer loop
      vertex 17.2806 15.6971 6
      vertex 21.0561 17.0182 6
      vertex 20.409 18.8676 6
    endloop
  endfacet
  facet normal 0 0 1
    outer loop
      vertex 17.2806 15.6971 6
      vertex 20.409 18.8676 6
      vertex 20.0204 19.6746 6
    endloop
  endfacet
  facet normal 0 0 1
    outer loop
      vertex 17.5 0 6
      vertex 21.5 0 6
      vertex 17.5 13.75 6
    endloop
  endfacet
  facet normal 0 0 1
    outer loop
      vertex 17.2806 15.6971 6
      vertex 20.0204 19.6746 6
      vertex 18.9779 21.3336 6
    endloop
  endfacet
  facet normal 0 0 1
    outer loop
      vertex 15.591 19.2055 6
      vertex 18.9779 21.3336 6
      vertex 18.4194 22.034 6
    endloop
  endfacet
  facet normal 0 0 1
    outer loop
      vertex 21.5 0 6
      vertex 17.5 0 6
      vertex 20.7919 -2.27226 6
    endloop
  endfacet
  facet normal 0 0 1
    outer loop
      vertex 20.7919 -2.27226 6
      vertex 17.5 0 6
      vertex 19.3589 -3.54182 6
    endloop
  endfacet
  facet normal 0 0 1
    outer loop
      vertex 17.5 0 6
      vertex 17.5 -4 6
      vertex 19.3589 -3.54182 6
    endloop
  endfacet
  facet normal -0 0 1
    outer loop
      vertex 16.5 0 6
      vertex 17.5 -4 6
      vertex 17.5 0 6
    endloop
  endfacet
  facet normal 0 0 1
    outer loop
      vertex 17.5 -4 6
      vertex 16.5 0 6
      vertex 16.5 -4 6
    endloop
  endfacet
  facet normal -0 0 1
    outer loop
      vertex -17.5 0 6
      vertex -16.5 -4 6
      vertex -16.5 0 6
    endloop
  endfacet
  facet normal 0 0 1
    outer loop
      vertex -16.5 -4 6
      vertex -17.5 0 6
      vertex -17.5 -4 6
    endloop
  endfacet
  facet normal -0.998428 0.0560578 0
    outer loop
      vertex -21.5 13.75 0
      vertex -21.4749 14.1979 6
      vertex -21.4749 14.1979 0
    endloop
  endfacet
  facet normal -0.998428 0.0560578 0
    outer loop
      vertex -21.4749 14.1979 6
      vertex -21.5 13.75 0
      vertex -21.5 13.75 6
    endloop
  endfacet
  facet normal 0 0 -1
    outer loop
      vertex -17.5 -4 0
      vertex -16.5 0 0
      vertex -16.5 -4 0
    endloop
  endfacet
  facet normal 0 0 -1
    outer loop
      vertex -17.5 -4 0
      vertex -17.5 0 0
      vertex -16.5 0 0
    endloop
  endfacet
  facet normal 0 0 -1
    outer loop
      vertex -19.7723 -3.29193 0
      vertex -17.5 0 0
      vertex -17.5 -4 0
    endloop
  endfacet
  facet normal 0 0 -1
    outer loop
      vertex -17.5 0 0
      vertex -21.5 0 0
      vertex -17.5 13.75 0
    endloop
  endfacet
  facet normal 0 -0 -1
    outer loop
      vertex -21.4749 14.1979 0
      vertex -17.5 13.75 0
      vertex -21.5 13.75 0
    endloop
  endfacet
  facet normal 0 0 -1
    outer loop
      vertex -21.0418 -1.85889 0
      vertex -17.5 0 0
      vertex -19.7723 -3.29193 0
    endloop
  endfacet
  facet normal 0 -0 -1
    outer loop
      vertex -21.2555 16.1449 0
      vertex -17.5 13.75 0
      vertex -21.4749 14.1979 0
    endloop
  endfacet
  facet normal 0 0 -1
    outer loop
      vertex -17.5 13.75 0
      vertex -18.9779 21.3336 0
      vertex -18.4194 22.034 0
    endloop
  endfacet
  facet normal -0 0 -1
    outer loop
      vertex -17.5 0 0
      vertex -21.0418 -1.85889 0
      vertex -21.5 0 0
    endloop
  endfacet
  facet normal 0 0 -1
    outer loop
      vertex -17.5 13.75 0
      vertex -20.0204 19.6746 0
      vertex -18.9779 21.3336 0
    endloop
  endfacet
  facet normal 0 0 -1
    outer loop
      vertex -17.5 13.75 0
      vertex -20.409 18.8676 0
      vertex -20.0204 19.6746 0
    endloop
  endfacet
  facet normal 0 0 -1
    outer loop
      vertex -17.5 13.75 0
      vertex -21.0561 17.0182 0
      vertex -20.409 18.8676 0
    endloop
  endfacet
  facet normal -0 0 -1
    outer loop
      vertex -17.5 13.75 0
      vertex -21.5 0 0
      vertex -21.5 13.75 0
    endloop
  endfacet
  facet normal 0 0 -1
    outer loop
      vertex -17.5 13.75 0
      vertex -21.2555 16.1449 0
      vertex -21.0561 17.0182 0
    endloop
  endfacet
  facet normal 0 0 -1
    outer loop
      vertex 16.5 -4 0
      vertex 17.5 0 0
      vertex 17.5 -4 0
    endloop
  endfacet
  facet normal -0 0 -1
    outer loop
      vertex 17.5 0 0
      vertex 16.5 -4 0
      vertex 16.5 0 0
    endloop
  endfacet
  facet normal 0 0 -1
    outer loop
      vertex 17.5 13.75 0
      vertex 21.5 13.75 0
      vertex 21.5 0 0
    endloop
  endfacet
  facet normal 0 0 -1
    outer loop
      vertex 21.5 13.75 0
      vertex 17.5 13.75 0
      vertex 21.4749 14.1979 0
    endloop
  endfacet
  facet normal -0 0 -1
    outer loop
      vertex 21.4749 14.1979 0
      vertex 17.5 13.75 0
      vertex 21.2555 16.1449 0
    endloop
  endfacet
  facet normal 0 0 -1
    outer loop
      vertex 17.5 0 0
      vertex 21.5 0 0
      vertex 20.7919 -2.27226 0
    endloop
  endfacet
  facet normal 0 0 -1
    outer loop
      vertex 17.2806 15.6971 0
      vertex 21.2555 16.1449 0
      vertex 17.5 13.75 0
    endloop
  endfacet
  facet normal -0 0 -1
    outer loop
      vertex 21.2555 16.1449 0
      vertex 17.2806 15.6971 0
      vertex 21.0561 17.0182 0
    endloop
  endfacet
  facet normal 0 0 -1
    outer loop
      vertex 17.5 0 0
      vertex 20.7919 -2.27226 0
      vertex 19.3589 -3.54182 0
    endloop
  endfacet
  facet normal -0 0 -1
    outer loop
      vertex 21.0561 17.0182 0
      vertex 17.2806 15.6971 0
      vertex 20.409 18.8676 0
    endloop
  endfacet
  facet normal 0 0 -1
    outer loop
      vertex 16.6335 17.5465 0
      vertex 20.409 18.8676 0
      vertex 17.2806 15.6971 0
    endloop
  endfacet
  facet normal 0 0 -1
    outer loop
      vertex 17.5 0 0
      vertex 19.3589 -3.54182 0
      vertex 17.5 -4 0
    endloop
  endfacet
  facet normal 0 0 -1
    outer loop
      vertex 21.5 0 0
      vertex 17.5 0 0
      vertex 17.5 13.75 0
    endloop
  endfacet
  facet normal -0 0 -1
    outer loop
      vertex 20.409 18.8676 0
      vertex 16.6335 17.5465 0
      vertex 20.0204 19.6746 0
    endloop
  endfacet
  facet normal -0 0 -1
    outer loop
      vertex 20.0204 19.6746 0
      vertex 16.6335 17.5465 0
      vertex 18.9779 21.3336 0
    endloop
  endfacet
  facet normal 0 0 -1
    outer loop
      vertex 15.591 19.2055 0
      vertex 18.9779 21.3336 0
      vertex 16.6335 17.5465 0
    endloop
  endfacet
  facet normal -0 0 -1
    outer loop
      vertex 18.9779 21.3336 0
      vertex 15.591 19.2055 0
      vertex 18.4194 22.034 0
    endloop
  endfacet
  facet normal -0 0 -1
    outer loop
      vertex 18.4194 22.034 0
      vertex 15.591 19.2055 0
      vertex 17.034 23.4194 0
    endloop
  endfacet
  facet normal 0 0 -1
    outer loop
      vertex 14.2055 20.591 0
      vertex 17.034 23.4194 0
      vertex 15.591 19.2055 0
    endloop
  endfacet
  facet normal -0 0 -1
    outer loop
      vertex 17.034 23.4194 0
      vertex 14.2055 20.591 0
      vertex 16.3336 23.9779 0
    endloop
  endfacet
  facet normal -0 0 -1
    outer loop
      vertex 16.3336 23.9779 0
      vertex 14.2055 20.591 0
      vertex 14.6746 25.0204 0
    endloop
  endfacet
  facet normal 0 0 -1
    outer loop
      vertex 12.5465 21.6335 0
      vertex 14.6746 25.0204 0
      vertex 14.2055 20.591 0
    endloop
  endfacet
  facet normal -0 0 -1
    outer loop
      vertex 14.6746 25.0204 0
      vertex 12.5465 21.6335 0
      vertex 13.8676 25.409 0
    endloop
  endfacet
  facet normal 0 0 -1
    outer loop
      vertex 12.5465 21.6335 0
      vertex 12.0182 26.0561 0
      vertex 13.8676 25.409 0
    endloop
  endfacet
  facet normal 0 0 -1
    outer loop
      vertex 10.6971 22.2806 0
      vertex 12.0182 26.0561 0
      vertex 12.5465 21.6335 0
    endloop
  endfacet
  facet normal -0 0 -1
    outer loop
      vertex 12.0182 26.0561 0
      vertex 10.6971 22.2806 0
      vertex 11.1449 26.2555 0
    endloop
  endfacet
  facet normal 0 0 -1
    outer loop
      vertex 10.6971 22.2806 0
      vertex 9.19788 26.4749 0
      vertex 11.1449 26.2555 0
    endloop
  endfacet
  facet normal 0 0 -1
    outer loop
      vertex 8.75 22.5 0
      vertex 9.19788 26.4749 0
      vertex 10.6971 22.2806 0
    endloop
  endfacet
  facet normal 0 0 -1
    outer loop
      vertex 8.75 22.5 0
      vertex 8.75 26.5 0
      vertex 9.19788 26.4749 0
    endloop
  endfacet
  facet normal 0 0 -1
    outer loop
      vertex -8.75 22.5 0
      vertex 8.75 26.5 0
      vertex 8.75 22.5 0
    endloop
  endfacet
  facet normal 0 0 -1
    outer loop
      vertex -8.75 22.5 0
      vertex -8.75 26.5 0
      vertex 8.75 26.5 0
    endloop
  endfacet
  facet normal 0 0 -1
    outer loop
      vertex -8.75 22.5 0
      vertex -9.19788 26.4749 0
      vertex -8.75 26.5 0
    endloop
  endfacet
  facet normal 0 0 -1
    outer loop
      vertex -10.6971 22.2806 0
      vertex -9.19788 26.4749 0
      vertex -8.75 22.5 0
    endloop
  endfacet
  facet normal 0 0 -1
    outer loop
      vertex -10.6971 22.2806 0
      vertex -11.1449 26.2555 0
      vertex -9.19788 26.4749 0
    endloop
  endfacet
  facet normal 0 0 -1
    outer loop
      vertex -10.6971 22.2806 0
      vertex -12.0182 26.0561 0
      vertex -11.1449 26.2555 0
    endloop
  endfacet
  facet normal 0 0 -1
    outer loop
      vertex -12.5465 21.6335 0
      vertex -12.0182 26.0561 0
      vertex -10.6971 22.2806 0
    endloop
  endfacet
  facet normal 0 0 -1
    outer loop
      vertex -12.5465 21.6335 0
      vertex -13.8676 25.409 0
      vertex -12.0182 26.0561 0
    endloop
  endfacet
  facet normal 0 0 -1
    outer loop
      vertex -14.6746 25.0204 0
      vertex -12.5465 21.6335 0
      vertex -14.2055 20.591 0
    endloop
  endfacet
  facet normal 0 0 -1
    outer loop
      vertex -12.5465 21.6335 0
      vertex -14.6746 25.0204 0
      vertex -13.8676 25.409 0
    endloop
  endfacet
  facet normal 0 0 -1
    outer loop
      vertex -17.034 23.4194 0
      vertex -14.2055 20.591 0
      vertex -15.591 19.2055 0
    endloop
  endfacet
  facet normal 0 0 -1
    outer loop
      vertex -14.2055 20.591 0
      vertex -16.3336 23.9779 0
      vertex -14.6746 25.0204 0
    endloop
  endfacet
  facet normal 0 0 -1
    outer loop
      vertex -18.4194 22.034 0
      vertex -15.591 19.2055 0
      vertex -16.6335 17.5465 0
    endloop
  endfacet
  facet normal 0 0 -1
    outer loop
      vertex -14.2055 20.591 0
      vertex -17.034 23.4194 0
      vertex -16.3336 23.9779 0
    endloop
  endfacet
  facet normal 0 0 -1
    outer loop
      vertex -18.4194 22.034 0
      vertex -16.6335 17.5465 0
      vertex -17.2806 15.6971 0
    endloop
  endfacet
  facet normal 0 0 -1
    outer loop
      vertex -18.4194 22.034 0
      vertex -17.2806 15.6971 0
      vertex -17.5 13.75 0
    endloop
  endfacet
  facet normal 0 0 -1
    outer loop
      vertex -15.591 19.2055 0
      vertex -18.4194 22.034 0
      vertex -17.034 23.4194 0
    endloop
  endfacet
  facet normal 0.239316 -0.970942 0
    outer loop
      vertex 17.5 -4 0
      vertex 19.3589 -3.54182 6
      vertex 17.5 -4 6
    endloop
  endfacet
  facet normal 0.239316 -0.970942 0
    outer loop
      vertex 19.3589 -3.54182 6
      vertex 17.5 -4 0
      vertex 19.3589 -3.54182 0
    endloop
  endfacet
  facet normal -0.532034 0.846723 0
    outer loop
      vertex -14.6746 25.0204 0
      vertex -16.3336 23.9779 6
      vertex -14.6746 25.0204 6
    endloop
  endfacet
  facet normal -0.532034 0.846723 0
    outer loop
      vertex -16.3336 23.9779 6
      vertex -14.6746 25.0204 0
      vertex -16.3336 23.9779 0
    endloop
  endfacet
  facet normal 0.0560578 0.998428 -0
    outer loop
      vertex 9.19788 26.4749 0
      vertex 8.75 26.5 6
      vertex 9.19788 26.4749 6
    endloop
  endfacet
  facet normal 0.0560578 0.998428 0
    outer loop
      vertex 8.75 26.5 6
      vertex 9.19788 26.4749 0
      vertex 8.75 26.5 0
    endloop
  endfacet
  facet normal 0 1 -0
    outer loop
      vertex 8.75 26.5 0
      vertex -8.75 26.5 6
      vertex 8.75 26.5 6
    endloop
  endfacet
  facet normal 0 1 0
    outer loop
      vertex -8.75 26.5 6
      vertex 8.75 26.5 0
      vertex -8.75 26.5 0
    endloop
  endfacet
  facet normal 0.78184 0.623479 0
    outer loop
      vertex 18.9779 21.3336 6
      vertex 18.4194 22.034 0
      vertex 18.4194 22.034 6
    endloop
  endfacet
  facet normal 0.78184 0.623479 0
    outer loop
      vertex 18.4194 22.034 0
      vertex 18.9779 21.3336 6
      vertex 18.9779 21.3336 0
    endloop
  endfacet
  facet normal -0.943884 0.330278 0
    outer loop
      vertex -21.0561 17.0182 0
      vertex -20.409 18.8676 6
      vertex -20.409 18.8676 0
    endloop
  endfacet
  facet normal -0.943884 0.330278 0
    outer loop
      vertex -20.409 18.8676 6
      vertex -21.0561 17.0182 0
      vertex -21.0561 17.0182 6
    endloop
  endfacet
  facet normal -0.900969 0.433884 0
    outer loop
      vertex -20.409 18.8676 0
      vertex -20.0204 19.6746 6
      vertex -20.0204 19.6746 0
    endloop
  endfacet
  facet normal -0.900969 0.433884 0
    outer loop
      vertex -20.0204 19.6746 6
      vertex -20.409 18.8676 0
      vertex -20.409 18.8676 6
    endloop
  endfacet
  facet normal -0.974924 0.222538 0
    outer loop
      vertex -21.2555 16.1449 0
      vertex -21.0561 17.0182 6
      vertex -21.0561 17.0182 0
    endloop
  endfacet
  facet normal -0.974924 0.222538 0
    outer loop
      vertex -21.0561 17.0182 6
      vertex -21.2555 16.1449 0
      vertex -21.2555 16.1449 6
    endloop
  endfacet
  facet normal -0.707107 0.707107 0
    outer loop
      vertex -18.4194 22.034 0
      vertex -17.034 23.4194 6
      vertex -17.034 23.4194 0
    endloop
  endfacet
  facet normal -0.707107 0.707107 0
    outer loop
      vertex -17.034 23.4194 6
      vertex -18.4194 22.034 0
      vertex -18.4194 22.034 6
    endloop
  endfacet
  facet normal 0.222538 0.974924 -0
    outer loop
      vertex 12.0182 26.0561 0
      vertex 11.1449 26.2555 6
      vertex 12.0182 26.0561 6
    endloop
  endfacet
  facet normal 0.222538 0.974924 0
    outer loop
      vertex 11.1449 26.2555 6
      vertex 12.0182 26.0561 0
      vertex 11.1449 26.2555 0
    endloop
  endfacet
  facet normal 0.330278 0.943884 -0
    outer loop
      vertex 13.8676 25.409 0
      vertex 12.0182 26.0561 6
      vertex 13.8676 25.409 6
    endloop
  endfacet
  facet normal 0.330278 0.943884 0
    outer loop
      vertex 12.0182 26.0561 6
      vertex 13.8676 25.409 0
      vertex 12.0182 26.0561 0
    endloop
  endfacet
  facet normal 0.11197 0.993712 -0
    outer loop
      vertex 11.1449 26.2555 0
      vertex 9.19788 26.4749 6
      vertex 11.1449 26.2555 6
    endloop
  endfacet
  facet normal 0.11197 0.993712 0
    outer loop
      vertex 9.19788 26.4749 6
      vertex 11.1449 26.2555 0
      vertex 9.19788 26.4749 0
    endloop
  endfacet
  facet normal -0.0560578 0.998428 0
    outer loop
      vertex -8.75 26.5 0
      vertex -9.19788 26.4749 6
      vertex -8.75 26.5 6
    endloop
  endfacet
  facet normal -0.0560578 0.998428 0
    outer loop
      vertex -9.19788 26.4749 6
      vertex -8.75 26.5 0
      vertex -9.19788 26.4749 0
    endloop
  endfacet
  facet normal -0.330278 0.943884 0
    outer loop
      vertex -12.0182 26.0561 0
      vertex -13.8676 25.409 6
      vertex -12.0182 26.0561 6
    endloop
  endfacet
  facet normal -0.330278 0.943884 0
    outer loop
      vertex -13.8676 25.409 6
      vertex -12.0182 26.0561 0
      vertex -13.8676 25.409 0
    endloop
  endfacet
  facet normal -0.222538 0.974924 0
    outer loop
      vertex -11.1449 26.2555 0
      vertex -12.0182 26.0561 6
      vertex -11.1449 26.2555 6
    endloop
  endfacet
  facet normal -0.222538 0.974924 0
    outer loop
      vertex -12.0182 26.0561 6
      vertex -11.1449 26.2555 0
      vertex -12.0182 26.0561 0
    endloop
  endfacet
  facet normal -0.433884 0.900969 0
    outer loop
      vertex -13.8676 25.409 0
      vertex -14.6746 25.0204 6
      vertex -13.8676 25.409 6
    endloop
  endfacet
  facet normal -0.433884 0.900969 0
    outer loop
      vertex -14.6746 25.0204 6
      vertex -13.8676 25.409 0
      vertex -14.6746 25.0204 0
    endloop
  endfacet
  facet normal -0.623479 0.78184 0
    outer loop
      vertex -16.3336 23.9779 0
      vertex -17.034 23.4194 6
      vertex -16.3336 23.9779 6
    endloop
  endfacet
  facet normal -0.623479 0.78184 0
    outer loop
      vertex -17.034 23.4194 6
      vertex -16.3336 23.9779 0
      vertex -17.034 23.4194 0
    endloop
  endfacet
  facet normal -0.78184 0.623479 0
    outer loop
      vertex -18.9779 21.3336 0
      vertex -18.4194 22.034 6
      vertex -18.4194 22.034 0
    endloop
  endfacet
  facet normal -0.78184 0.623479 0
    outer loop
      vertex -18.4194 22.034 6
      vertex -18.9779 21.3336 0
      vertex -18.9779 21.3336 6
    endloop
  endfacet
  facet normal 0.623479 0.78184 -0
    outer loop
      vertex 17.034 23.4194 0
      vertex 16.3336 23.9779 6
      vertex 17.034 23.4194 6
    endloop
  endfacet
  facet normal 0.623479 0.78184 0
    outer loop
      vertex 16.3336 23.9779 6
      vertex 17.034 23.4194 0
      vertex 16.3336 23.9779 0
    endloop
  endfacet
  facet normal 0.900969 0.433884 0
    outer loop
      vertex 20.409 18.8676 6
      vertex 20.0204 19.6746 0
      vertex 20.0204 19.6746 6
    endloop
  endfacet
  facet normal 0.900969 0.433884 0
    outer loop
      vertex 20.0204 19.6746 0
      vertex 20.409 18.8676 6
      vertex 20.409 18.8676 0
    endloop
  endfacet
  facet normal 0.943884 0.330278 0
    outer loop
      vertex 21.0561 17.0182 6
      vertex 20.409 18.8676 0
      vertex 20.409 18.8676 6
    endloop
  endfacet
  facet normal 0.943884 0.330278 0
    outer loop
      vertex 20.409 18.8676 0
      vertex 21.0561 17.0182 6
      vertex 21.0561 17.0182 0
    endloop
  endfacet
  facet normal 0.846723 0.532034 0
    outer loop
      vertex 20.0204 19.6746 6
      vertex 18.9779 21.3336 0
      vertex 18.9779 21.3336 6
    endloop
  endfacet
  facet normal 0.846723 0.532034 0
    outer loop
      vertex 18.9779 21.3336 0
      vertex 20.0204 19.6746 6
      vertex 20.0204 19.6746 0
    endloop
  endfacet
  facet normal 0.707107 0.707107 0
    outer loop
      vertex 18.4194 22.034 6
      vertex 17.034 23.4194 0
      vertex 17.034 23.4194 6
    endloop
  endfacet
  facet normal 0.707107 0.707107 0
    outer loop
      vertex 17.034 23.4194 0
      vertex 18.4194 22.034 6
      vertex 18.4194 22.034 0
    endloop
  endfacet
  facet normal 0.532034 0.846723 -0
    outer loop
      vertex 16.3336 23.9779 0
      vertex 14.6746 25.0204 6
      vertex 16.3336 23.9779 6
    endloop
  endfacet
  facet normal 0.532034 0.846723 0
    outer loop
      vertex 14.6746 25.0204 6
      vertex 16.3336 23.9779 0
      vertex 14.6746 25.0204 0
    endloop
  endfacet
  facet normal 0.998428 0.0560578 0
    outer loop
      vertex 21.5 13.75 6
      vertex 21.4749 14.1979 0
      vertex 21.4749 14.1979 6
    endloop
  endfacet
  facet normal 0.998428 0.0560578 0
    outer loop
      vertex 21.4749 14.1979 0
      vertex 21.5 13.75 6
      vertex 21.5 13.75 0
    endloop
  endfacet
  facet normal 0.993712 0.11197 0
    outer loop
      vertex 21.4749 14.1979 6
      vertex 21.2555 16.1449 0
      vertex 21.2555 16.1449 6
    endloop
  endfacet
  facet normal 0.993712 0.11197 0
    outer loop
      vertex 21.2555 16.1449 0
      vertex 21.4749 14.1979 6
      vertex 21.4749 14.1979 0
    endloop
  endfacet
  facet normal -0.846723 -0.532034 0
    outer loop
      vertex 16.6335 17.5465 0
      vertex 15.591 19.2055 6
      vertex 15.591 19.2055 0
    endloop
  endfacet
  facet normal -0.846723 -0.532034 0
    outer loop
      vertex 15.591 19.2055 6
      vertex 16.6335 17.5465 0
      vertex 16.6335 17.5465 6
    endloop
  endfacet
  facet normal -0.943884 -0.330278 0
    outer loop
      vertex 17.2806 15.6971 0
      vertex 16.6335 17.5465 6
      vertex 16.6335 17.5465 0
    endloop
  endfacet
  facet normal -0.943884 -0.330278 0
    outer loop
      vertex 16.6335 17.5465 6
      vertex 17.2806 15.6971 0
      vertex 17.2806 15.6971 6
    endloop
  endfacet
  facet normal -0.993712 -0.11197 0
    outer loop
      vertex 17.5 13.75 0
      vertex 17.2806 15.6971 6
      vertex 17.2806 15.6971 0
    endloop
  endfacet
  facet normal -0.993712 -0.11197 0
    outer loop
      vertex 17.2806 15.6971 6
      vertex 17.5 13.75 0
      vertex 17.5 13.75 6
    endloop
  endfacet
  facet normal 0 1 -0
    outer loop
      vertex -16.5 0 0
      vertex -17.5 0 6
      vertex -16.5 0 6
    endloop
  endfacet
  facet normal 0 1 0
    outer loop
      vertex -17.5 0 6
      vertex -16.5 0 0
      vertex -17.5 0 0
    endloop
  endfacet
  facet normal 0 1 -0
    outer loop
      vertex 17.5 0 0
      vertex 16.5 0 6
      vertex 17.5 0 6
    endloop
  endfacet
  facet normal 0 1 0
    outer loop
      vertex 16.5 0 6
      vertex 17.5 0 0
      vertex 16.5 0 0
    endloop
  endfacet
  facet normal -1 0 0
    outer loop
      vertex 17.5 0 0
      vertex 17.5 13.75 6
      vertex 17.5 13.75 0
    endloop
  endfacet
  facet normal -1 -0 0
    outer loop
      vertex 17.5 13.75 6
      vertex 17.5 0 0
      vertex 17.5 0 6
    endloop
  endfacet
  facet normal -0.11197 -0.993712 0
    outer loop
      vertex 8.75 22.5 0
      vertex 10.6971 22.2806 6
      vertex 8.75 22.5 6
    endloop
  endfacet
  facet normal -0.11197 -0.993712 -0
    outer loop
      vertex 10.6971 22.2806 6
      vertex 8.75 22.5 0
      vertex 10.6971 22.2806 0
    endloop
  endfacet
  facet normal 1 -0 0
    outer loop
      vertex -17.5 0 6
      vertex -17.5 13.75 0
      vertex -17.5 13.75 6
    endloop
  endfacet
  facet normal 1 0 0
    outer loop
      vertex -17.5 13.75 0
      vertex -17.5 0 6
      vertex -17.5 0 0
    endloop
  endfacet
  facet normal 0.993712 -0.11197 0
    outer loop
      vertex -17.5 13.75 6
      vertex -17.2806 15.6971 0
      vertex -17.2806 15.6971 6
    endloop
  endfacet
  facet normal 0.993712 -0.11197 0
    outer loop
      vertex -17.2806 15.6971 0
      vertex -17.5 13.75 6
      vertex -17.5 13.75 0
    endloop
  endfacet
  facet normal 0 -1 0
    outer loop
      vertex -8.75 22.5 0
      vertex 8.75 22.5 6
      vertex -8.75 22.5 6
    endloop
  endfacet
  facet normal 0 -1 -0
    outer loop
      vertex 8.75 22.5 6
      vertex -8.75 22.5 0
      vertex 8.75 22.5 0
    endloop
  endfacet
  facet normal -0.330278 -0.943884 0
    outer loop
      vertex 10.6971 22.2806 0
      vertex 12.5465 21.6335 6
      vertex 10.6971 22.2806 6
    endloop
  endfacet
  facet normal -0.330278 -0.943884 -0
    outer loop
      vertex 12.5465 21.6335 6
      vertex 10.6971 22.2806 0
      vertex 12.5465 21.6335 0
    endloop
  endfacet
  facet normal 0.943884 -0.330278 0
    outer loop
      vertex -17.2806 15.6971 6
      vertex -16.6335 17.5465 0
      vertex -16.6335 17.5465 6
    endloop
  endfacet
  facet normal 0.943884 -0.330278 0
    outer loop
      vertex -16.6335 17.5465 0
      vertex -17.2806 15.6971 6
      vertex -17.2806 15.6971 0
    endloop
  endfacet
  facet normal 0.532034 -0.846723 0
    outer loop
      vertex -14.2055 20.591 0
      vertex -12.5465 21.6335 6
      vertex -14.2055 20.591 6
    endloop
  endfacet
  facet normal 0.532034 -0.846723 0
    outer loop
      vertex -12.5465 21.6335 6
      vertex -14.2055 20.591 0
      vertex -12.5465 21.6335 0
    endloop
  endfacet
  facet normal 0.707107 -0.707107 0
    outer loop
      vertex -15.591 19.2055 6
      vertex -14.2055 20.591 0
      vertex -14.2055 20.591 6
    endloop
  endfacet
  facet normal 0.707107 -0.707107 0
    outer loop
      vertex -14.2055 20.591 0
      vertex -15.591 19.2055 6
      vertex -15.591 19.2055 0
    endloop
  endfacet
  facet normal 0.330278 -0.943884 0
    outer loop
      vertex -12.5465 21.6335 0
      vertex -10.6971 22.2806 6
      vertex -12.5465 21.6335 6
    endloop
  endfacet
  facet normal 0.330278 -0.943884 0
    outer loop
      vertex -10.6971 22.2806 6
      vertex -12.5465 21.6335 0
      vertex -10.6971 22.2806 0
    endloop
  endfacet
  facet normal 0.11197 -0.993712 0
    outer loop
      vertex -10.6971 22.2806 0
      vertex -8.75 22.5 6
      vertex -10.6971 22.2806 6
    endloop
  endfacet
  facet normal 0.11197 -0.993712 0
    outer loop
      vertex -8.75 22.5 6
      vertex -10.6971 22.2806 0
      vertex -8.75 22.5 0
    endloop
  endfacet
  facet normal -0.532034 -0.846723 0
    outer loop
      vertex 12.5465 21.6335 0
      vertex 14.2055 20.591 6
      vertex 12.5465 21.6335 6
    endloop
  endfacet
  facet normal -0.532034 -0.846723 -0
    outer loop
      vertex 14.2055 20.591 6
      vertex 12.5465 21.6335 0
      vertex 14.2055 20.591 0
    endloop
  endfacet
  facet normal -0.707107 -0.707107 0
    outer loop
      vertex 15.591 19.2055 0
      vertex 14.2055 20.591 6
      vertex 14.2055 20.591 0
    endloop
  endfacet
  facet normal -0.707107 -0.707107 0
    outer loop
      vertex 14.2055 20.591 6
      vertex 15.591 19.2055 0
      vertex 15.591 19.2055 6
    endloop
  endfacet
  facet normal 0.846723 -0.532034 0
    outer loop
      vertex -16.6335 17.5465 6
      vertex -15.591 19.2055 0
      vertex -15.591 19.2055 6
    endloop
  endfacet
  facet normal 0.846723 -0.532034 0
    outer loop
      vertex -15.591 19.2055 0
      vertex -16.6335 17.5465 6
      vertex -16.6335 17.5465 0
    endloop
  endfacet
  facet normal 1 -0 0
    outer loop
      vertex -16.5 -4 6
      vertex -16.5 0 0
      vertex -16.5 0 6
    endloop
  endfacet
  facet normal 1 0 0
    outer loop
      vertex -16.5 0 0
      vertex -16.5 -4 6
      vertex -16.5 -4 0
    endloop
  endfacet
  facet normal -1 0 0
    outer loop
      vertex 16.5 -4 0
      vertex 16.5 0 6
      vertex 16.5 0 0
    endloop
  endfacet
  facet normal -1 -0 0
    outer loop
      vertex 16.5 0 6
      vertex 16.5 -4 0
      vertex 16.5 -4 6
    endloop
  endfacet
endsolid OpenSCAD_Model
