solid OpenSCAD_Model
  facet normal 0.816856 0.155203 0.55557
    outer loop
      vertex 21.2151 13.7797 -2.70044
      vertex 24.4012 7.85046e-016 -3.53553
      vertex 21.7839 13.7755 -3.53553
    endloop
  endfacet
  facet normal 0.816855 0.155203 0.555571
    outer loop
      vertex 24.4012 7.85046e-016 -3.53553
      vertex 21.2151 13.7797 -2.70044
      vertex 23.8487 6.04676e-016 -2.72322
    endloop
  endfacet
  facet normal 0.545806 0.103703 -0.831469
    outer loop
      vertex 24.4012 -7.85046e-016 3.53553
      vertex 22.6347 13.7692 4.09323
      vertex 25.2276 -9.05504e-016 4.07803
    endloop
  endfacet
  facet normal 0.545806 0.103703 -0.83147
    outer loop
      vertex 22.6347 13.7692 4.09323
      vertex 24.4012 -7.85046e-016 3.53553
      vertex 21.7839 13.7755 3.53553
    endloop
  endfacet
  facet normal 0.816856 0.155203 -0.55557
    outer loop
      vertex 21.7839 13.7755 3.53553
      vertex 23.8487 -6.04676e-016 2.72322
      vertex 21.2151 13.7797 2.70044
    endloop
  endfacet
  facet normal 0.816855 0.155203 -0.555571
    outer loop
      vertex 23.8487 -6.04676e-016 2.72322
      vertex 21.7839 13.7755 3.53553
      vertex 24.4012 -7.85046e-016 3.53553
    endloop
  endfacet
  facet normal 0.545806 0.103703 0.831469
    outer loop
      vertex 22.6347 13.7692 -4.09323
      vertex 24.4012 7.85046e-016 -3.53553
      vertex 25.2276 9.05504e-016 -4.07803
    endloop
  endfacet
  facet normal 0.545806 0.103703 0.83147
    outer loop
      vertex 24.4012 7.85046e-016 -3.53553
      vertex 22.6347 13.7692 -4.09323
      vertex 21.7839 13.7755 -3.53553
    endloop
  endfacet
  facet normal 0.963547 0.183074 -0.19509
    outer loop
      vertex 20.6791 13.7836 1.91342
      vertex 22.9106 0 0
      vertex 20.2911 13.7865 3.06121e-015
    endloop
  endfacet
  facet normal 0.963548 0.183074 -0.195089
    outer loop
      vertex 22.9106 0 0
      vertex 20.6791 13.7836 1.91342
      vertex 23.298 -4.24864e-016 1.91342
    endloop
  endfacet
  facet normal 0.816857 0.155203 -0.555569
    outer loop
      vertex 21.2151 13.7797 2.70044
      vertex 23.298 -4.24864e-016 1.91342
      vertex 20.6791 13.7836 1.91342
    endloop
  endfacet
  facet normal 0.816856 0.155203 -0.55557
    outer loop
      vertex 23.298 -4.24864e-016 1.91342
      vertex 21.2151 13.7797 2.70044
      vertex 23.8487 -6.04676e-016 2.72322
    endloop
  endfacet
  facet normal 0.545808 0.103648 0.831475
    outer loop
      vertex 26.0491 0.00933266 -4.61844
      vertex 25.2276 9.05504e-016 -4.07803
      vertex 26 1.01808e-015 -4.58503
    endloop
  endfacet
  facet normal 0.545805 0.103703 0.83147
    outer loop
      vertex 23.4359 13.7633 -4.61844
      vertex 25.2276 9.05504e-016 -4.07803
      vertex 26.0491 0.00933266 -4.61844
    endloop
  endfacet
  facet normal 0.545806 0.103703 0.831469
    outer loop
      vertex 25.2276 9.05504e-016 -4.07803
      vertex 23.4359 13.7633 -4.61844
      vertex 22.6347 13.7692 -4.09323
    endloop
  endfacet
  facet normal 0.816857 0.155203 0.555569
    outer loop
      vertex 20.6791 13.7836 -1.91342
      vertex 23.8487 6.04676e-016 -2.72322
      vertex 21.2151 13.7797 -2.70044
    endloop
  endfacet
  facet normal 0.816856 0.155203 0.55557
    outer loop
      vertex 23.8487 6.04676e-016 -2.72322
      vertex 20.6791 13.7836 -1.91342
      vertex 23.298 4.24864e-016 -1.91342
    endloop
  endfacet
  facet normal 0.963547 0.183074 0.19509
    outer loop
      vertex 20.2911 13.7865 3.06121e-015
      vertex 23.298 4.24864e-016 -1.91342
      vertex 20.6791 13.7836 -1.91342
    endloop
  endfacet
  facet normal 0.963548 0.183074 0.195089
    outer loop
      vertex 23.298 4.24864e-016 -1.91342
      vertex 20.2911 13.7865 3.06121e-015
      vertex 22.9106 0 0
    endloop
  endfacet
  facet normal 0.545808 0.103648 -0.831475
    outer loop
      vertex 25.2276 -9.05504e-016 4.07803
      vertex 26.0491 0.00933266 4.61844
      vertex 26 -1.01808e-015 4.58503
    endloop
  endfacet
  facet normal 0.545805 0.103703 -0.83147
    outer loop
      vertex 25.2276 -9.05504e-016 4.07803
      vertex 23.4359 13.7633 4.61844
      vertex 26.0491 0.00933266 4.61844
    endloop
  endfacet
  facet normal 0.545806 0.103703 -0.831469
    outer loop
      vertex 23.4359 13.7633 4.61844
      vertex 25.2276 -9.05504e-016 4.07803
      vertex 22.6347 13.7692 4.09323
    endloop
  endfacet
  facet normal -0.963547 0.183074 0.19509
    outer loop
      vertex -23.298 4.24864e-016 -1.91342
      vertex -20.2911 13.7865 3.06121e-015
      vertex -20.6791 13.7836 -1.91342
    endloop
  endfacet
  facet normal -0.963548 0.183074 0.195089
    outer loop
      vertex -20.2911 13.7865 3.06121e-015
      vertex -23.298 4.24864e-016 -1.91342
      vertex -22.9106 0 0
    endloop
  endfacet
  facet normal -0.816856 0.155203 -0.55557
    outer loop
      vertex -23.8487 -6.04676e-016 2.72322
      vertex -21.7839 13.7755 3.53553
      vertex -21.2151 13.7797 2.70044
    endloop
  endfacet
  facet normal -0.816855 0.155203 -0.555571
    outer loop
      vertex -21.7839 13.7755 3.53553
      vertex -23.8487 -6.04676e-016 2.72322
      vertex -24.4012 -7.85046e-016 3.53553
    endloop
  endfacet
  facet normal -0.545806 0.103703 -0.83147
    outer loop
      vertex -24.4012 -7.85046e-016 3.53553
      vertex -22.6347 13.7692 4.09323
      vertex -21.7839 13.7755 3.53553
    endloop
  endfacet
  facet normal -0.545806 0.103703 -0.831469
    outer loop
      vertex -22.6347 13.7692 4.09323
      vertex -24.4012 -7.85046e-016 3.53553
      vertex -25.2276 -9.05504e-016 4.07803
    endloop
  endfacet
  facet normal -0.816857 0.155203 0.555569
    outer loop
      vertex -23.8487 6.04676e-016 -2.72322
      vertex -20.6791 13.7836 -1.91342
      vertex -21.2151 13.7797 -2.70044
    endloop
  endfacet
  facet normal -0.816856 0.155203 0.55557
    outer loop
      vertex -20.6791 13.7836 -1.91342
      vertex -23.8487 6.04676e-016 -2.72322
      vertex -23.298 4.24864e-016 -1.91342
    endloop
  endfacet
  facet normal -0.545806 0.103703 0.83147
    outer loop
      vertex -22.6347 13.7692 -4.09323
      vertex -24.4012 7.85046e-016 -3.53553
      vertex -21.7839 13.7755 -3.53553
    endloop
  endfacet
  facet normal -0.545806 0.103703 0.831469
    outer loop
      vertex -24.4012 7.85046e-016 -3.53553
      vertex -22.6347 13.7692 -4.09323
      vertex -25.2276 9.05504e-016 -4.07803
    endloop
  endfacet
  facet normal -0.545806 0.103703 -0.831469
    outer loop
      vertex -25.2276 -9.05504e-016 4.07803
      vertex -23.4359 13.7633 4.61844
      vertex -22.6347 13.7692 4.09323
    endloop
  endfacet
  facet normal -0.545808 0.103648 -0.831475
    outer loop
      vertex -26.0491 0.00933266 4.61844
      vertex -25.2276 -9.05504e-016 4.07803
      vertex -26 -1.01808e-015 4.58503
    endloop
  endfacet
  facet normal -0.545805 0.103703 -0.83147
    outer loop
      vertex -25.2276 -9.05504e-016 4.07803
      vertex -26.0491 0.00933266 4.61844
      vertex -23.4359 13.7633 4.61844
    endloop
  endfacet
  facet normal -0.816857 0.155203 -0.555569
    outer loop
      vertex -23.298 -4.24864e-016 1.91342
      vertex -21.2151 13.7797 2.70044
      vertex -20.6791 13.7836 1.91342
    endloop
  endfacet
  facet normal -0.816856 0.155203 -0.55557
    outer loop
      vertex -21.2151 13.7797 2.70044
      vertex -23.298 -4.24864e-016 1.91342
      vertex -23.8487 -6.04676e-016 2.72322
    endloop
  endfacet
  facet normal -0.963547 0.183074 -0.19509
    outer loop
      vertex -22.9106 0 0
      vertex -20.6791 13.7836 1.91342
      vertex -20.2911 13.7865 3.06121e-015
    endloop
  endfacet
  facet normal -0.963548 0.183074 -0.195089
    outer loop
      vertex -20.6791 13.7836 1.91342
      vertex -22.9106 0 0
      vertex -23.298 -4.24864e-016 1.91342
    endloop
  endfacet
  facet normal -0.816856 0.155203 0.55557
    outer loop
      vertex -24.4012 7.85046e-016 -3.53553
      vertex -21.2151 13.7797 -2.70044
      vertex -21.7839 13.7755 -3.53553
    endloop
  endfacet
  facet normal -0.816855 0.155203 0.555571
    outer loop
      vertex -21.2151 13.7797 -2.70044
      vertex -24.4012 7.85046e-016 -3.53553
      vertex -23.8487 6.04676e-016 -2.72322
    endloop
  endfacet
  facet normal -0.545806 0.103703 0.831469
    outer loop
      vertex -23.4359 13.7633 -4.61844
      vertex -25.2276 9.05504e-016 -4.07803
      vertex -22.6347 13.7692 -4.09323
    endloop
  endfacet
  facet normal -0.545805 0.103703 0.83147
    outer loop
      vertex -26.0491 0.00933266 -4.61844
      vertex -25.2276 9.05504e-016 -4.07803
      vertex -23.4359 13.7633 -4.61844
    endloop
  endfacet
  facet normal -0.545808 0.103648 0.831475
    outer loop
      vertex -25.2276 9.05504e-016 -4.07803
      vertex -26.0491 0.00933266 -4.61844
      vertex -26 1.01808e-015 -4.58503
    endloop
  endfacet
  facet normal 0.977043 0.185638 0.104528
    outer loop
      vertex 16.567 9.279 2.06035e-015
      vertex 17.7976 3.91441 -1.97516
      vertex 16.771 9.31775 -1.97516
    endloop
  endfacet
  facet normal 0.977043 0.185638 0.104528
    outer loop
      vertex 17.7976 3.91441 -1.97516
      vertex 16.567 9.279 2.06035e-015
      vertex 17.5937 3.87566 8.6057e-016
    endloop
  endfacet
  facet normal 0.850804 0.161653 0.5
    outer loop
      vertex 17.3739 9.43231 -3.864
      vertex 19.0449 4.1514 -5
      vertex 18.0183 9.55473 -5
    endloop
  endfacet
  facet normal 0.850804 0.161653 0.5
    outer loop
      vertex 19.0449 4.1514 -5
      vertex 17.3739 9.43231 -3.864
      vertex 18.4006 4.02897 -3.864
    endloop
  endfacet
  facet normal 0.934341 0.177525 0.309017
    outer loop
      vertex 16.771 9.31775 -1.97516
      vertex 18.4006 4.02897 -3.864
      vertex 17.3739 9.43231 -3.864
    endloop
  endfacet
  facet normal 0.934341 0.177525 0.309017
    outer loop
      vertex 18.4006 4.02897 -3.864
      vertex 16.771 9.31775 -1.97516
      vertex 17.7976 3.91441 -1.97516
    endloop
  endfacet
  facet normal 0.18666 -0.982424 -1.66208e-007
    outer loop
      vertex 20.1148 9.95307 3.78448
      vertex 18.0183 9.55473 5
      vertex 17.3739 9.43231 3.864
    endloop
  endfacet
  facet normal 0.18666 -0.982424 -1.19698e-007
    outer loop
      vertex 18.0183 9.55473 5
      vertex 20.1148 9.95307 3.78448
      vertex 21.1495 10.1497 5
    endloop
  endfacet
  facet normal 0.186661 -0.982424 3.49882e-007
    outer loop
      vertex 19.3017 9.79858 1.97213
      vertex 17.3739 9.43231 3.864
      vertex 16.771 9.31775 1.97516
    endloop
  endfacet
  facet normal 0.18666 -0.982424 -6.33808e-008
    outer loop
      vertex 17.3739 9.43231 3.864
      vertex 19.3017 9.79858 1.97213
      vertex 20.1148 9.95307 3.78448
    endloop
  endfacet
  facet normal 0.186661 -0.982424 1.55402e-007
    outer loop
      vertex 16.771 9.31775 1.97516
      vertex 19.0231 9.74565 2.16397e-015
      vertex 19.3017 9.79858 1.97213
    endloop
  endfacet
  facet normal 0.18666 -0.982424 -2.82312e-007
    outer loop
      vertex 16.567 9.279 2.06035e-015
      vertex 19.0231 9.74565 2.16397e-015
      vertex 16.771 9.31775 1.97516
    endloop
  endfacet
  facet normal 0.18666 -0.982424 2.82312e-007
    outer loop
      vertex 16.771 9.31775 -1.97516
      vertex 19.0231 9.74565 2.16397e-015
      vertex 16.567 9.279 2.06035e-015
    endloop
  endfacet
  facet normal 0.186661 -0.982424 -1.55402e-007
    outer loop
      vertex 19.0231 9.74565 2.16397e-015
      vertex 16.771 9.31775 -1.97516
      vertex 19.3017 9.79858 -1.97213
    endloop
  endfacet
  facet normal 0.186661 -0.982424 -3.49882e-007
    outer loop
      vertex 17.3739 9.43231 -3.864
      vertex 19.3017 9.79858 -1.97213
      vertex 16.771 9.31775 -1.97516
    endloop
  endfacet
  facet normal 0.18666 -0.982424 6.33808e-008
    outer loop
      vertex 19.3017 9.79858 -1.97213
      vertex 17.3739 9.43231 -3.864
      vertex 20.1148 9.95307 -3.78448
    endloop
  endfacet
  facet normal 0.18666 -0.982424 1.66208e-007
    outer loop
      vertex 18.0183 9.55473 -5
      vertex 20.1148 9.95307 -3.78448
      vertex 17.3739 9.43231 -3.864
    endloop
  endfacet
  facet normal 0.18666 -0.982424 1.19698e-007
    outer loop
      vertex 20.1148 9.95307 -3.78448
      vertex 18.0183 9.55473 -5
      vertex 21.1495 10.1497 -5
    endloop
  endfacet
  facet normal -0.186661 0.982424 5.09423e-008
    outer loop
      vertex 21.1414 4.54974 3.78448
      vertex 19.0449 4.1514 5
      vertex 22.1762 4.74634 5
    endloop
  endfacet
  facet normal -0.186661 0.982424 -4.87407e-008
    outer loop
      vertex 19.0449 4.1514 5
      vertex 21.1414 4.54974 3.78448
      vertex 18.4006 4.02897 3.864
    endloop
  endfacet
  facet normal -0.186661 0.982424 -4.03828e-008
    outer loop
      vertex 20.3283 4.39524 1.97213
      vertex 18.4006 4.02897 3.864
      vertex 21.1414 4.54974 3.78448
    endloop
  endfacet
  facet normal -0.186661 0.982424 8.68879e-008
    outer loop
      vertex 18.4006 4.02897 3.864
      vertex 20.3283 4.39524 1.97213
      vertex 17.7976 3.91441 1.97516
    endloop
  endfacet
  facet normal -0.186661 0.982424 5.59539e-008
    outer loop
      vertex 20.0497 4.34232 9.64188e-016
      vertex 17.7976 3.91441 1.97516
      vertex 20.3283 4.39524 1.97213
    endloop
  endfacet
  facet normal -0.186661 0.982424 -4.39065e-008
    outer loop
      vertex 20.0497 4.34232 9.64188e-016
      vertex 17.5937 3.87566 8.6057e-016
      vertex 17.7976 3.91441 1.97516
    endloop
  endfacet
  facet normal -0.186661 0.982424 -5.59539e-008
    outer loop
      vertex 17.7976 3.91441 -1.97516
      vertex 20.0497 4.34232 9.64188e-016
      vertex 20.3283 4.39524 -1.97213
    endloop
  endfacet
  facet normal -0.186661 0.982424 4.39065e-008
    outer loop
      vertex 20.0497 4.34232 9.64188e-016
      vertex 17.7976 3.91441 -1.97516
      vertex 17.5937 3.87566 8.6057e-016
    endloop
  endfacet
  facet normal -0.186661 0.982424 4.03828e-008
    outer loop
      vertex 18.4006 4.02897 -3.864
      vertex 20.3283 4.39524 -1.97213
      vertex 21.1414 4.54974 -3.78448
    endloop
  endfacet
  facet normal -0.186661 0.982424 -8.68879e-008
    outer loop
      vertex 20.3283 4.39524 -1.97213
      vertex 18.4006 4.02897 -3.864
      vertex 17.7976 3.91441 -1.97516
    endloop
  endfacet
  facet normal -0.186661 0.982424 -5.09423e-008
    outer loop
      vertex 19.0449 4.1514 -5
      vertex 21.1414 4.54974 -3.78448
      vertex 22.1762 4.74634 -5
    endloop
  endfacet
  facet normal -0.186661 0.982424 4.87407e-008
    outer loop
      vertex 21.1414 4.54974 -3.78448
      vertex 19.0449 4.1514 -5
      vertex 18.4006 4.02897 -3.864
    endloop
  endfacet
  facet normal 0.850804 0.161653 -0.5
    outer loop
      vertex 19.0449 4.1514 5
      vertex 17.3739 9.43231 3.864
      vertex 18.0183 9.55473 5
    endloop
  endfacet
  facet normal 0.850804 0.161653 -0.5
    outer loop
      vertex 17.3739 9.43231 3.864
      vertex 19.0449 4.1514 5
      vertex 18.4006 4.02897 3.864
    endloop
  endfacet
  facet normal 0.977043 0.185638 -0.104528
    outer loop
      vertex 17.7976 3.91441 1.97516
      vertex 16.567 9.279 2.06035e-015
      vertex 16.771 9.31775 1.97516
    endloop
  endfacet
  facet normal 0.977043 0.185638 -0.104528
    outer loop
      vertex 16.567 9.279 2.06035e-015
      vertex 17.7976 3.91441 1.97516
      vertex 17.5937 3.87566 8.6057e-016
    endloop
  endfacet
  facet normal 0.934341 0.177525 -0.309017
    outer loop
      vertex 18.4006 4.02897 3.864
      vertex 16.771 9.31775 1.97516
      vertex 17.3739 9.43231 3.864
    endloop
  endfacet
  facet normal 0.934341 0.177525 -0.309017
    outer loop
      vertex 16.771 9.31775 1.97516
      vertex 18.4006 4.02897 3.864
      vertex 17.7976 3.91441 1.97516
    endloop
  endfacet
  facet normal -0.972425 -0.184761 -0.142315
    outer loop
      vertex 20.3283 4.39524 -1.97213
      vertex 19.0231 9.74565 2.16397e-015
      vertex 19.3017 9.79858 -1.97213
    endloop
  endfacet
  facet normal -0.972425 -0.184761 -0.142315
    outer loop
      vertex 19.0231 9.74565 2.16397e-015
      vertex 20.3283 4.39524 -1.97213
      vertex 20.0497 4.34232 9.64188e-016
    endloop
  endfacet
  facet normal -0.742467 -0.141069 -0.654861
    outer loop
      vertex 22.1762 4.74634 -5
      vertex 20.1148 9.95307 -3.78448
      vertex 21.1495 10.1497 -5
    endloop
  endfacet
  facet normal -0.742467 -0.141069 -0.65486
    outer loop
      vertex 20.1148 9.95307 -3.78448
      vertex 22.1762 4.74634 -5
      vertex 21.1414 4.54974 -3.78448
    endloop
  endfacet
  facet normal -0.893645 -0.169793 -0.415415
    outer loop
      vertex 21.1414 4.54974 -3.78448
      vertex 19.3017 9.79858 -1.97213
      vertex 20.1148 9.95307 -3.78448
    endloop
  endfacet
  facet normal -0.893645 -0.169793 -0.415415
    outer loop
      vertex 19.3017 9.79858 -1.97213
      vertex 21.1414 4.54974 -3.78448
      vertex 20.3283 4.39524 -1.97213
    endloop
  endfacet
  facet normal -0.893645 -0.169793 0.415415
    outer loop
      vertex 19.3017 9.79858 1.97213
      vertex 21.1414 4.54974 3.78448
      vertex 20.1148 9.95307 3.78448
    endloop
  endfacet
  facet normal -0.893645 -0.169793 0.415415
    outer loop
      vertex 21.1414 4.54974 3.78448
      vertex 19.3017 9.79858 1.97213
      vertex 20.3283 4.39524 1.97213
    endloop
  endfacet
  facet normal -0.972425 -0.184761 0.142315
    outer loop
      vertex 19.0231 9.74565 2.16397e-015
      vertex 20.3283 4.39524 1.97213
      vertex 19.3017 9.79858 1.97213
    endloop
  endfacet
  facet normal -0.972425 -0.184761 0.142315
    outer loop
      vertex 20.3283 4.39524 1.97213
      vertex 19.0231 9.74565 2.16397e-015
      vertex 20.0497 4.34232 9.64188e-016
    endloop
  endfacet
  facet normal -0.742467 -0.141069 0.654861
    outer loop
      vertex 20.1148 9.95307 3.78448
      vertex 22.1762 4.74634 5
      vertex 21.1495 10.1497 5
    endloop
  endfacet
  facet normal -0.742467 -0.141069 0.65486
    outer loop
      vertex 22.1762 4.74634 5
      vertex 20.1148 9.95307 3.78448
      vertex 21.1414 4.54974 3.78448
    endloop
  endfacet
  facet normal -0.977043 0.185638 0.104528
    outer loop
      vertex -17.7976 3.91441 -1.97516
      vertex -16.567 9.279 2.06035e-015
      vertex -16.771 9.31775 -1.97516
    endloop
  endfacet
  facet normal -0.977043 0.185638 0.104528
    outer loop
      vertex -16.567 9.279 2.06035e-015
      vertex -17.7976 3.91441 -1.97516
      vertex -17.5937 3.87566 8.6057e-016
    endloop
  endfacet
  facet normal -0.850804 0.161653 0.5
    outer loop
      vertex -19.0449 4.1514 -5
      vertex -17.3739 9.43231 -3.864
      vertex -18.0183 9.55473 -5
    endloop
  endfacet
  facet normal -0.850804 0.161653 0.5
    outer loop
      vertex -17.3739 9.43231 -3.864
      vertex -19.0449 4.1514 -5
      vertex -18.4006 4.02897 -3.864
    endloop
  endfacet
  facet normal -0.934341 0.177525 0.309017
    outer loop
      vertex -18.4006 4.02897 -3.864
      vertex -16.771 9.31775 -1.97516
      vertex -17.3739 9.43231 -3.864
    endloop
  endfacet
  facet normal -0.934341 0.177525 0.309017
    outer loop
      vertex -16.771 9.31775 -1.97516
      vertex -18.4006 4.02897 -3.864
      vertex -17.7976 3.91441 -1.97516
    endloop
  endfacet
  facet normal -0.18666 -0.982424 -1.19698e-007
    outer loop
      vertex -20.1148 9.95307 3.78448
      vertex -18.0183 9.55473 5
      vertex -21.1495 10.1497 5
    endloop
  endfacet
  facet normal -0.18666 -0.982424 -1.66208e-007
    outer loop
      vertex -18.0183 9.55473 5
      vertex -20.1148 9.95307 3.78448
      vertex -17.3739 9.43231 3.864
    endloop
  endfacet
  facet normal -0.18666 -0.982424 -6.33808e-008
    outer loop
      vertex -19.3017 9.79858 1.97213
      vertex -17.3739 9.43231 3.864
      vertex -20.1148 9.95307 3.78448
    endloop
  endfacet
  facet normal -0.186661 -0.982424 3.49882e-007
    outer loop
      vertex -17.3739 9.43231 3.864
      vertex -19.3017 9.79858 1.97213
      vertex -16.771 9.31775 1.97516
    endloop
  endfacet
  facet normal -0.186661 -0.982424 1.55402e-007
    outer loop
      vertex -19.0231 9.74565 2.16397e-015
      vertex -16.771 9.31775 1.97516
      vertex -19.3017 9.79858 1.97213
    endloop
  endfacet
  facet normal -0.18666 -0.982424 -2.82312e-007
    outer loop
      vertex -19.0231 9.74565 2.16397e-015
      vertex -16.567 9.279 2.06035e-015
      vertex -16.771 9.31775 1.97516
    endloop
  endfacet
  facet normal -0.186661 -0.982424 -1.55402e-007
    outer loop
      vertex -16.771 9.31775 -1.97516
      vertex -19.0231 9.74565 2.16397e-015
      vertex -19.3017 9.79858 -1.97213
    endloop
  endfacet
  facet normal -0.18666 -0.982424 2.82312e-007
    outer loop
      vertex -19.0231 9.74565 2.16397e-015
      vertex -16.771 9.31775 -1.97516
      vertex -16.567 9.279 2.06035e-015
    endloop
  endfacet
  facet normal -0.18666 -0.982424 6.33808e-008
    outer loop
      vertex -17.3739 9.43231 -3.864
      vertex -19.3017 9.79858 -1.97213
      vertex -20.1148 9.95307 -3.78448
    endloop
  endfacet
  facet normal -0.186661 -0.982424 -3.49882e-007
    outer loop
      vertex -19.3017 9.79858 -1.97213
      vertex -17.3739 9.43231 -3.864
      vertex -16.771 9.31775 -1.97516
    endloop
  endfacet
  facet normal -0.18666 -0.982424 1.19698e-007
    outer loop
      vertex -18.0183 9.55473 -5
      vertex -20.1148 9.95307 -3.78448
      vertex -21.1495 10.1497 -5
    endloop
  endfacet
  facet normal -0.18666 -0.982424 1.66208e-007
    outer loop
      vertex -20.1148 9.95307 -3.78448
      vertex -18.0183 9.55473 -5
      vertex -17.3739 9.43231 -3.864
    endloop
  endfacet
  facet normal 0.186661 0.982424 -4.87407e-008
    outer loop
      vertex -21.1414 4.54974 3.78448
      vertex -19.0449 4.1514 5
      vertex -18.4006 4.02897 3.864
    endloop
  endfacet
  facet normal 0.186661 0.982424 5.09423e-008
    outer loop
      vertex -19.0449 4.1514 5
      vertex -21.1414 4.54974 3.78448
      vertex -22.1762 4.74634 5
    endloop
  endfacet
  facet normal 0.186661 0.982424 8.68879e-008
    outer loop
      vertex -20.3283 4.39524 1.97213
      vertex -18.4006 4.02897 3.864
      vertex -17.7976 3.91441 1.97516
    endloop
  endfacet
  facet normal 0.186661 0.982424 -4.03828e-008
    outer loop
      vertex -18.4006 4.02897 3.864
      vertex -20.3283 4.39524 1.97213
      vertex -21.1414 4.54974 3.78448
    endloop
  endfacet
  facet normal 0.186661 0.982424 5.59539e-008
    outer loop
      vertex -17.7976 3.91441 1.97516
      vertex -20.0497 4.34232 9.64188e-016
      vertex -20.3283 4.39524 1.97213
    endloop
  endfacet
  facet normal 0.186661 0.982424 -4.39065e-008
    outer loop
      vertex -17.5937 3.87566 8.6057e-016
      vertex -20.0497 4.34232 9.64188e-016
      vertex -17.7976 3.91441 1.97516
    endloop
  endfacet
  facet normal 0.186661 0.982424 4.39065e-008
    outer loop
      vertex -17.7976 3.91441 -1.97516
      vertex -20.0497 4.34232 9.64188e-016
      vertex -17.5937 3.87566 8.6057e-016
    endloop
  endfacet
  facet normal 0.186661 0.982424 -5.59539e-008
    outer loop
      vertex -20.0497 4.34232 9.64188e-016
      vertex -17.7976 3.91441 -1.97516
      vertex -20.3283 4.39524 -1.97213
    endloop
  endfacet
  facet normal 0.186661 0.982424 -8.68879e-008
    outer loop
      vertex -18.4006 4.02897 -3.864
      vertex -20.3283 4.39524 -1.97213
      vertex -17.7976 3.91441 -1.97516
    endloop
  endfacet
  facet normal 0.186661 0.982424 4.03828e-008
    outer loop
      vertex -20.3283 4.39524 -1.97213
      vertex -18.4006 4.02897 -3.864
      vertex -21.1414 4.54974 -3.78448
    endloop
  endfacet
  facet normal 0.186661 0.982424 4.87407e-008
    outer loop
      vertex -19.0449 4.1514 -5
      vertex -21.1414 4.54974 -3.78448
      vertex -18.4006 4.02897 -3.864
    endloop
  endfacet
  facet normal 0.186661 0.982424 -5.09423e-008
    outer loop
      vertex -21.1414 4.54974 -3.78448
      vertex -19.0449 4.1514 -5
      vertex -22.1762 4.74634 -5
    endloop
  endfacet
  facet normal -0.850804 0.161653 -0.5
    outer loop
      vertex -17.3739 9.43231 3.864
      vertex -19.0449 4.1514 5
      vertex -18.0183 9.55473 5
    endloop
  endfacet
  facet normal -0.850804 0.161653 -0.5
    outer loop
      vertex -19.0449 4.1514 5
      vertex -17.3739 9.43231 3.864
      vertex -18.4006 4.02897 3.864
    endloop
  endfacet
  facet normal -0.977043 0.185638 -0.104528
    outer loop
      vertex -16.567 9.279 2.06035e-015
      vertex -17.7976 3.91441 1.97516
      vertex -16.771 9.31775 1.97516
    endloop
  endfacet
  facet normal -0.977043 0.185638 -0.104528
    outer loop
      vertex -17.7976 3.91441 1.97516
      vertex -16.567 9.279 2.06035e-015
      vertex -17.5937 3.87566 8.6057e-016
    endloop
  endfacet
  facet normal -0.934341 0.177525 -0.309017
    outer loop
      vertex -16.771 9.31775 1.97516
      vertex -18.4006 4.02897 3.864
      vertex -17.3739 9.43231 3.864
    endloop
  endfacet
  facet normal -0.934341 0.177525 -0.309017
    outer loop
      vertex -18.4006 4.02897 3.864
      vertex -16.771 9.31775 1.97516
      vertex -17.7976 3.91441 1.97516
    endloop
  endfacet
  facet normal 0.972425 -0.184761 -0.142315
    outer loop
      vertex -19.0231 9.74565 2.16397e-015
      vertex -20.3283 4.39524 -1.97213
      vertex -19.3017 9.79858 -1.97213
    endloop
  endfacet
  facet normal 0.972425 -0.184761 -0.142315
    outer loop
      vertex -20.3283 4.39524 -1.97213
      vertex -19.0231 9.74565 2.16397e-015
      vertex -20.0497 4.34232 9.64188e-016
    endloop
  endfacet
  facet normal 0.742467 -0.141069 -0.654861
    outer loop
      vertex -20.1148 9.95307 -3.78448
      vertex -22.1762 4.74634 -5
      vertex -21.1495 10.1497 -5
    endloop
  endfacet
  facet normal 0.742467 -0.141069 -0.65486
    outer loop
      vertex -22.1762 4.74634 -5
      vertex -20.1148 9.95307 -3.78448
      vertex -21.1414 4.54974 -3.78448
    endloop
  endfacet
  facet normal 0.893645 -0.169793 -0.415415
    outer loop
      vertex -19.3017 9.79858 -1.97213
      vertex -21.1414 4.54974 -3.78448
      vertex -20.1148 9.95307 -3.78448
    endloop
  endfacet
  facet normal 0.893645 -0.169793 -0.415415
    outer loop
      vertex -21.1414 4.54974 -3.78448
      vertex -19.3017 9.79858 -1.97213
      vertex -20.3283 4.39524 -1.97213
    endloop
  endfacet
  facet normal 0.893645 -0.169793 0.415415
    outer loop
      vertex -21.1414 4.54974 3.78448
      vertex -19.3017 9.79858 1.97213
      vertex -20.1148 9.95307 3.78448
    endloop
  endfacet
  facet normal 0.893645 -0.169793 0.415415
    outer loop
      vertex -19.3017 9.79858 1.97213
      vertex -21.1414 4.54974 3.78448
      vertex -20.3283 4.39524 1.97213
    endloop
  endfacet
  facet normal 0.972425 -0.184761 0.142315
    outer loop
      vertex -20.3283 4.39524 1.97213
      vertex -19.0231 9.74565 2.16397e-015
      vertex -19.3017 9.79858 1.97213
    endloop
  endfacet
  facet normal 0.972425 -0.184761 0.142315
    outer loop
      vertex -19.0231 9.74565 2.16397e-015
      vertex -20.3283 4.39524 1.97213
      vertex -20.0497 4.34232 9.64188e-016
    endloop
  endfacet
  facet normal 0.742467 -0.141069 0.654861
    outer loop
      vertex -22.1762 4.74634 5
      vertex -20.1148 9.95307 3.78448
      vertex -21.1495 10.1497 5
    endloop
  endfacet
  facet normal 0.742467 -0.141069 0.65486
    outer loop
      vertex -20.1148 9.95307 3.78448
      vertex -22.1762 4.74634 5
      vertex -21.1414 4.54974 3.78448
    endloop
  endfacet
  facet normal -0.980785 -0.19509 0
    outer loop
      vertex 3.4335 7 -5
      vertex 3.17214 8.31394 -2
      vertex 3.17214 8.31394 -5
    endloop
  endfacet
  facet normal -0.980785 -0.19509 0
    outer loop
      vertex 3.17214 8.31394 -2
      vertex 3.4335 7 -5
      vertex 3.4335 7 -2
    endloop
  endfacet
  facet normal 0.980785 -0.19509 0
    outer loop
      vertex -3.4335 7 -2
      vertex -3.17214 8.31394 -5
      vertex -3.17214 8.31394 -2
    endloop
  endfacet
  facet normal 0.980785 -0.19509 0
    outer loop
      vertex -3.17214 8.31394 -5
      vertex -3.4335 7 -2
      vertex -3.4335 7 -5
    endloop
  endfacet
  facet normal 0.980785 0.19509 0
    outer loop
      vertex -3.17214 5.68606 -2
      vertex -3.4335 7 -5
      vertex -3.4335 7 -2
    endloop
  endfacet
  facet normal 0.980785 0.19509 0
    outer loop
      vertex -3.4335 7 -5
      vertex -3.17214 5.68606 -2
      vertex -3.17214 5.68606 -5
    endloop
  endfacet
  facet normal 0.19509 -0.980785 0
    outer loop
      vertex -1.31394 10.1721 -5
      vertex 0 10.4335 -2
      vertex -1.31394 10.1721 -2
    endloop
  endfacet
  facet normal 0.19509 -0.980785 0
    outer loop
      vertex 0 10.4335 -2
      vertex -1.31394 10.1721 -5
      vertex 0 10.4335 -5
    endloop
  endfacet
  facet normal 0.55557 -0.83147 0
    outer loop
      vertex -2.42785 9.42785 -5
      vertex -1.31394 10.1721 -2
      vertex -2.42785 9.42785 -2
    endloop
  endfacet
  facet normal 0.55557 -0.83147 0
    outer loop
      vertex -1.31394 10.1721 -2
      vertex -2.42785 9.42785 -5
      vertex -1.31394 10.1721 -5
    endloop
  endfacet
  facet normal -0.55557 -0.83147 0
    outer loop
      vertex 1.31394 10.1721 -5
      vertex 2.42785 9.42785 -2
      vertex 1.31394 10.1721 -2
    endloop
  endfacet
  facet normal -0.55557 -0.83147 -0
    outer loop
      vertex 2.42785 9.42785 -2
      vertex 1.31394 10.1721 -5
      vertex 2.42785 9.42785 -5
    endloop
  endfacet
  facet normal -0.83147 -0.55557 0
    outer loop
      vertex 3.17214 8.31394 -5
      vertex 2.42785 9.42785 -2
      vertex 2.42785 9.42785 -5
    endloop
  endfacet
  facet normal -0.83147 -0.55557 0
    outer loop
      vertex 2.42785 9.42785 -2
      vertex 3.17214 8.31394 -5
      vertex 3.17214 8.31394 -2
    endloop
  endfacet
  facet normal -0.19509 -0.980785 0
    outer loop
      vertex 0 10.4335 -5
      vertex 1.31394 10.1721 -2
      vertex 0 10.4335 -2
    endloop
  endfacet
  facet normal -0.19509 -0.980785 -0
    outer loop
      vertex 1.31394 10.1721 -2
      vertex 0 10.4335 -5
      vertex 1.31394 10.1721 -5
    endloop
  endfacet
  facet normal 0.83147 -0.55557 0
    outer loop
      vertex -3.17214 8.31394 -2
      vertex -2.42785 9.42785 -5
      vertex -2.42785 9.42785 -2
    endloop
  endfacet
  facet normal 0.83147 -0.55557 0
    outer loop
      vertex -2.42785 9.42785 -5
      vertex -3.17214 8.31394 -2
      vertex -3.17214 8.31394 -5
    endloop
  endfacet
  facet normal -0.55557 0.83147 0
    outer loop
      vertex 2.42785 4.57215 -5
      vertex 1.31394 3.82786 -2
      vertex 2.42785 4.57215 -2
    endloop
  endfacet
  facet normal -0.55557 0.83147 0
    outer loop
      vertex 1.31394 3.82786 -2
      vertex 2.42785 4.57215 -5
      vertex 1.31394 3.82786 -5
    endloop
  endfacet
  facet normal -0.83147 0.55557 0
    outer loop
      vertex 2.42785 4.57215 -5
      vertex 3.17214 5.68606 -2
      vertex 3.17214 5.68606 -5
    endloop
  endfacet
  facet normal -0.83147 0.55557 0
    outer loop
      vertex 3.17214 5.68606 -2
      vertex 2.42785 4.57215 -5
      vertex 2.42785 4.57215 -2
    endloop
  endfacet
  facet normal -0.980785 0.19509 0
    outer loop
      vertex 3.17214 5.68606 -5
      vertex 3.4335 7 -2
      vertex 3.4335 7 -5
    endloop
  endfacet
  facet normal -0.980785 0.19509 0
    outer loop
      vertex 3.4335 7 -2
      vertex 3.17214 5.68606 -5
      vertex 3.17214 5.68606 -2
    endloop
  endfacet
  facet normal 0.55557 0.83147 -0
    outer loop
      vertex -1.31394 3.82786 -5
      vertex -2.42785 4.57215 -2
      vertex -1.31394 3.82786 -2
    endloop
  endfacet
  facet normal 0.55557 0.83147 0
    outer loop
      vertex -2.42785 4.57215 -2
      vertex -1.31394 3.82786 -5
      vertex -2.42785 4.57215 -5
    endloop
  endfacet
  facet normal 0.83147 0.55557 0
    outer loop
      vertex -2.42785 4.57215 -2
      vertex -3.17214 5.68606 -5
      vertex -3.17214 5.68606 -2
    endloop
  endfacet
  facet normal 0.83147 0.55557 0
    outer loop
      vertex -3.17214 5.68606 -5
      vertex -2.42785 4.57215 -2
      vertex -2.42785 4.57215 -5
    endloop
  endfacet
  facet normal -0.19509 0.980785 0
    outer loop
      vertex 1.31394 3.82786 -5
      vertex 0 3.5665 -2
      vertex 1.31394 3.82786 -2
    endloop
  endfacet
  facet normal -0.19509 0.980785 0
    outer loop
      vertex 0 3.5665 -2
      vertex 1.31394 3.82786 -5
      vertex 0 3.5665 -5
    endloop
  endfacet
  facet normal 0.19509 0.980785 -0
    outer loop
      vertex 0 3.5665 -5
      vertex -1.31394 3.82786 -2
      vertex 0 3.5665 -2
    endloop
  endfacet
  facet normal 0.19509 0.980785 0
    outer loop
      vertex -1.31394 3.82786 -2
      vertex 0 3.5665 -5
      vertex -1.31394 3.82786 -5
    endloop
  endfacet
  facet normal -0.866025 -0.5 0
    outer loop
      vertex 6.372 7 -2
      vertex 3.186 12.5183 5
      vertex 3.186 12.5183 -2
    endloop
  endfacet
  facet normal -0.866025 -0.5 0
    outer loop
      vertex 3.186 12.5183 5
      vertex 6.372 7 -2
      vertex 6.372 7 5
    endloop
  endfacet
  facet normal 0.866025 -0.5 0
    outer loop
      vertex -6.372 7 5
      vertex -3.186 12.5183 -2
      vertex -3.186 12.5183 5
    endloop
  endfacet
  facet normal 0.866025 -0.5 0
    outer loop
      vertex -3.186 12.5183 -2
      vertex -6.372 7 5
      vertex -6.372 7 -2
    endloop
  endfacet
  facet normal 0 -1 0
    outer loop
      vertex -3.186 12.5183 -2
      vertex 3.186 12.5183 5
      vertex -3.186 12.5183 5
    endloop
  endfacet
  facet normal 0 -1 -0
    outer loop
      vertex 3.186 12.5183 5
      vertex -3.186 12.5183 -2
      vertex 3.186 12.5183 -2
    endloop
  endfacet
  facet normal -0.866025 0.5 0
    outer loop
      vertex 3.186 1.48169 -2
      vertex 6.372 7 5
      vertex 6.372 7 -2
    endloop
  endfacet
  facet normal -0.866025 0.5 0
    outer loop
      vertex 6.372 7 5
      vertex 3.186 1.48169 -2
      vertex 3.186 1.48169 5
    endloop
  endfacet
  facet normal -0 0 1
    outer loop
      vertex 3.17214 8.31394 -2
      vertex 6.372 7 -2
      vertex 3.186 12.5183 -2
    endloop
  endfacet
  facet normal 0 0 1
    outer loop
      vertex 6.372 7 -2
      vertex 3.17214 8.31394 -2
      vertex 3.4335 7 -2
    endloop
  endfacet
  facet normal 0 0 1
    outer loop
      vertex 3.186 12.5183 -2
      vertex 2.42785 9.42785 -2
      vertex 3.17214 8.31394 -2
    endloop
  endfacet
  facet normal 0 0 1
    outer loop
      vertex 3.186 12.5183 -2
      vertex 1.31394 10.1721 -2
      vertex 2.42785 9.42785 -2
    endloop
  endfacet
  facet normal 0 0 1
    outer loop
      vertex 3.186 12.5183 -2
      vertex 0 10.4335 -2
      vertex 1.31394 10.1721 -2
    endloop
  endfacet
  facet normal -0 0 1
    outer loop
      vertex -3.186 12.5183 -2
      vertex 0 10.4335 -2
      vertex 3.186 12.5183 -2
    endloop
  endfacet
  facet normal 0 0 1
    outer loop
      vertex 0 10.4335 -2
      vertex -3.186 12.5183 -2
      vertex -1.31394 10.1721 -2
    endloop
  endfacet
  facet normal 0 0 1
    outer loop
      vertex -3.186 12.5183 -2
      vertex -2.42785 9.42785 -2
      vertex -1.31394 10.1721 -2
    endloop
  endfacet
  facet normal 0 0 1
    outer loop
      vertex -3.186 12.5183 -2
      vertex -3.17214 8.31394 -2
      vertex -2.42785 9.42785 -2
    endloop
  endfacet
  facet normal 0 0 1
    outer loop
      vertex -6.372 7 -2
      vertex -3.17214 8.31394 -2
      vertex -3.186 12.5183 -2
    endloop
  endfacet
  facet normal 0 0 1
    outer loop
      vertex -3.17214 8.31394 -2
      vertex -6.372 7 -2
      vertex -3.4335 7 -2
    endloop
  endfacet
  facet normal 0 0 1
    outer loop
      vertex 3.17214 5.68606 -2
      vertex 6.372 7 -2
      vertex 3.4335 7 -2
    endloop
  endfacet
  facet normal 0 0 1
    outer loop
      vertex 6.372 7 -2
      vertex 3.17214 5.68606 -2
      vertex 3.186 1.48169 -2
    endloop
  endfacet
  facet normal -0 0 1
    outer loop
      vertex 2.42785 4.57215 -2
      vertex 3.186 1.48169 -2
      vertex 3.17214 5.68606 -2
    endloop
  endfacet
  facet normal -0 0 1
    outer loop
      vertex 1.31394 3.82786 -2
      vertex 3.186 1.48169 -2
      vertex 2.42785 4.57215 -2
    endloop
  endfacet
  facet normal -0 0 1
    outer loop
      vertex 0 3.5665 -2
      vertex 3.186 1.48169 -2
      vertex 1.31394 3.82786 -2
    endloop
  endfacet
  facet normal 0 0 1
    outer loop
      vertex -3.186 1.48169 -2
      vertex 0 3.5665 -2
      vertex -1.31394 3.82786 -2
    endloop
  endfacet
  facet normal 0 0 1
    outer loop
      vertex 0 3.5665 -2
      vertex -3.186 1.48169 -2
      vertex 3.186 1.48169 -2
    endloop
  endfacet
  facet normal 0 0 1
    outer loop
      vertex -2.42785 4.57215 -2
      vertex -3.186 1.48169 -2
      vertex -1.31394 3.82786 -2
    endloop
  endfacet
  facet normal 0 0 1
    outer loop
      vertex -3.17214 5.68606 -2
      vertex -3.186 1.48169 -2
      vertex -2.42785 4.57215 -2
    endloop
  endfacet
  facet normal -0 0 1
    outer loop
      vertex -6.372 7 -2
      vertex -3.17214 5.68606 -2
      vertex -3.4335 7 -2
    endloop
  endfacet
  facet normal 0 0 1
    outer loop
      vertex -3.17214 5.68606 -2
      vertex -6.372 7 -2
      vertex -3.186 1.48169 -2
    endloop
  endfacet
  facet normal 0 1 -0
    outer loop
      vertex 3.186 1.48169 -2
      vertex -3.186 1.48169 5
      vertex 3.186 1.48169 5
    endloop
  endfacet
  facet normal 0 1 0
    outer loop
      vertex -3.186 1.48169 5
      vertex 3.186 1.48169 -2
      vertex -3.186 1.48169 -2
    endloop
  endfacet
  facet normal 0.866025 0.5 0
    outer loop
      vertex -3.186 1.48169 5
      vertex -6.372 7 -2
      vertex -6.372 7 5
    endloop
  endfacet
  facet normal 0.866025 0.5 0
    outer loop
      vertex -6.372 7 -2
      vertex -3.186 1.48169 5
      vertex -3.186 1.48169 -2
    endloop
  endfacet
  facet normal 0 0 -1
    outer loop
      vertex 22.1762 4.74634 -5
      vertex 26.0491 0.00933266 -5
      vertex 26 1.11022e-015 -5
    endloop
  endfacet
  facet normal 0 0 -1
    outer loop
      vertex 26.0491 0.00933266 -5
      vertex 22.1762 4.74634 -5
      vertex 23.4359 13.7633 -5
    endloop
  endfacet
  facet normal 0 0 -1
    outer loop
      vertex 26 1.11022e-015 -5
      vertex 19.0449 4.1514 -5
      vertex 22.1762 4.74634 -5
    endloop
  endfacet
  facet normal 0 0 -1
    outer loop
      vertex 19.0449 4.1514 -5
      vertex 3.4335 7 -5
      vertex 18.0183 9.55473 -5
    endloop
  endfacet
  facet normal 0 0 -1
    outer loop
      vertex 1.31394 3.82786 -5
      vertex 19.0449 4.1514 -5
      vertex 26 1.11022e-015 -5
    endloop
  endfacet
  facet normal 0 0 -1
    outer loop
      vertex 19.0449 4.1514 -5
      vertex 3.17214 5.68606 -5
      vertex 3.4335 7 -5
    endloop
  endfacet
  facet normal 0 0 -1
    outer loop
      vertex 19.0449 4.1514 -5
      vertex 2.42785 4.57215 -5
      vertex 3.17214 5.68606 -5
    endloop
  endfacet
  facet normal -0 0 -1
    outer loop
      vertex 19.0449 4.1514 -5
      vertex 1.31394 3.82786 -5
      vertex 2.42785 4.57215 -5
    endloop
  endfacet
  facet normal 0 0 -1
    outer loop
      vertex 26 1.11022e-015 -5
      vertex 0 3.5665 -5
      vertex 1.31394 3.82786 -5
    endloop
  endfacet
  facet normal 0 0 -1
    outer loop
      vertex -19.0449 4.1514 -5
      vertex -3.4335 7 -5
      vertex -3.17214 5.68606 -5
    endloop
  endfacet
  facet normal 0 0 -1
    outer loop
      vertex -19.0449 4.1514 -5
      vertex -3.17214 5.68606 -5
      vertex -2.42785 4.57215 -5
    endloop
  endfacet
  facet normal 0 0 -1
    outer loop
      vertex -19.0449 4.1514 -5
      vertex -2.42785 4.57215 -5
      vertex -1.31394 3.82786 -5
    endloop
  endfacet
  facet normal -0 0 -1
    outer loop
      vertex -3.4335 7 -5
      vertex -19.0449 4.1514 -5
      vertex -18.0183 9.55473 -5
    endloop
  endfacet
  facet normal 0 0 -1
    outer loop
      vertex -26 1.11022e-015 -5
      vertex -1.31394 3.82786 -5
      vertex 0 3.5665 -5
    endloop
  endfacet
  facet normal 0 0 -1
    outer loop
      vertex -26 1.11022e-015 -5
      vertex 0 3.5665 -5
      vertex 26 1.11022e-015 -5
    endloop
  endfacet
  facet normal -0 0 -1
    outer loop
      vertex -1.31394 3.82786 -5
      vertex -26 1.11022e-015 -5
      vertex -19.0449 4.1514 -5
    endloop
  endfacet
  facet normal 0 0 -1
    outer loop
      vertex -26 1.11022e-015 -5
      vertex -22.1762 4.74634 -5
      vertex -19.0449 4.1514 -5
    endloop
  endfacet
  facet normal 0 0 -1
    outer loop
      vertex -26.0491 0.00933266 -5
      vertex -22.1762 4.74634 -5
      vertex -26 1.11022e-015 -5
    endloop
  endfacet
  facet normal -0 0 -1
    outer loop
      vertex -22.1762 4.74634 -5
      vertex -26.0491 0.00933266 -5
      vertex -23.4359 13.7633 -5
    endloop
  endfacet
  facet normal 0 0 -1
    outer loop
      vertex 21.1495 10.1497 -5
      vertex 23.4359 13.7633 -5
      vertex 22.1762 4.74634 -5
    endloop
  endfacet
  facet normal 0 0 -1
    outer loop
      vertex 18.0183 9.55473 -5
      vertex 23.4359 13.7633 -5
      vertex 21.1495 10.1497 -5
    endloop
  endfacet
  facet normal 0 0 -1
    outer loop
      vertex 3.17214 8.31394 -5
      vertex 18.0183 9.55473 -5
      vertex 3.4335 7 -5
    endloop
  endfacet
  facet normal 0 0 -1
    outer loop
      vertex 2.42785 9.42785 -5
      vertex 18.0183 9.55473 -5
      vertex 3.17214 8.31394 -5
    endloop
  endfacet
  facet normal -0 0 -1
    outer loop
      vertex 18.0183 9.55473 -5
      vertex 2.42785 9.42785 -5
      vertex 0.996203 13.9288 -5
    endloop
  endfacet
  facet normal 0 0 -1
    outer loop
      vertex 0.996203 13.9288 -5
      vertex 2.42785 9.42785 -5
      vertex 1.31394 10.1721 -5
    endloop
  endfacet
  facet normal 0 0 -1
    outer loop
      vertex 18.0183 9.55473 -5
      vertex 0.996203 13.9288 -5
      vertex 23.4359 13.7633 -5
    endloop
  endfacet
  facet normal 0 0 -1
    outer loop
      vertex 0 10.4335 -5
      vertex 0.996203 13.9288 -5
      vertex 1.31394 10.1721 -5
    endloop
  endfacet
  facet normal 0 0 -1
    outer loop
      vertex 0 10.4335 -5
      vertex -0.996203 13.9288 -5
      vertex 0.996203 13.9288 -5
    endloop
  endfacet
  facet normal 0 0 -1
    outer loop
      vertex -1.31394 10.1721 -5
      vertex -0.996203 13.9288 -5
      vertex 0 10.4335 -5
    endloop
  endfacet
  facet normal 0 0 -1
    outer loop
      vertex -2.42785 9.42785 -5
      vertex -0.996203 13.9288 -5
      vertex -1.31394 10.1721 -5
    endloop
  endfacet
  facet normal 0 0 -1
    outer loop
      vertex -18.0183 9.55473 -5
      vertex -2.42785 9.42785 -5
      vertex -3.17214 8.31394 -5
    endloop
  endfacet
  facet normal 0 0 -1
    outer loop
      vertex -18.0183 9.55473 -5
      vertex -3.17214 8.31394 -5
      vertex -3.4335 7 -5
    endloop
  endfacet
  facet normal 0 0 -1
    outer loop
      vertex -2.42785 9.42785 -5
      vertex -18.0183 9.55473 -5
      vertex -0.996203 13.9288 -5
    endloop
  endfacet
  facet normal 0 0 -1
    outer loop
      vertex -23.4359 13.7633 -5
      vertex -18.0183 9.55473 -5
      vertex -21.1495 10.1497 -5
    endloop
  endfacet
  facet normal 0 0 -1
    outer loop
      vertex -18.0183 9.55473 -5
      vertex -23.4359 13.7633 -5
      vertex -0.996203 13.9288 -5
    endloop
  endfacet
  facet normal 0 0 -1
    outer loop
      vertex -23.4359 13.7633 -5
      vertex -21.1495 10.1497 -5
      vertex -22.1762 4.74634 -5
    endloop
  endfacet
  facet normal -0 5.76326e-006 1
    outer loop
      vertex -0.996203 13.9288 5
      vertex 23.4359 13.7633 5
      vertex 0.996203 13.9288 5
    endloop
  endfacet
  facet normal 0 5.76326e-006 1
    outer loop
      vertex 23.4359 13.7633 5
      vertex -0.996203 13.9288 5
      vertex -23.4359 13.7633 5
    endloop
  endfacet
  facet normal -0.982424 0.186661 0
    outer loop
      vertex -26.0491 0.00933266 -5
      vertex -23.4359 13.7633 -4.61844
      vertex -23.4359 13.7633 -5
    endloop
  endfacet
  facet normal -0.982424 0.186661 0
    outer loop
      vertex -23.4359 13.7633 -4.61844
      vertex -26.0491 0.00933266 -5
      vertex -26.0491 0.00933266 -4.61844
    endloop
  endfacet
  facet normal -0.982424 0.186661 0
    outer loop
      vertex -26.0491 0.00933266 4.61844
      vertex -23.4359 13.7633 5
      vertex -23.4359 13.7633 4.61844
    endloop
  endfacet
  facet normal -0.982424 0.186661 0
    outer loop
      vertex -23.4359 13.7633 5
      vertex -26.0491 0.00933266 4.61844
      vertex -26.0491 0.00933266 5
    endloop
  endfacet
  facet normal 0.00737357 0.999973 0
    outer loop
      vertex 22.6347 13.7692 4.09323
      vertex 23.4359 13.7633 5
      vertex 23.4359 13.7633 4.61844
    endloop
  endfacet
  facet normal 0.00737586 0.999973 -2.02155e-006
    outer loop
      vertex 21.7839 13.7755 3.53553
      vertex 23.4359 13.7633 5
      vertex 22.6347 13.7692 4.09323
    endloop
  endfacet
  facet normal 0.00737401 0.999973 6.06189e-008
    outer loop
      vertex 23.4359 13.7633 5
      vertex 21.7839 13.7755 3.53553
      vertex 0.996203 13.9288 5
    endloop
  endfacet
  facet normal 0.00737401 0.999973 7.73901e-009
    outer loop
      vertex 21.2151 13.7797 2.70044
      vertex 0.996203 13.9288 5
      vertex 21.7839 13.7755 3.53553
    endloop
  endfacet
  facet normal 0.00737403 0.999973 2.34058e-007
    outer loop
      vertex 20.6791 13.7836 1.91342
      vertex 0.996203 13.9288 5
      vertex 21.2151 13.7797 2.70044
    endloop
  endfacet
  facet normal 0.00737401 0.999973 8.50561e-008
    outer loop
      vertex 20.2911 13.7865 3.06121e-015
      vertex 0.996203 13.9288 5
      vertex 20.6791 13.7836 1.91342
    endloop
  endfacet
  facet normal 0.00737401 0.999973 -8.50561e-008
    outer loop
      vertex 0.996203 13.9288 -5
      vertex 20.2911 13.7865 3.06121e-015
      vertex 20.6791 13.7836 -1.91342
    endloop
  endfacet
  facet normal 0.00737403 0.999973 -2.34058e-007
    outer loop
      vertex 0.996203 13.9288 -5
      vertex 20.6791 13.7836 -1.91342
      vertex 21.2151 13.7797 -2.70044
    endloop
  endfacet
  facet normal 0.00737401 0.999973 -7.73901e-009
    outer loop
      vertex 0.996203 13.9288 -5
      vertex 21.2151 13.7797 -2.70044
      vertex 21.7839 13.7755 -3.53553
    endloop
  endfacet
  facet normal 0.00737586 0.999973 2.02155e-006
    outer loop
      vertex 23.4359 13.7633 -5
      vertex 21.7839 13.7755 -3.53553
      vertex 22.6347 13.7692 -4.09323
    endloop
  endfacet
  facet normal 0.00737357 0.999973 -0
    outer loop
      vertex 23.4359 13.7633 -5
      vertex 22.6347 13.7692 -4.09323
      vertex 23.4359 13.7633 -4.61844
    endloop
  endfacet
  facet normal 0.00737401 0.999973 -6.06189e-008
    outer loop
      vertex 21.7839 13.7755 -3.53553
      vertex 23.4359 13.7633 -5
      vertex 0.996203 13.9288 -5
    endloop
  endfacet
  facet normal 0.00737399 0.999973 0
    outer loop
      vertex 20.2911 13.7865 3.06121e-015
      vertex 0.996203 13.9288 -5
      vertex 0.996203 13.9288 5
    endloop
  endfacet
  facet normal -0.00737401 0.999973 6.06189e-008
    outer loop
      vertex -21.7839 13.7755 3.53553
      vertex -23.4359 13.7633 5
      vertex -0.996203 13.9288 5
    endloop
  endfacet
  facet normal -0.00737357 0.999973 0
    outer loop
      vertex -23.4359 13.7633 5
      vertex -22.6347 13.7692 4.09323
      vertex -23.4359 13.7633 4.61844
    endloop
  endfacet
  facet normal -0.00737586 0.999973 -2.02155e-006
    outer loop
      vertex -23.4359 13.7633 5
      vertex -21.7839 13.7755 3.53553
      vertex -22.6347 13.7692 4.09323
    endloop
  endfacet
  facet normal -0.00737401 0.999973 7.73901e-009
    outer loop
      vertex -0.996203 13.9288 5
      vertex -21.2151 13.7797 2.70044
      vertex -21.7839 13.7755 3.53553
    endloop
  endfacet
  facet normal -0.00737403 0.999973 2.34058e-007
    outer loop
      vertex -0.996203 13.9288 5
      vertex -20.6791 13.7836 1.91342
      vertex -21.2151 13.7797 2.70044
    endloop
  endfacet
  facet normal -0.00737401 0.999973 8.50561e-008
    outer loop
      vertex -0.996203 13.9288 5
      vertex -20.2911 13.7865 3.06121e-015
      vertex -20.6791 13.7836 1.91342
    endloop
  endfacet
  facet normal -0.00737399 0.999973 0
    outer loop
      vertex -0.996203 13.9288 -5
      vertex -20.2911 13.7865 3.06121e-015
      vertex -0.996203 13.9288 5
    endloop
  endfacet
  facet normal -0.00737401 0.999973 -8.50561e-008
    outer loop
      vertex -20.2911 13.7865 3.06121e-015
      vertex -0.996203 13.9288 -5
      vertex -20.6791 13.7836 -1.91342
    endloop
  endfacet
  facet normal -0.00737403 0.999973 -2.34058e-007
    outer loop
      vertex -20.6791 13.7836 -1.91342
      vertex -0.996203 13.9288 -5
      vertex -21.2151 13.7797 -2.70044
    endloop
  endfacet
  facet normal -0.00737401 0.999973 -7.73901e-009
    outer loop
      vertex -21.2151 13.7797 -2.70044
      vertex -0.996203 13.9288 -5
      vertex -21.7839 13.7755 -3.53553
    endloop
  endfacet
  facet normal -0.00737401 0.999973 -6.06189e-008
    outer loop
      vertex -23.4359 13.7633 -5
      vertex -21.7839 13.7755 -3.53553
      vertex -0.996203 13.9288 -5
    endloop
  endfacet
  facet normal -0.00737586 0.999973 2.02155e-006
    outer loop
      vertex -21.7839 13.7755 -3.53553
      vertex -23.4359 13.7633 -5
      vertex -22.6347 13.7692 -4.09323
    endloop
  endfacet
  facet normal -0.00737357 0.999973 0
    outer loop
      vertex -22.6347 13.7692 -4.09323
      vertex -23.4359 13.7633 -5
      vertex -23.4359 13.7633 -4.61844
    endloop
  endfacet
  facet normal 0.982424 0.186661 0
    outer loop
      vertex 26.0491 0.00933266 5
      vertex 23.4359 13.7633 4.61844
      vertex 23.4359 13.7633 5
    endloop
  endfacet
  facet normal 0.982424 0.186661 0
    outer loop
      vertex 23.4359 13.7633 4.61844
      vertex 26.0491 0.00933266 5
      vertex 26.0491 0.00933266 4.61844
    endloop
  endfacet
  facet normal 0.982424 0.186661 0
    outer loop
      vertex 26.0491 0.00933266 -4.61844
      vertex 23.4359 13.7633 -5
      vertex 23.4359 13.7633 -4.61844
    endloop
  endfacet
  facet normal 0.982424 0.186661 0
    outer loop
      vertex 23.4359 13.7633 -5
      vertex 26.0491 0.00933266 -4.61844
      vertex 26.0491 0.00933266 -5
    endloop
  endfacet
  facet normal 0 0 1
    outer loop
      vertex 23.4359 13.7633 5
      vertex 21.1495 10.1497 5
      vertex 22.1762 4.74634 5
    endloop
  endfacet
  facet normal 0 0 1
    outer loop
      vertex 23.4359 13.7633 5
      vertex 18.0183 9.55473 5
      vertex 21.1495 10.1497 5
    endloop
  endfacet
  facet normal -0 0 1
    outer loop
      vertex 3.186 12.5183 5
      vertex 18.0183 9.55473 5
      vertex 23.4359 13.7633 5
    endloop
  endfacet
  facet normal 0 0 1
    outer loop
      vertex 18.0183 9.55473 5
      vertex 3.186 12.5183 5
      vertex 6.372 7 5
    endloop
  endfacet
  facet normal 0 0 1
    outer loop
      vertex 23.4359 13.7633 5
      vertex -3.186 12.5183 5
      vertex 3.186 12.5183 5
    endloop
  endfacet
  facet normal 0 0 1
    outer loop
      vertex -3.186 12.5183 5
      vertex -18.0183 9.55473 5
      vertex -6.372 7 5
    endloop
  endfacet
  facet normal 0 0 1
    outer loop
      vertex -23.4359 13.7633 5
      vertex -18.0183 9.55473 5
      vertex -3.186 12.5183 5
    endloop
  endfacet
  facet normal 0 0 1
    outer loop
      vertex -21.1495 10.1497 5
      vertex -23.4359 13.7633 5
      vertex -22.1762 4.74634 5
    endloop
  endfacet
  facet normal 0 0 1
    outer loop
      vertex -18.0183 9.55473 5
      vertex -23.4359 13.7633 5
      vertex -21.1495 10.1497 5
    endloop
  endfacet
  facet normal -0 0 1
    outer loop
      vertex -23.4359 13.7633 5
      vertex -3.186 12.5183 5
      vertex 23.4359 13.7633 5
    endloop
  endfacet
  facet normal -0 0 1
    outer loop
      vertex 22.1762 4.74634 5
      vertex 26.0491 0.00933266 5
      vertex 23.4359 13.7633 5
    endloop
  endfacet
  facet normal 0 0 1
    outer loop
      vertex 26.0491 0.00933266 5
      vertex 22.1762 4.74634 5
      vertex 26 -1.11022e-015 5
    endloop
  endfacet
  facet normal -0 0 1
    outer loop
      vertex 19.0449 4.1514 5
      vertex 26 -1.11022e-015 5
      vertex 22.1762 4.74634 5
    endloop
  endfacet
  facet normal -0 0 1
    outer loop
      vertex 6.372 7 5
      vertex 19.0449 4.1514 5
      vertex 18.0183 9.55473 5
    endloop
  endfacet
  facet normal 0 0 1
    outer loop
      vertex 3.186 1.48169 5
      vertex 19.0449 4.1514 5
      vertex 6.372 7 5
    endloop
  endfacet
  facet normal 0 0 1
    outer loop
      vertex 19.0449 4.1514 5
      vertex 3.186 1.48169 5
      vertex 26 -1.11022e-015 5
    endloop
  endfacet
  facet normal -0 0 1
    outer loop
      vertex -3.186 1.48169 5
      vertex 26 -1.11022e-015 5
      vertex 3.186 1.48169 5
    endloop
  endfacet
  facet normal 0 0 1
    outer loop
      vertex -19.0449 4.1514 5
      vertex -6.372 7 5
      vertex -18.0183 9.55473 5
    endloop
  endfacet
  facet normal 0 0 1
    outer loop
      vertex -6.372 7 5
      vertex -19.0449 4.1514 5
      vertex -3.186 1.48169 5
    endloop
  endfacet
  facet normal 0 0 1
    outer loop
      vertex -3.186 1.48169 5
      vertex -26 -1.11022e-015 5
      vertex 26 -1.11022e-015 5
    endloop
  endfacet
  facet normal 0 0 1
    outer loop
      vertex -19.0449 4.1514 5
      vertex -26 -1.11022e-015 5
      vertex -3.186 1.48169 5
    endloop
  endfacet
  facet normal 0 0 1
    outer loop
      vertex -22.1762 4.74634 5
      vertex -26 -1.11022e-015 5
      vertex -19.0449 4.1514 5
    endloop
  endfacet
  facet normal 0 0 1
    outer loop
      vertex -26.0491 0.00933266 5
      vertex -22.1762 4.74634 5
      vertex -23.4359 13.7633 5
    endloop
  endfacet
  facet normal 0 0 1
    outer loop
      vertex -22.1762 4.74634 5
      vertex -26.0491 0.00933266 5
      vertex -26 -1.11022e-015 5
    endloop
  endfacet
  facet normal 0.186651 -0.982426 -2.18142e-016
    outer loop
      vertex 26 1.11022e-015 -5
      vertex 26.0491 0.00933266 -4.61844
      vertex 26 1.01808e-015 -4.58503
    endloop
  endfacet
  facet normal 0.186651 -0.982426 0
    outer loop
      vertex 26.0491 0.00933266 -4.61844
      vertex 26 1.11022e-015 -5
      vertex 26.0491 0.00933266 -5
    endloop
  endfacet
  facet normal 0.186651 -0.982426 0
    outer loop
      vertex 26 -1.11022e-015 5
      vertex 26.0491 0.00933266 4.61844
      vertex 26.0491 0.00933266 5
    endloop
  endfacet
  facet normal 0.186651 -0.982426 -2.16855e-016
    outer loop
      vertex 26.0491 0.00933266 4.61844
      vertex 26 -1.11022e-015 5
      vertex 26 -1.01808e-015 4.58503
    endloop
  endfacet
  facet normal 0 1 -0
    outer loop
      vertex 0.996203 13.9288 -5
      vertex -0.996203 13.9288 5
      vertex 0.996203 13.9288 5
    endloop
  endfacet
  facet normal 0 1 0
    outer loop
      vertex -0.996203 13.9288 5
      vertex 0.996203 13.9288 -5
      vertex -0.996203 13.9288 -5
    endloop
  endfacet
  facet normal -0.186651 -0.982426 0
    outer loop
      vertex -26 1.11022e-015 -5
      vertex -26.0491 0.00933266 -4.61844
      vertex -26.0491 0.00933266 -5
    endloop
  endfacet
  facet normal -0.186651 -0.982426 -2.16855e-016
    outer loop
      vertex -26.0491 0.00933266 -4.61844
      vertex -26 1.11022e-015 -5
      vertex -26 1.01808e-015 -4.58503
    endloop
  endfacet
  facet normal -0.186651 -0.982426 0
    outer loop
      vertex -26.0491 0.00933266 4.61844
      vertex -26 -1.11022e-015 5
      vertex -26.0491 0.00933266 5
    endloop
  endfacet
  facet normal -0.186651 -0.982426 -2.18142e-016
    outer loop
      vertex -26 -1.11022e-015 5
      vertex -26.0491 0.00933266 4.61844
      vertex -26 -1.01808e-015 4.58503
    endloop
  endfacet
  facet normal 0 -1 -2.22045e-016
    outer loop
      vertex -25.2276 -9.05504e-016 4.07803
      vertex -26 -1.11022e-015 5
      vertex -26 -1.01808e-015 4.58503
    endloop
  endfacet
  facet normal 0 -1 -2.22045e-016
    outer loop
      vertex -24.4012 -7.85046e-016 3.53553
      vertex -26 -1.11022e-015 5
      vertex -25.2276 -9.05504e-016 4.07803
    endloop
  endfacet
  facet normal 0 -1 -2.22045e-016
    outer loop
      vertex -26 -1.11022e-015 5
      vertex -24.4012 -7.85046e-016 3.53553
      vertex 26 -1.11022e-015 5
    endloop
  endfacet
  facet normal 0 -1 -2.22045e-016
    outer loop
      vertex 26 -1.11022e-015 5
      vertex 25.2276 -9.05504e-016 4.07803
      vertex 26 -1.01808e-015 4.58503
    endloop
  endfacet
  facet normal -0 -1 -2.22045e-016
    outer loop
      vertex 24.4012 -7.85046e-016 3.53553
      vertex 26 -1.11022e-015 5
      vertex -24.4012 -7.85046e-016 3.53553
    endloop
  endfacet
  facet normal 0 -1 -2.22045e-016
    outer loop
      vertex 26 -1.11022e-015 5
      vertex 24.4012 -7.85046e-016 3.53553
      vertex 25.2276 -9.05504e-016 4.07803
    endloop
  endfacet
  facet normal 0 -1 -2.22045e-016
    outer loop
      vertex -23.8487 -6.04676e-016 2.72322
      vertex 24.4012 -7.85046e-016 3.53553
      vertex -24.4012 -7.85046e-016 3.53553
    endloop
  endfacet
  facet normal 0 -1 -2.22045e-016
    outer loop
      vertex -23.8487 -6.04676e-016 2.72322
      vertex 23.8487 -6.04676e-016 2.72322
      vertex 24.4012 -7.85046e-016 3.53553
    endloop
  endfacet
  facet normal 0 -1 -2.22045e-016
    outer loop
      vertex -23.298 -4.24864e-016 1.91342
      vertex 23.8487 -6.04676e-016 2.72322
      vertex -23.8487 -6.04676e-016 2.72322
    endloop
  endfacet
  facet normal 0 -1 -2.22045e-016
    outer loop
      vertex -23.298 -4.24864e-016 1.91342
      vertex 23.298 -4.24864e-016 1.91342
      vertex 23.8487 -6.04676e-016 2.72322
    endloop
  endfacet
  facet normal 0 -1 -2.22045e-016
    outer loop
      vertex -22.9106 0 0
      vertex 23.298 -4.24864e-016 1.91342
      vertex -23.298 -4.24864e-016 1.91342
    endloop
  endfacet
  facet normal 0 -1 -2.22045e-016
    outer loop
      vertex -22.9106 0 0
      vertex 22.9106 0 0
      vertex 23.298 -4.24864e-016 1.91342
    endloop
  endfacet
  facet normal 0 -1 -2.22045e-016
    outer loop
      vertex -23.298 4.24864e-016 -1.91342
      vertex 22.9106 0 0
      vertex -22.9106 0 0
    endloop
  endfacet
  facet normal 0 -1 -2.22045e-016
    outer loop
      vertex -23.298 4.24864e-016 -1.91342
      vertex 23.298 4.24864e-016 -1.91342
      vertex 22.9106 0 0
    endloop
  endfacet
  facet normal 0 -1 -2.22045e-016
    outer loop
      vertex -23.8487 6.04676e-016 -2.72322
      vertex 23.298 4.24864e-016 -1.91342
      vertex -23.298 4.24864e-016 -1.91342
    endloop
  endfacet
  facet normal 0 -1 -2.22045e-016
    outer loop
      vertex -23.8487 6.04676e-016 -2.72322
      vertex 23.8487 6.04676e-016 -2.72322
      vertex 23.298 4.24864e-016 -1.91342
    endloop
  endfacet
  facet normal 0 -1 -2.22045e-016
    outer loop
      vertex -24.4012 7.85046e-016 -3.53553
      vertex 23.8487 6.04676e-016 -2.72322
      vertex -23.8487 6.04676e-016 -2.72322
    endloop
  endfacet
  facet normal 0 -1 -2.22045e-016
    outer loop
      vertex -24.4012 7.85046e-016 -3.53553
      vertex 24.4012 7.85046e-016 -3.53553
      vertex 23.8487 6.04676e-016 -2.72322
    endloop
  endfacet
  facet normal 0 -1 -2.22045e-016
    outer loop
      vertex -26 1.11022e-015 -5
      vertex -24.4012 7.85046e-016 -3.53553
      vertex -25.2276 9.05504e-016 -4.07803
    endloop
  endfacet
  facet normal 0 -1 -2.22045e-016
    outer loop
      vertex -24.4012 7.85046e-016 -3.53553
      vertex -26 1.11022e-015 -5
      vertex 24.4012 7.85046e-016 -3.53553
    endloop
  endfacet
  facet normal 0 -1 -2.22045e-016
    outer loop
      vertex -26 1.11022e-015 -5
      vertex -25.2276 9.05504e-016 -4.07803
      vertex -26 1.01808e-015 -4.58503
    endloop
  endfacet
  facet normal -0 -1 -2.22045e-016
    outer loop
      vertex 26 1.11022e-015 -5
      vertex 24.4012 7.85046e-016 -3.53553
      vertex -26 1.11022e-015 -5
    endloop
  endfacet
  facet normal 0 -1 -2.22045e-016
    outer loop
      vertex 24.4012 7.85046e-016 -3.53553
      vertex 26 1.11022e-015 -5
      vertex 25.2276 9.05504e-016 -4.07803
    endloop
  endfacet
  facet normal 0 -1 -2.22045e-016
    outer loop
      vertex 25.2276 9.05504e-016 -4.07803
      vertex 26 1.11022e-015 -5
      vertex 26 1.01808e-015 -4.58503
    endloop
  endfacet
endsolid OpenSCAD_Model
