solid OpenSCAD_Model
  facet normal 0 0 -1
    outer loop
      vertex -11 0 0
      vertex -10.7596 2.28703 0
      vertex -10.7596 -2.28703 0
    endloop
  endfacet
  facet normal 0 0 -1
    outer loop
      vertex -10.7596 -2.28703 0
      vertex -10.7596 2.28703 0
      vertex -10.049 4.4741 0
    endloop
  endfacet
  facet normal 0 0 -1
    outer loop
      vertex -10.7596 -2.28703 0
      vertex -10.049 4.4741 0
      vertex -8.89919 6.46564 0
    endloop
  endfacet
  facet normal 0 0 -1
    outer loop
      vertex -10.7596 -2.28703 0
      vertex -8.89919 6.46564 0
      vertex -7.36044 8.17459 0
    endloop
  endfacet
  facet normal 0 0 -1
    outer loop
      vertex -10.7596 -2.28703 0
      vertex -7.36044 8.17459 0
      vertex -5.5 9.52628 0
    endloop
  endfacet
  facet normal 0 0 -1
    outer loop
      vertex -10.7596 -2.28703 0
      vertex -5.5 9.52628 0
      vertex -3.39919 10.4616 0
    endloop
  endfacet
  facet normal 0 0 -1
    outer loop
      vertex -10.7596 -2.28703 0
      vertex -3.39919 10.4616 0
      vertex -1.14981 10.9397 0
    endloop
  endfacet
  facet normal 0 0 -1
    outer loop
      vertex -10.7596 -2.28703 0
      vertex -1.14981 10.9397 0
      vertex 1.14981 10.9397 0
    endloop
  endfacet
  facet normal 0 0 -1
    outer loop
      vertex -10.7596 -2.28703 0
      vertex 1.14981 10.9397 0
      vertex 3.39919 10.4616 0
    endloop
  endfacet
  facet normal 0 0 -1
    outer loop
      vertex -10.7596 -2.28703 0
      vertex 3.39919 10.4616 0
      vertex 5.5 9.52628 0
    endloop
  endfacet
  facet normal 0 0 -1
    outer loop
      vertex -10.7596 -2.28703 0
      vertex 5.5 9.52628 0
      vertex 7.36044 8.17459 0
    endloop
  endfacet
  facet normal 0 0 -1
    outer loop
      vertex -10.7596 -2.28703 0
      vertex 7.36044 8.17459 0
      vertex 8.89919 6.46564 0
    endloop
  endfacet
  facet normal 0 0 -1
    outer loop
      vertex -10.7596 -2.28703 0
      vertex 8.89919 6.46564 0
      vertex 10.049 4.4741 0
    endloop
  endfacet
  facet normal 0 0 -1
    outer loop
      vertex -10.7596 -2.28703 0
      vertex 10.049 4.4741 0
      vertex 10.7596 2.28703 0
    endloop
  endfacet
  facet normal 0 0 -1
    outer loop
      vertex -10.7596 -2.28703 0
      vertex 10.7596 2.28703 0
      vertex 11 0 0
    endloop
  endfacet
  facet normal 0 0 -1
    outer loop
      vertex -10.7596 -2.28703 0
      vertex 11 0 0
      vertex 10.7596 -2.28703 0
    endloop
  endfacet
  facet normal 0 0 -1
    outer loop
      vertex -10.7596 -2.28703 0
      vertex 10.7596 -2.28703 0
      vertex 10.049 -4.4741 0
    endloop
  endfacet
  facet normal 0 0 -1
    outer loop
      vertex -10.7596 -2.28703 0
      vertex 10.049 -4.4741 0
      vertex 8.89919 -6.46564 0
    endloop
  endfacet
  facet normal 0 0 -1
    outer loop
      vertex -10.7596 -2.28703 0
      vertex 8.89919 -6.46564 0
      vertex 7.36044 -8.17459 0
    endloop
  endfacet
  facet normal 0 0 -1
    outer loop
      vertex -10.7596 -2.28703 0
      vertex 7.36044 -8.17459 0
      vertex 5.5 -9.52628 0
    endloop
  endfacet
  facet normal 0 0 -1
    outer loop
      vertex -10.7596 -2.28703 0
      vertex 5.5 -9.52628 0
      vertex 3.39919 -10.4616 0
    endloop
  endfacet
  facet normal 0 0 -1
    outer loop
      vertex -10.7596 -2.28703 0
      vertex 3.39919 -10.4616 0
      vertex 1.14981 -10.9397 0
    endloop
  endfacet
  facet normal 0 0 -1
    outer loop
      vertex -10.7596 -2.28703 0
      vertex 1.14981 -10.9397 0
      vertex -1.14981 -10.9397 0
    endloop
  endfacet
  facet normal 0 0 -1
    outer loop
      vertex -10.7596 -2.28703 0
      vertex -1.14981 -10.9397 0
      vertex -3.39919 -10.4616 0
    endloop
  endfacet
  facet normal 0 0 -1
    outer loop
      vertex -10.7596 -2.28703 0
      vertex -3.39919 -10.4616 0
      vertex -5.5 -9.52628 0
    endloop
  endfacet
  facet normal 0 0 -1
    outer loop
      vertex -10.7596 -2.28703 0
      vertex -5.5 -9.52628 0
      vertex -7.36044 -8.17459 0
    endloop
  endfacet
  facet normal 0 0 -1
    outer loop
      vertex -10.7596 -2.28703 0
      vertex -7.36044 -8.17459 0
      vertex -8.89919 -6.46564 0
    endloop
  endfacet
  facet normal 0 0 -1
    outer loop
      vertex -10.7596 -2.28703 0
      vertex -8.89919 -6.46564 0
      vertex -10.049 -4.4741 0
    endloop
  endfacet
  facet normal -0.994522 0.104528 0
    outer loop
      vertex -11 0 0
      vertex -11 0 1
      vertex -10.7596 2.28703 0
    endloop
  endfacet
  facet normal -0.994522 0.104528 0
    outer loop
      vertex -10.7596 2.28703 0
      vertex -11 0 1
      vertex -10.7596 2.28703 1
    endloop
  endfacet
  facet normal -0.994522 -0.104528 0
    outer loop
      vertex -11 0 0
      vertex -10.7596 -2.28703 0
      vertex -11 0 1
    endloop
  endfacet
  facet normal -0.994522 -0.104528 0
    outer loop
      vertex -11 0 1
      vertex -10.7596 -2.28703 0
      vertex -10.7596 -2.28703 1
    endloop
  endfacet
  facet normal -0.951056 -0.309017 0
    outer loop
      vertex -10.7596 -2.28703 0
      vertex -10.049 -4.4741 0
      vertex -10.7596 -2.28703 1
    endloop
  endfacet
  facet normal -0.951056 -0.309017 0
    outer loop
      vertex -10.7596 -2.28703 1
      vertex -10.049 -4.4741 0
      vertex -10.049 -4.4741 1
    endloop
  endfacet
  facet normal -0.866025 -0.5 0
    outer loop
      vertex -10.049 -4.4741 0
      vertex -8.89919 -6.46564 0
      vertex -10.049 -4.4741 1
    endloop
  endfacet
  facet normal -0.866025 -0.5 0
    outer loop
      vertex -10.049 -4.4741 1
      vertex -8.89919 -6.46564 0
      vertex -8.89919 -6.46564 1
    endloop
  endfacet
  facet normal -0.743145 -0.669131 0
    outer loop
      vertex -8.89919 -6.46564 0
      vertex -7.36044 -8.17459 0
      vertex -8.89919 -6.46564 1
    endloop
  endfacet
  facet normal -0.743145 -0.669131 0
    outer loop
      vertex -8.89919 -6.46564 1
      vertex -7.36044 -8.17459 0
      vertex -7.36044 -8.17459 1
    endloop
  endfacet
  facet normal -0.587785 -0.809017 0
    outer loop
      vertex -7.36044 -8.17459 1
      vertex -7.36044 -8.17459 0
      vertex -5.5 -9.52628 0
    endloop
  endfacet
  facet normal -0.587785 -0.809017 0
    outer loop
      vertex -5.5 -9.52628 1
      vertex -7.36044 -8.17459 1
      vertex -5.5 -9.52628 0
    endloop
  endfacet
  facet normal -0.406737 -0.913545 0
    outer loop
      vertex -5.5 -9.52628 1
      vertex -5.5 -9.52628 0
      vertex -3.39919 -10.4616 0
    endloop
  endfacet
  facet normal -0.406737 -0.913545 0
    outer loop
      vertex -3.39919 -10.4616 1
      vertex -5.5 -9.52628 1
      vertex -3.39919 -10.4616 0
    endloop
  endfacet
  facet normal -0.207912 -0.978148 0
    outer loop
      vertex -3.39919 -10.4616 1
      vertex -3.39919 -10.4616 0
      vertex -1.14981 -10.9397 0
    endloop
  endfacet
  facet normal -0.207912 -0.978148 0
    outer loop
      vertex -1.14981 -10.9397 1
      vertex -3.39919 -10.4616 1
      vertex -1.14981 -10.9397 0
    endloop
  endfacet
  facet normal 0 -1 0
    outer loop
      vertex -1.14981 -10.9397 1
      vertex -1.14981 -10.9397 0
      vertex 1.14981 -10.9397 0
    endloop
  endfacet
  facet normal 0 -1 0
    outer loop
      vertex 1.14981 -10.9397 1
      vertex -1.14981 -10.9397 1
      vertex 1.14981 -10.9397 0
    endloop
  endfacet
  facet normal 0.207912 -0.978148 0
    outer loop
      vertex 1.14981 -10.9397 1
      vertex 1.14981 -10.9397 0
      vertex 3.39919 -10.4616 0
    endloop
  endfacet
  facet normal 0.207912 -0.978148 0
    outer loop
      vertex 3.39919 -10.4616 1
      vertex 1.14981 -10.9397 1
      vertex 3.39919 -10.4616 0
    endloop
  endfacet
  facet normal 0.406737 -0.913545 0
    outer loop
      vertex 3.39919 -10.4616 1
      vertex 3.39919 -10.4616 0
      vertex 5.5 -9.52628 0
    endloop
  endfacet
  facet normal 0.406737 -0.913545 0
    outer loop
      vertex 5.5 -9.52628 1
      vertex 3.39919 -10.4616 1
      vertex 5.5 -9.52628 0
    endloop
  endfacet
  facet normal 0.587785 -0.809017 0
    outer loop
      vertex 5.5 -9.52628 1
      vertex 5.5 -9.52628 0
      vertex 7.36044 -8.17459 0
    endloop
  endfacet
  facet normal 0.587785 -0.809017 0
    outer loop
      vertex 7.36044 -8.17459 1
      vertex 5.5 -9.52628 1
      vertex 7.36044 -8.17459 0
    endloop
  endfacet
  facet normal 0.743145 -0.669131 0
    outer loop
      vertex 7.36044 -8.17459 1
      vertex 7.36044 -8.17459 0
      vertex 8.89919 -6.46564 0
    endloop
  endfacet
  facet normal 0.743145 -0.669131 0
    outer loop
      vertex 8.89919 -6.46564 1
      vertex 7.36044 -8.17459 1
      vertex 8.89919 -6.46564 0
    endloop
  endfacet
  facet normal 0.866025 -0.5 0
    outer loop
      vertex 8.89919 -6.46564 1
      vertex 8.89919 -6.46564 0
      vertex 10.049 -4.4741 0
    endloop
  endfacet
  facet normal 0.866025 -0.5 0
    outer loop
      vertex 10.049 -4.4741 1
      vertex 8.89919 -6.46564 1
      vertex 10.049 -4.4741 0
    endloop
  endfacet
  facet normal 0.951056 -0.309017 0
    outer loop
      vertex 10.049 -4.4741 1
      vertex 10.049 -4.4741 0
      vertex 10.7596 -2.28703 0
    endloop
  endfacet
  facet normal 0.951056 -0.309017 0
    outer loop
      vertex 10.7596 -2.28703 1
      vertex 10.049 -4.4741 1
      vertex 10.7596 -2.28703 0
    endloop
  endfacet
  facet normal 0.994522 -0.104528 0
    outer loop
      vertex 10.7596 -2.28703 1
      vertex 10.7596 -2.28703 0
      vertex 11 0 0
    endloop
  endfacet
  facet normal 0.994522 -0.104528 0
    outer loop
      vertex 11 0 1
      vertex 10.7596 -2.28703 1
      vertex 11 0 0
    endloop
  endfacet
  facet normal 0.994522 0.104528 0
    outer loop
      vertex 11 0 0
      vertex 10.7596 2.28703 0
      vertex 10.7596 2.28703 1
    endloop
  endfacet
  facet normal 0.994522 0.104528 0
    outer loop
      vertex 11 0 1
      vertex 11 0 0
      vertex 10.7596 2.28703 1
    endloop
  endfacet
  facet normal 0.951056 0.309017 0
    outer loop
      vertex 10.7596 2.28703 0
      vertex 10.049 4.4741 0
      vertex 10.049 4.4741 1
    endloop
  endfacet
  facet normal 0.951056 0.309017 0
    outer loop
      vertex 10.7596 2.28703 1
      vertex 10.7596 2.28703 0
      vertex 10.049 4.4741 1
    endloop
  endfacet
  facet normal 0.866025 0.5 0
    outer loop
      vertex 10.049 4.4741 0
      vertex 8.89919 6.46564 0
      vertex 8.89919 6.46564 1
    endloop
  endfacet
  facet normal 0.866025 0.5 0
    outer loop
      vertex 10.049 4.4741 1
      vertex 10.049 4.4741 0
      vertex 8.89919 6.46564 1
    endloop
  endfacet
  facet normal 0.743145 0.669131 0
    outer loop
      vertex 8.89919 6.46564 0
      vertex 7.36044 8.17459 0
      vertex 7.36044 8.17459 1
    endloop
  endfacet
  facet normal 0.743145 0.669131 0
    outer loop
      vertex 8.89919 6.46564 1
      vertex 8.89919 6.46564 0
      vertex 7.36044 8.17459 1
    endloop
  endfacet
  facet normal 0.587785 0.809017 0
    outer loop
      vertex 5.5 9.52628 0
      vertex 5.5 9.52628 1
      vertex 7.36044 8.17459 0
    endloop
  endfacet
  facet normal 0.587785 0.809017 0
    outer loop
      vertex 7.36044 8.17459 0
      vertex 5.5 9.52628 1
      vertex 7.36044 8.17459 1
    endloop
  endfacet
  facet normal 0.406737 0.913545 0
    outer loop
      vertex 3.39919 10.4616 0
      vertex 3.39919 10.4616 1
      vertex 5.5 9.52628 0
    endloop
  endfacet
  facet normal 0.406737 0.913545 0
    outer loop
      vertex 5.5 9.52628 0
      vertex 3.39919 10.4616 1
      vertex 5.5 9.52628 1
    endloop
  endfacet
  facet normal 0.207912 0.978148 0
    outer loop
      vertex 1.14981 10.9397 0
      vertex 1.14981 10.9397 1
      vertex 3.39919 10.4616 0
    endloop
  endfacet
  facet normal 0.207912 0.978148 0
    outer loop
      vertex 3.39919 10.4616 0
      vertex 1.14981 10.9397 1
      vertex 3.39919 10.4616 1
    endloop
  endfacet
  facet normal 0 1 0
    outer loop
      vertex -1.14981 10.9397 0
      vertex -1.14981 10.9397 1
      vertex 1.14981 10.9397 0
    endloop
  endfacet
  facet normal 0 1 0
    outer loop
      vertex 1.14981 10.9397 0
      vertex -1.14981 10.9397 1
      vertex 1.14981 10.9397 1
    endloop
  endfacet
  facet normal -0.207912 0.978148 0
    outer loop
      vertex -3.39919 10.4616 0
      vertex -3.39919 10.4616 1
      vertex -1.14981 10.9397 0
    endloop
  endfacet
  facet normal -0.207912 0.978148 0
    outer loop
      vertex -1.14981 10.9397 0
      vertex -3.39919 10.4616 1
      vertex -1.14981 10.9397 1
    endloop
  endfacet
  facet normal -0.406737 0.913545 0
    outer loop
      vertex -5.5 9.52628 0
      vertex -5.5 9.52628 1
      vertex -3.39919 10.4616 0
    endloop
  endfacet
  facet normal -0.406737 0.913545 0
    outer loop
      vertex -3.39919 10.4616 0
      vertex -5.5 9.52628 1
      vertex -3.39919 10.4616 1
    endloop
  endfacet
  facet normal -0.587785 0.809017 0
    outer loop
      vertex -7.36044 8.17459 0
      vertex -7.36044 8.17459 1
      vertex -5.5 9.52628 0
    endloop
  endfacet
  facet normal -0.587785 0.809017 0
    outer loop
      vertex -5.5 9.52628 0
      vertex -7.36044 8.17459 1
      vertex -5.5 9.52628 1
    endloop
  endfacet
  facet normal -0.743145 0.669131 0
    outer loop
      vertex -8.89919 6.46564 0
      vertex -8.89919 6.46564 1
      vertex -7.36044 8.17459 0
    endloop
  endfacet
  facet normal -0.743145 0.669131 0
    outer loop
      vertex -7.36044 8.17459 0
      vertex -8.89919 6.46564 1
      vertex -7.36044 8.17459 1
    endloop
  endfacet
  facet normal -0.866025 0.5 0
    outer loop
      vertex -10.049 4.4741 0
      vertex -10.049 4.4741 1
      vertex -8.89919 6.46564 0
    endloop
  endfacet
  facet normal -0.866025 0.5 0
    outer loop
      vertex -8.89919 6.46564 0
      vertex -10.049 4.4741 1
      vertex -8.89919 6.46564 1
    endloop
  endfacet
  facet normal -0.951056 0.309017 0
    outer loop
      vertex -10.7596 2.28703 0
      vertex -10.7596 2.28703 1
      vertex -10.049 4.4741 0
    endloop
  endfacet
  facet normal -0.951056 0.309017 0
    outer loop
      vertex -10.049 4.4741 0
      vertex -10.7596 2.28703 1
      vertex -10.049 4.4741 1
    endloop
  endfacet
  facet normal 0 0 1
    outer loop
      vertex -10.7596 2.28703 1
      vertex -11 0 1
      vertex -10.7596 -2.28703 1
    endloop
  endfacet
  facet normal 0 0 1
    outer loop
      vertex -8.89919 -6.46564 1
      vertex -10.7596 2.28703 1
      vertex -10.049 -4.4741 1
    endloop
  endfacet
  facet normal 0 0 1
    outer loop
      vertex -10.049 -4.4741 1
      vertex -10.7596 2.28703 1
      vertex -10.7596 -2.28703 1
    endloop
  endfacet
  facet normal 0 0 1
    outer loop
      vertex -9.57313 -2.03483 1
      vertex -10.7596 2.28703 1
      vertex -8.89919 -6.46564 1
    endloop
  endfacet
  facet normal 0 0 1
    outer loop
      vertex -4.90788 -8.46535 1
      vertex -6.54878 -7.27316 1
      vertex -5.5 -9.52628 1
    endloop
  endfacet
  facet normal 0 0 1
    outer loop
      vertex -7.36044 8.17459 1
      vertex -10.7596 2.28703 1
      vertex -5.5 9.52628 1
    endloop
  endfacet
  facet normal 0 0 1
    outer loop
      vertex -8.89919 6.46564 1
      vertex -10.7596 2.28703 1
      vertex -7.36044 8.17459 1
    endloop
  endfacet
  facet normal 0 0 1
    outer loop
      vertex -10.049 4.4741 1
      vertex -10.7596 2.28703 1
      vertex -8.89919 6.46564 1
    endloop
  endfacet
  facet normal 0 0 1
    outer loop
      vertex -9.78514 0.0176725 1
      vertex -10.7596 2.28703 1
      vertex -9.787 0 1
    endloop
  endfacet
  facet normal 0 0 1
    outer loop
      vertex -7.92673 -5.73726 1
      vertex -8.94087 -3.98073 1
      vertex -7.36044 -8.17459 1
    endloop
  endfacet
  facet normal 0 0 1
    outer loop
      vertex 8.93198 -3.99612 1
      vertex 7.91785 -5.75265 1
      vertex 10.049 -4.4741 1
    endloop
  endfacet
  facet normal 0 0 1
    outer loop
      vertex -9.56764 2.05173 1
      vertex -10.7596 2.28703 1
      vertex -9.57313 2.03483 1
    endloop
  endfacet
  facet normal 0 0 1
    outer loop
      vertex 9.78514 -0.0176725 1
      vertex 9.57313 -2.03483 1
      vertex 10.7596 -2.28703 1
    endloop
  endfacet
  facet normal 0 0 1
    outer loop
      vertex -1.02302 9.73339 1
      vertex 1.02302 9.73339 1
      vertex 1.14981 10.9397 1
    endloop
  endfacet
  facet normal 0 0 1
    outer loop
      vertex -8.93198 3.99612 1
      vertex -10.7596 2.28703 1
      vertex -8.94087 3.98073 1
    endloop
  endfacet
  facet normal 0 0 1
    outer loop
      vertex -3.00697 9.31168 1
      vertex -1.02302 9.73339 1
      vertex -1.14981 10.9397 1
    endloop
  endfacet
  facet normal 0 0 1
    outer loop
      vertex 9.57499 2.01716 1
      vertex 9.787 0 1
      vertex 11 0 1
    endloop
  endfacet
  facet normal 0 0 1
    outer loop
      vertex -5.5 9.52628 1
      vertex -10.7596 2.28703 1
      vertex -7.91785 5.75265 1
    endloop
  endfacet
  facet normal 0 0 1
    outer loop
      vertex -5.5 9.52628 1
      vertex -7.91785 5.75265 1
      vertex -7.90596 5.76586 1
    endloop
  endfacet
  facet normal 0 0 1
    outer loop
      vertex -5.5 9.52628 1
      vertex -6.54878 7.27316 1
      vertex -3.39919 10.4616 1
    endloop
  endfacet
  facet normal 0 0 1
    outer loop
      vertex -5.5 9.52628 1
      vertex -7.90596 5.76586 1
      vertex -6.54878 7.27316 1
    endloop
  endfacet
  facet normal 0 0 1
    outer loop
      vertex -6.54878 7.27316 1
      vertex -6.53441 7.2836 1
      vertex -3.39919 10.4616 1
    endloop
  endfacet
  facet normal 0 0 1
    outer loop
      vertex -3.39919 10.4616 1
      vertex -4.8935 8.47579 1
      vertex -1.14981 10.9397 1
    endloop
  endfacet
  facet normal 0 0 1
    outer loop
      vertex -4.8935 8.47579 1
      vertex -4.87727 8.48302 1
      vertex -1.14981 10.9397 1
    endloop
  endfacet
  facet normal 0 0 1
    outer loop
      vertex -4.87727 8.48302 1
      vertex -3.02435 9.30799 1
      vertex -1.14981 10.9397 1
    endloop
  endfacet
  facet normal 0 0 1
    outer loop
      vertex -3.02435 9.30799 1
      vertex -3.00697 9.31168 1
      vertex -1.14981 10.9397 1
    endloop
  endfacet
  facet normal 0 0 1
    outer loop
      vertex -1.14981 10.9397 1
      vertex -1.02302 9.73339 1
      vertex 1.14981 10.9397 1
    endloop
  endfacet
  facet normal 0 0 1
    outer loop
      vertex -8.93198 3.99612 1
      vertex -7.91785 5.75265 1
      vertex -10.7596 2.28703 1
    endloop
  endfacet
  facet normal 0 0 1
    outer loop
      vertex 1.14981 10.9397 1
      vertex 1.02302 9.73339 1
      vertex 3.39919 10.4616 1
    endloop
  endfacet
  facet normal 0 0 1
    outer loop
      vertex 1.02302 9.73339 1
      vertex 1.0404 9.72969 1
      vertex 3.39919 10.4616 1
    endloop
  endfacet
  facet normal 0 0 1
    outer loop
      vertex -6.53441 7.2836 1
      vertex -4.8935 8.47579 1
      vertex -3.39919 10.4616 1
    endloop
  endfacet
  facet normal 0 0 1
    outer loop
      vertex 3.39919 10.4616 1
      vertex 3.02435 9.30799 1
      vertex 5.5 9.52628 1
    endloop
  endfacet
  facet normal 0 0 1
    outer loop
      vertex 3.02435 9.30799 1
      vertex 3.04058 9.30076 1
      vertex 5.5 9.52628 1
    endloop
  endfacet
  facet normal 0 0 1
    outer loop
      vertex 5.5 9.52628 1
      vertex 4.8935 8.47579 1
      vertex 7.36044 8.17459 1
    endloop
  endfacet
  facet normal 0 0 1
    outer loop
      vertex 4.8935 8.47579 1
      vertex 4.90788 8.46535 1
      vertex 7.36044 8.17459 1
    endloop
  endfacet
  facet normal 0 0 1
    outer loop
      vertex 7.36044 8.17459 1
      vertex 6.54878 7.27316 1
      vertex 8.89919 6.46564 1
    endloop
  endfacet
  facet normal 0 0 1
    outer loop
      vertex 6.54878 7.27316 1
      vertex 6.56067 7.25995 1
      vertex 8.89919 6.46564 1
    endloop
  endfacet
  facet normal 0 0 1
    outer loop
      vertex 8.89919 6.46564 1
      vertex 7.91785 5.75265 1
      vertex 10.049 4.4741 1
    endloop
  endfacet
  facet normal 0 0 1
    outer loop
      vertex 7.91785 5.75265 1
      vertex 7.92673 5.73726 1
      vertex 10.049 4.4741 1
    endloop
  endfacet
  facet normal 0 0 1
    outer loop
      vertex 10.049 4.4741 1
      vertex 8.94087 3.98073 1
      vertex 10.7596 2.28703 1
    endloop
  endfacet
  facet normal 0 0 1
    outer loop
      vertex 8.94087 3.98073 1
      vertex 8.94636 3.96383 1
      vertex 10.7596 2.28703 1
    endloop
  endfacet
  facet normal 0 0 1
    outer loop
      vertex 10.7596 2.28703 1
      vertex 9.57313 2.03483 1
      vertex 11 0 1
    endloop
  endfacet
  facet normal 0 0 1
    outer loop
      vertex 9.57313 2.03483 1
      vertex 9.57499 2.01716 1
      vertex 11 0 1
    endloop
  endfacet
  facet normal 0 0 1
    outer loop
      vertex 11 0 1
      vertex 9.787 0 1
      vertex 10.7596 -2.28703 1
    endloop
  endfacet
  facet normal 0 0 1
    outer loop
      vertex 9.787 0 1
      vertex 9.78514 -0.0176725 1
      vertex 10.7596 -2.28703 1
    endloop
  endfacet
  facet normal 0 0 1
    outer loop
      vertex 10.7596 -2.28703 1
      vertex 9.57313 -2.03483 1
      vertex 10.049 -4.4741 1
    endloop
  endfacet
  facet normal 0 0 1
    outer loop
      vertex 1.0404 9.72969 1
      vertex 3.02435 9.30799 1
      vertex 3.39919 10.4616 1
    endloop
  endfacet
  facet normal 0 0 1
    outer loop
      vertex 9.57313 -2.03483 1
      vertex 9.56764 -2.05173 1
      vertex 10.049 -4.4741 1
    endloop
  endfacet
  facet normal 0 0 1
    outer loop
      vertex 9.56764 -2.05173 1
      vertex 8.94087 -3.98073 1
      vertex 10.049 -4.4741 1
    endloop
  endfacet
  facet normal 0 0 1
    outer loop
      vertex 8.94087 -3.98073 1
      vertex 8.93198 -3.99612 1
      vertex 10.049 -4.4741 1
    endloop
  endfacet
  facet normal 0 0 1
    outer loop
      vertex 3.04058 9.30076 1
      vertex 4.8935 8.47579 1
      vertex 5.5 9.52628 1
    endloop
  endfacet
  facet normal 0 0 1
    outer loop
      vertex 10.049 -4.4741 1
      vertex 7.91785 -5.75265 1
      vertex 8.89919 -6.46564 1
    endloop
  endfacet
  facet normal 0 0 1
    outer loop
      vertex 7.91785 -5.75265 1
      vertex 7.90596 -5.76586 1
      vertex 8.89919 -6.46564 1
    endloop
  endfacet
  facet normal 0 0 1
    outer loop
      vertex 4.90788 8.46535 1
      vertex 6.54878 7.27316 1
      vertex 7.36044 8.17459 1
    endloop
  endfacet
  facet normal 0 0 1
    outer loop
      vertex 8.89919 -6.46564 1
      vertex 6.54878 -7.27316 1
      vertex 7.36044 -8.17459 1
    endloop
  endfacet
  facet normal 0 0 1
    outer loop
      vertex 6.54878 -7.27316 1
      vertex 6.53441 -7.2836 1
      vertex 7.36044 -8.17459 1
    endloop
  endfacet
  facet normal 0 0 1
    outer loop
      vertex 6.56067 7.25995 1
      vertex 7.91785 5.75265 1
      vertex 8.89919 6.46564 1
    endloop
  endfacet
  facet normal 0 0 1
    outer loop
      vertex 7.36044 -8.17459 1
      vertex 4.8935 -8.47579 1
      vertex 5.5 -9.52628 1
    endloop
  endfacet
  facet normal 0 0 1
    outer loop
      vertex 4.8935 -8.47579 1
      vertex 4.87727 -8.48302 1
      vertex 5.5 -9.52628 1
    endloop
  endfacet
  facet normal 0 0 1
    outer loop
      vertex 7.92673 5.73726 1
      vertex 8.94087 3.98073 1
      vertex 10.049 4.4741 1
    endloop
  endfacet
  facet normal 0 0 1
    outer loop
      vertex 5.5 -9.52628 1
      vertex 3.02435 -9.30799 1
      vertex 3.39919 -10.4616 1
    endloop
  endfacet
  facet normal 0 0 1
    outer loop
      vertex 3.02435 -9.30799 1
      vertex 3.00697 -9.31168 1
      vertex 3.39919 -10.4616 1
    endloop
  endfacet
  facet normal 0 0 1
    outer loop
      vertex 8.94636 3.96383 1
      vertex 9.57313 2.03483 1
      vertex 10.7596 2.28703 1
    endloop
  endfacet
  facet normal 0 0 1
    outer loop
      vertex 3.39919 -10.4616 1
      vertex 1.02302 -9.73339 1
      vertex 1.14981 -10.9397 1
    endloop
  endfacet
  facet normal 0 0 1
    outer loop
      vertex 1.14981 -10.9397 1
      vertex -1.02302 -9.73339 1
      vertex -1.14981 -10.9397 1
    endloop
  endfacet
  facet normal 0 0 1
    outer loop
      vertex -1.02302 -9.73339 1
      vertex -1.0404 -9.72969 1
      vertex -1.14981 -10.9397 1
    endloop
  endfacet
  facet normal 0 0 1
    outer loop
      vertex -1.14981 -10.9397 1
      vertex -3.02435 -9.30799 1
      vertex -3.39919 -10.4616 1
    endloop
  endfacet
  facet normal 0 0 1
    outer loop
      vertex -3.02435 -9.30799 1
      vertex -3.04058 -9.30076 1
      vertex -3.39919 -10.4616 1
    endloop
  endfacet
  facet normal 0 0 1
    outer loop
      vertex -9.56764 2.05173 1
      vertex -8.94087 3.98073 1
      vertex -10.7596 2.28703 1
    endloop
  endfacet
  facet normal 0 0 1
    outer loop
      vertex -3.39919 -10.4616 1
      vertex -4.8935 -8.47579 1
      vertex -5.5 -9.52628 1
    endloop
  endfacet
  facet normal 0 0 1
    outer loop
      vertex -4.8935 -8.47579 1
      vertex -4.90788 -8.46535 1
      vertex -5.5 -9.52628 1
    endloop
  endfacet
  facet normal 0 0 1
    outer loop
      vertex -5.5 -9.52628 1
      vertex -6.54878 -7.27316 1
      vertex -7.36044 -8.17459 1
    endloop
  endfacet
  facet normal 0 0 1
    outer loop
      vertex -6.54878 -7.27316 1
      vertex -6.56067 -7.25995 1
      vertex -7.36044 -8.17459 1
    endloop
  endfacet
  facet normal 0 0 1
    outer loop
      vertex -6.56067 -7.25995 1
      vertex -7.91785 -5.75265 1
      vertex -7.36044 -8.17459 1
    endloop
  endfacet
  facet normal 0 0 1
    outer loop
      vertex -7.91785 -5.75265 1
      vertex -7.92673 -5.73726 1
      vertex -7.36044 -8.17459 1
    endloop
  endfacet
  facet normal 0 0 1
    outer loop
      vertex -7.36044 -8.17459 1
      vertex -8.94087 -3.98073 1
      vertex -8.89919 -6.46564 1
    endloop
  endfacet
  facet normal 0 0 1
    outer loop
      vertex -8.94087 -3.98073 1
      vertex -8.94636 -3.96383 1
      vertex -8.89919 -6.46564 1
    endloop
  endfacet
  facet normal 0 0 1
    outer loop
      vertex -8.94636 -3.96383 1
      vertex -9.57313 -2.03483 1
      vertex -8.89919 -6.46564 1
    endloop
  endfacet
  facet normal 0 0 1
    outer loop
      vertex -9.57499 -2.01716 1
      vertex -10.7596 2.28703 1
      vertex -9.57313 -2.03483 1
    endloop
  endfacet
  facet normal 0 0 1
    outer loop
      vertex -9.57499 -2.01716 1
      vertex -9.787 0 1
      vertex -10.7596 2.28703 1
    endloop
  endfacet
  facet normal 0 0 1
    outer loop
      vertex 7.90596 -5.76586 1
      vertex 6.54878 -7.27316 1
      vertex 8.89919 -6.46564 1
    endloop
  endfacet
  facet normal 0 0 1
    outer loop
      vertex 6.53441 -7.2836 1
      vertex 4.8935 -8.47579 1
      vertex 7.36044 -8.17459 1
    endloop
  endfacet
  facet normal 0 0 1
    outer loop
      vertex 4.87727 -8.48302 1
      vertex 3.02435 -9.30799 1
      vertex 5.5 -9.52628 1
    endloop
  endfacet
  facet normal 0 0 1
    outer loop
      vertex 3.00697 -9.31168 1
      vertex 1.02302 -9.73339 1
      vertex 3.39919 -10.4616 1
    endloop
  endfacet
  facet normal 0 0 1
    outer loop
      vertex 1.02302 -9.73339 1
      vertex -1.02302 -9.73339 1
      vertex 1.14981 -10.9397 1
    endloop
  endfacet
  facet normal 0 0 1
    outer loop
      vertex -1.0404 -9.72969 1
      vertex -3.02435 -9.30799 1
      vertex -1.14981 -10.9397 1
    endloop
  endfacet
  facet normal 0 0 1
    outer loop
      vertex -3.04058 -9.30076 1
      vertex -4.8935 -8.47579 1
      vertex -3.39919 -10.4616 1
    endloop
  endfacet
  facet normal 0 0 1
    outer loop
      vertex -9.78514 0.0176725 1
      vertex -9.57313 2.03483 1
      vertex -10.7596 2.28703 1
    endloop
  endfacet
  facet normal -0.986313 -0.103666 0.128221
    outer loop
      vertex -8.5 0 10.9
      vertex -9.787 0 1
      vertex -9.57499 -2.01716 1
    endloop
  endfacet
  facet normal -0.986313 0.103665 0.128221
    outer loop
      vertex -9.787 0 1
      vertex -8.5 0 10.9
      vertex -9.78514 0.0176725 1
    endloop
  endfacet
  facet normal -0.986313 0.103665 0.128221
    outer loop
      vertex -9.78514 0.0176725 1
      vertex -8.5 0 10.9
      vertex -8.31425 1.76725 10.9
    endloop
  endfacet
  facet normal -0.986313 -0.103665 0.128221
    outer loop
      vertex -9.57499 -2.01716 1
      vertex -9.57313 -2.03483 1
      vertex -8.5 0 10.9
    endloop
  endfacet
  facet normal -0.986313 -0.103665 0.128221
    outer loop
      vertex -8.5 0 10.9
      vertex -9.57313 -2.03483 1
      vertex -8.31425 -1.76725 10.9
    endloop
  endfacet
  facet normal -0.943206 -0.306466 0.128221
    outer loop
      vertex -8.31425 -1.76725 10.9
      vertex -9.57313 -2.03483 1
      vertex -8.94636 -3.96383 1
    endloop
  endfacet
  facet normal -0.943206 -0.306467 0.128221
    outer loop
      vertex -8.94636 -3.96383 1
      vertex -8.94087 -3.98073 1
      vertex -8.31425 -1.76725 10.9
    endloop
  endfacet
  facet normal -0.943206 -0.306467 0.128221
    outer loop
      vertex -8.31425 -1.76725 10.9
      vertex -8.94087 -3.98073 1
      vertex -7.76514 -3.45726 10.9
    endloop
  endfacet
  facet normal -0.858877 -0.495873 0.128221
    outer loop
      vertex -7.76514 -3.45726 10.9
      vertex -8.94087 -3.98073 1
      vertex -7.92673 -5.73726 1
    endloop
  endfacet
  facet normal -0.858877 -0.495873 0.128221
    outer loop
      vertex -7.92673 -5.73726 1
      vertex -7.91785 -5.75265 1
      vertex -7.76514 -3.45726 10.9
    endloop
  endfacet
  facet normal -0.858877 -0.495873 0.128221
    outer loop
      vertex -7.76514 -3.45726 10.9
      vertex -7.91785 -5.75265 1
      vertex -6.87664 -4.99618 10.9
    endloop
  endfacet
  facet normal -0.737011 -0.663607 0.128221
    outer loop
      vertex -6.87664 -4.99618 10.9
      vertex -7.91785 -5.75265 1
      vertex -6.56067 -7.25995 1
    endloop
  endfacet
  facet normal -0.737011 -0.663607 0.128221
    outer loop
      vertex -6.87664 -4.99618 10.9
      vertex -6.56067 -7.25995 1
      vertex -5.68761 -6.31673 10.9
    endloop
  endfacet
  facet normal -0.737011 -0.663607 0.128221
    outer loop
      vertex -5.68761 -6.31673 10.9
      vertex -6.56067 -7.25995 1
      vertex -6.54878 -7.27316 1
    endloop
  endfacet
  facet normal -0.582934 -0.802339 0.128221
    outer loop
      vertex -5.68761 -6.31673 10.9
      vertex -6.54878 -7.27316 1
      vertex -4.90788 -8.46535 1
    endloop
  endfacet
  facet normal -0.582934 -0.802339 0.128221
    outer loop
      vertex -4.25 -7.36122 10.9
      vertex -5.68761 -6.31673 10.9
      vertex -4.90788 -8.46535 1
    endloop
  endfacet
  facet normal -0.582934 -0.802339 0.128221
    outer loop
      vertex -4.8935 -8.47579 1
      vertex -4.25 -7.36122 10.9
      vertex -4.90788 -8.46535 1
    endloop
  endfacet
  facet normal -0.403379 -0.906005 0.128221
    outer loop
      vertex -4.25 -7.36122 10.9
      vertex -4.8935 -8.47579 1
      vertex -3.04058 -9.30076 1
    endloop
  endfacet
  facet normal -0.403379 -0.906005 0.128221
    outer loop
      vertex -2.62664 -8.08398 10.9
      vertex -4.25 -7.36122 10.9
      vertex -3.04058 -9.30076 1
    endloop
  endfacet
  facet normal -0.403379 -0.906005 0.128221
    outer loop
      vertex -3.02435 -9.30799 1
      vertex -2.62664 -8.08398 10.9
      vertex -3.04058 -9.30076 1
    endloop
  endfacet
  facet normal -0.206196 -0.970074 0.128221
    outer loop
      vertex -2.62664 -8.08398 10.9
      vertex -3.02435 -9.30799 1
      vertex -1.0404 -9.72969 1
    endloop
  endfacet
  facet normal -0.206196 -0.970074 0.128221
    outer loop
      vertex -0.888492 -8.45344 10.9
      vertex -2.62664 -8.08398 10.9
      vertex -1.0404 -9.72969 1
    endloop
  endfacet
  facet normal -0.206196 -0.970074 0.128221
    outer loop
      vertex -1.02302 -9.73339 1
      vertex -0.888492 -8.45344 10.9
      vertex -1.0404 -9.72969 1
    endloop
  endfacet
  facet normal 0 -0.991746 0.128221
    outer loop
      vertex -0.888492 -8.45344 10.9
      vertex -1.02302 -9.73339 1
      vertex 1.02302 -9.73339 1
    endloop
  endfacet
  facet normal 0 -0.991746 0.128221
    outer loop
      vertex 0.888492 -8.45344 10.9
      vertex -0.888492 -8.45344 10.9
      vertex 1.02302 -9.73339 1
    endloop
  endfacet
  facet normal 0.206196 -0.970074 0.128221
    outer loop
      vertex 3.00697 -9.31168 1
      vertex 0.888492 -8.45344 10.9
      vertex 1.02302 -9.73339 1
    endloop
  endfacet
  facet normal 0.206196 -0.970074 0.128221
    outer loop
      vertex 2.62664 -8.08398 10.9
      vertex 0.888492 -8.45344 10.9
      vertex 3.00697 -9.31168 1
    endloop
  endfacet
  facet normal 0.206196 -0.970074 0.128221
    outer loop
      vertex 3.02435 -9.30799 1
      vertex 2.62664 -8.08398 10.9
      vertex 3.00697 -9.31168 1
    endloop
  endfacet
  facet normal 0.403379 -0.906005 0.128221
    outer loop
      vertex 4.87727 -8.48302 1
      vertex 2.62664 -8.08398 10.9
      vertex 3.02435 -9.30799 1
    endloop
  endfacet
  facet normal 0.403379 -0.906005 0.128221
    outer loop
      vertex 4.25 -7.36122 10.9
      vertex 2.62664 -8.08398 10.9
      vertex 4.87727 -8.48302 1
    endloop
  endfacet
  facet normal 0.403379 -0.906005 0.128221
    outer loop
      vertex 4.8935 -8.47579 1
      vertex 4.25 -7.36122 10.9
      vertex 4.87727 -8.48302 1
    endloop
  endfacet
  facet normal 0.582934 -0.802339 0.128221
    outer loop
      vertex 6.53441 -7.2836 1
      vertex 4.25 -7.36122 10.9
      vertex 4.8935 -8.47579 1
    endloop
  endfacet
  facet normal 0.582934 -0.802339 0.128221
    outer loop
      vertex 5.68761 -6.31673 10.9
      vertex 4.25 -7.36122 10.9
      vertex 6.53441 -7.2836 1
    endloop
  endfacet
  facet normal 0.582934 -0.802339 0.128221
    outer loop
      vertex 6.54878 -7.27316 1
      vertex 5.68761 -6.31673 10.9
      vertex 6.53441 -7.2836 1
    endloop
  endfacet
  facet normal 0.737011 -0.663607 0.128221
    outer loop
      vertex 7.90596 -5.76586 1
      vertex 5.68761 -6.31673 10.9
      vertex 6.54878 -7.27316 1
    endloop
  endfacet
  facet normal 0.737011 -0.663607 0.128221
    outer loop
      vertex 6.87664 -4.99618 10.9
      vertex 5.68761 -6.31673 10.9
      vertex 7.90596 -5.76586 1
    endloop
  endfacet
  facet normal 0.737011 -0.663607 0.128221
    outer loop
      vertex 7.91785 -5.75265 1
      vertex 6.87664 -4.99618 10.9
      vertex 7.90596 -5.76586 1
    endloop
  endfacet
  facet normal 0.858877 -0.495873 0.128221
    outer loop
      vertex 8.93198 -3.99612 1
      vertex 6.87664 -4.99618 10.9
      vertex 7.91785 -5.75265 1
    endloop
  endfacet
  facet normal 0.858877 -0.495873 0.128221
    outer loop
      vertex 7.76514 -3.45726 10.9
      vertex 6.87664 -4.99618 10.9
      vertex 8.93198 -3.99612 1
    endloop
  endfacet
  facet normal 0.858877 -0.495873 0.128221
    outer loop
      vertex 8.94087 -3.98073 1
      vertex 7.76514 -3.45726 10.9
      vertex 8.93198 -3.99612 1
    endloop
  endfacet
  facet normal 0.943206 -0.306466 0.128221
    outer loop
      vertex 9.56764 -2.05173 1
      vertex 7.76514 -3.45726 10.9
      vertex 8.94087 -3.98073 1
    endloop
  endfacet
  facet normal 0.943206 -0.306467 0.128221
    outer loop
      vertex 8.31425 -1.76725 10.9
      vertex 7.76514 -3.45726 10.9
      vertex 9.56764 -2.05173 1
    endloop
  endfacet
  facet normal 0.943206 -0.306467 0.128221
    outer loop
      vertex 9.57313 -2.03483 1
      vertex 8.31425 -1.76725 10.9
      vertex 9.56764 -2.05173 1
    endloop
  endfacet
  facet normal 0.986313 -0.103666 0.128221
    outer loop
      vertex 9.78514 -0.0176725 1
      vertex 8.31425 -1.76725 10.9
      vertex 9.57313 -2.03483 1
    endloop
  endfacet
  facet normal 0.986313 -0.103665 0.128221
    outer loop
      vertex 8.5 0 10.9
      vertex 8.31425 -1.76725 10.9
      vertex 9.78514 -0.0176725 1
    endloop
  endfacet
  facet normal 0.986313 -0.103665 0.128221
    outer loop
      vertex 9.787 0 1
      vertex 8.5 0 10.9
      vertex 9.78514 -0.0176725 1
    endloop
  endfacet
  facet normal 0.986313 0.103666 0.128221
    outer loop
      vertex 9.57499 2.01716 1
      vertex 8.5 0 10.9
      vertex 9.787 0 1
    endloop
  endfacet
  facet normal 0.986313 0.103665 0.128221
    outer loop
      vertex 9.57313 2.03483 1
      vertex 8.31425 1.76725 10.9
      vertex 8.5 0 10.9
    endloop
  endfacet
  facet normal 0.986313 0.103665 0.128221
    outer loop
      vertex 9.57499 2.01716 1
      vertex 9.57313 2.03483 1
      vertex 8.5 0 10.9
    endloop
  endfacet
  facet normal 0.943206 0.306466 0.128221
    outer loop
      vertex 8.94636 3.96383 1
      vertex 8.31425 1.76725 10.9
      vertex 9.57313 2.03483 1
    endloop
  endfacet
  facet normal 0.943206 0.306467 0.128221
    outer loop
      vertex 8.94087 3.98073 1
      vertex 7.76514 3.45726 10.9
      vertex 8.31425 1.76725 10.9
    endloop
  endfacet
  facet normal 0.943206 0.306467 0.128221
    outer loop
      vertex 8.94636 3.96383 1
      vertex 8.94087 3.98073 1
      vertex 8.31425 1.76725 10.9
    endloop
  endfacet
  facet normal 0.858877 0.495873 0.128221
    outer loop
      vertex 7.92673 5.73726 1
      vertex 7.76514 3.45726 10.9
      vertex 8.94087 3.98073 1
    endloop
  endfacet
  facet normal 0.858877 0.495873 0.128221
    outer loop
      vertex 7.91785 5.75265 1
      vertex 6.87664 4.99618 10.9
      vertex 7.76514 3.45726 10.9
    endloop
  endfacet
  facet normal 0.858877 0.495873 0.128221
    outer loop
      vertex 7.92673 5.73726 1
      vertex 7.91785 5.75265 1
      vertex 7.76514 3.45726 10.9
    endloop
  endfacet
  facet normal 0.737011 0.663607 0.128221
    outer loop
      vertex 7.91785 5.75265 1
      vertex 6.56067 7.25995 1
      vertex 6.87664 4.99618 10.9
    endloop
  endfacet
  facet normal 0.737011 0.663607 0.128221
    outer loop
      vertex 6.54878 7.27316 1
      vertex 5.68761 6.31673 10.9
      vertex 6.87664 4.99618 10.9
    endloop
  endfacet
  facet normal 0.737011 0.663607 0.128221
    outer loop
      vertex 6.56067 7.25995 1
      vertex 6.54878 7.27316 1
      vertex 6.87664 4.99618 10.9
    endloop
  endfacet
  facet normal 0.582934 0.802339 0.128221
    outer loop
      vertex 6.54878 7.27316 1
      vertex 4.90788 8.46535 1
      vertex 5.68761 6.31673 10.9
    endloop
  endfacet
  facet normal 0.582934 0.802339 0.128221
    outer loop
      vertex 4.25 7.36122 10.9
      vertex 5.68761 6.31673 10.9
      vertex 4.8935 8.47579 1
    endloop
  endfacet
  facet normal 0.582934 0.802339 0.128221
    outer loop
      vertex 4.8935 8.47579 1
      vertex 5.68761 6.31673 10.9
      vertex 4.90788 8.46535 1
    endloop
  endfacet
  facet normal 0.403379 0.906005 0.128221
    outer loop
      vertex 4.8935 8.47579 1
      vertex 3.04058 9.30076 1
      vertex 4.25 7.36122 10.9
    endloop
  endfacet
  facet normal 0.403379 0.906005 0.128221
    outer loop
      vertex 2.62664 8.08398 10.9
      vertex 4.25 7.36122 10.9
      vertex 3.02435 9.30799 1
    endloop
  endfacet
  facet normal 0.403379 0.906005 0.128221
    outer loop
      vertex 3.02435 9.30799 1
      vertex 4.25 7.36122 10.9
      vertex 3.04058 9.30076 1
    endloop
  endfacet
  facet normal 0.206196 0.970074 0.128221
    outer loop
      vertex 3.02435 9.30799 1
      vertex 1.0404 9.72969 1
      vertex 2.62664 8.08398 10.9
    endloop
  endfacet
  facet normal 0.206196 0.970074 0.128221
    outer loop
      vertex 0.888492 8.45344 10.9
      vertex 2.62664 8.08398 10.9
      vertex 1.02302 9.73339 1
    endloop
  endfacet
  facet normal 0.206196 0.970074 0.128221
    outer loop
      vertex 1.02302 9.73339 1
      vertex 2.62664 8.08398 10.9
      vertex 1.0404 9.72969 1
    endloop
  endfacet
  facet normal 0 0.991746 0.128221
    outer loop
      vertex -1.02302 9.73339 1
      vertex -0.888492 8.45344 10.9
      vertex 1.02302 9.73339 1
    endloop
  endfacet
  facet normal 0 0.991746 0.128221
    outer loop
      vertex 1.02302 9.73339 1
      vertex -0.888492 8.45344 10.9
      vertex 0.888492 8.45344 10.9
    endloop
  endfacet
  facet normal -0.206196 0.970074 0.128221
    outer loop
      vertex -1.02302 9.73339 1
      vertex -3.00697 9.31168 1
      vertex -0.888492 8.45344 10.9
    endloop
  endfacet
  facet normal -0.206196 0.970074 0.128221
    outer loop
      vertex -3.02435 9.30799 1
      vertex -2.62664 8.08398 10.9
      vertex -3.00697 9.31168 1
    endloop
  endfacet
  facet normal -0.206196 0.970074 0.128221
    outer loop
      vertex -3.00697 9.31168 1
      vertex -2.62664 8.08398 10.9
      vertex -0.888492 8.45344 10.9
    endloop
  endfacet
  facet normal -0.403379 0.906005 0.128221
    outer loop
      vertex -3.02435 9.30799 1
      vertex -4.87727 8.48302 1
      vertex -2.62664 8.08398 10.9
    endloop
  endfacet
  facet normal -0.403379 0.906005 0.128221
    outer loop
      vertex -4.8935 8.47579 1
      vertex -4.25 7.36122 10.9
      vertex -4.87727 8.48302 1
    endloop
  endfacet
  facet normal -0.403379 0.906005 0.128221
    outer loop
      vertex -4.87727 8.48302 1
      vertex -4.25 7.36122 10.9
      vertex -2.62664 8.08398 10.9
    endloop
  endfacet
  facet normal -0.582934 0.802339 0.128221
    outer loop
      vertex -4.8935 8.47579 1
      vertex -6.53441 7.2836 1
      vertex -4.25 7.36122 10.9
    endloop
  endfacet
  facet normal -0.582934 0.802339 0.128221
    outer loop
      vertex -6.54878 7.27316 1
      vertex -5.68761 6.31673 10.9
      vertex -6.53441 7.2836 1
    endloop
  endfacet
  facet normal -0.582934 0.802339 0.128221
    outer loop
      vertex -6.53441 7.2836 1
      vertex -5.68761 6.31673 10.9
      vertex -4.25 7.36122 10.9
    endloop
  endfacet
  facet normal -0.737011 0.663607 0.128221
    outer loop
      vertex -6.54878 7.27316 1
      vertex -7.90596 5.76586 1
      vertex -5.68761 6.31673 10.9
    endloop
  endfacet
  facet normal -0.737011 0.663607 0.128221
    outer loop
      vertex -7.91785 5.75265 1
      vertex -6.87664 4.99618 10.9
      vertex -7.90596 5.76586 1
    endloop
  endfacet
  facet normal -0.737011 0.663607 0.128221
    outer loop
      vertex -7.90596 5.76586 1
      vertex -6.87664 4.99618 10.9
      vertex -5.68761 6.31673 10.9
    endloop
  endfacet
  facet normal -0.858877 0.495873 0.128221
    outer loop
      vertex -7.91785 5.75265 1
      vertex -8.93198 3.99612 1
      vertex -6.87664 4.99618 10.9
    endloop
  endfacet
  facet normal -0.858877 0.495873 0.128221
    outer loop
      vertex -8.94087 3.98073 1
      vertex -7.76514 3.45726 10.9
      vertex -8.93198 3.99612 1
    endloop
  endfacet
  facet normal -0.858877 0.495873 0.128221
    outer loop
      vertex -8.93198 3.99612 1
      vertex -7.76514 3.45726 10.9
      vertex -6.87664 4.99618 10.9
    endloop
  endfacet
  facet normal -0.943206 0.306466 0.128221
    outer loop
      vertex -8.94087 3.98073 1
      vertex -9.56764 2.05173 1
      vertex -7.76514 3.45726 10.9
    endloop
  endfacet
  facet normal -0.943206 0.306467 0.128221
    outer loop
      vertex -9.57313 2.03483 1
      vertex -8.31425 1.76725 10.9
      vertex -9.56764 2.05173 1
    endloop
  endfacet
  facet normal -0.943206 0.306467 0.128221
    outer loop
      vertex -9.56764 2.05173 1
      vertex -8.31425 1.76725 10.9
      vertex -7.76514 3.45726 10.9
    endloop
  endfacet
  facet normal -0.986313 0.103666 0.128221
    outer loop
      vertex -9.57313 2.03483 1
      vertex -9.78514 0.0176725 1
      vertex -8.31425 1.76725 10.9
    endloop
  endfacet
  facet normal 0 0 1
    outer loop
      vertex -8.31425 1.76725 10.9
      vertex -8.5 0 10.9
      vertex -8.31425 -1.76725 10.9
    endloop
  endfacet
  facet normal 0 0 1
    outer loop
      vertex -6.87664 -4.99618 10.9
      vertex -8.31425 1.76725 10.9
      vertex -7.76514 -3.45726 10.9
    endloop
  endfacet
  facet normal 0 0 1
    outer loop
      vertex -7.76514 -3.45726 10.9
      vertex -8.31425 1.76725 10.9
      vertex -8.31425 -1.76725 10.9
    endloop
  endfacet
  facet normal 0 0 1
    outer loop
      vertex -5.68761 -6.31673 10.9
      vertex -8.31425 1.76725 10.9
      vertex -6.87664 -4.99618 10.9
    endloop
  endfacet
  facet normal 0 0 1
    outer loop
      vertex -6.61378 -2.40722 10.9
      vertex -8.31425 1.76725 10.9
      vertex -5.68761 -6.31673 10.9
    endloop
  endfacet
  facet normal 0 0 1
    outer loop
      vertex 6.84852 -1.62313 10.9
      vertex 6.30898 -3.10549 10.9
      vertex 7.76514 -3.45726 10.9
    endloop
  endfacet
  facet normal 0 0 1
    outer loop
      vertex 7.03824 0 10.9
      vertex 6.8551 -1.56683 10.9
      vertex 8.31425 -1.76725 10.9
    endloop
  endfacet
  facet normal 0 0 1
    outer loop
      vertex 5.3916 -4.52409 10.9
      vertex 4.24417 -5.60663 10.9
      vertex 5.68761 -6.31673 10.9
    endloop
  endfacet
  facet normal 0 0 1
    outer loop
      vertex -5.88036 3.86757 10.9
      vertex -4.86636 5.07601 10.9
      vertex -8.31425 1.76725 10.9
    endloop
  endfacet
  facet normal 0 0 1
    outer loop
      vertex -3.51912 6.09529 10.9
      vertex -2.07063 6.72011 10.9
      vertex -0.888492 8.45344 10.9
    endloop
  endfacet
  facet normal 0 0 1
    outer loop
      vertex -4.25 7.36122 10.9
      vertex -8.31425 1.76725 10.9
      vertex -2.62664 8.08398 10.9
    endloop
  endfacet
  facet normal 0 0 1
    outer loop
      vertex -5.68761 6.31673 10.9
      vertex -8.31425 1.76725 10.9
      vertex -4.25 7.36122 10.9
    endloop
  endfacet
  facet normal 0 0 1
    outer loop
      vertex -6.87664 4.99618 10.9
      vertex -8.31425 1.76725 10.9
      vertex -5.68761 6.31673 10.9
    endloop
  endfacet
  facet normal 0 0 1
    outer loop
      vertex -7.76514 3.45726 10.9
      vertex -8.31425 1.76725 10.9
      vertex -6.87664 4.99618 10.9
    endloop
  endfacet
  facet normal 0 0 1
    outer loop
      vertex -6.61378 -2.40722 10.9
      vertex -6.97757 -0.872242 10.9
      vertex -8.31425 1.76725 10.9
    endloop
  endfacet
  facet normal 0 0 1
    outer loop
      vertex 2.7877 -6.46262 10.9
      vertex 1.27648 -6.91505 10.9
      vertex 2.62664 -8.08398 10.9
    endloop
  endfacet
  facet normal 0 0 1
    outer loop
      vertex 4.20294 5.64553 10.9
      vertex 5.35037 4.56299 10.9
      vertex 6.87664 4.99618 10.9
    endloop
  endfacet
  facet normal 0 0 1
    outer loop
      vertex -6.61378 2.40722 10.9
      vertex -8.31425 1.76725 10.9
      vertex -6.62685 2.35207 10.9
    endloop
  endfacet
  facet normal 0 0 1
    outer loop
      vertex 2.7877 6.46262 10.9
      vertex 4.15386 5.67387 10.9
      vertex 5.68761 6.31673 10.9
    endloop
  endfacet
  facet normal 0 0 1
    outer loop
      vertex -0.409237 7.02633 10.9
      vertex 1.16559 6.9346 10.9
      vertex 2.62664 8.08398 10.9
    endloop
  endfacet
  facet normal 0 0 1
    outer loop
      vertex -5.88036 3.86757 10.9
      vertex -8.31425 1.76725 10.9
      vertex -5.9058 3.81692 10.9
    endloop
  endfacet
  facet normal 0 0 1
    outer loop
      vertex -2.01859 6.74256 10.9
      vertex -0.465057 7.01649 10.9
      vertex 0.888492 8.45344 10.9
    endloop
  endfacet
  facet normal 0 0 1
    outer loop
      vertex 1.22218 6.93131 10.9
      vertex 2.7334 6.47888 10.9
      vertex 4.25 7.36122 10.9
    endloop
  endfacet
  facet normal 0 0 1
    outer loop
      vertex -2.62664 8.08398 10.9
      vertex -8.31425 1.76725 10.9
      vertex -4.86636 5.07601 10.9
    endloop
  endfacet
  facet normal 0 0 1
    outer loop
      vertex -2.62664 8.08398 10.9
      vertex -4.82993 5.11943 10.9
      vertex -0.888492 8.45344 10.9
    endloop
  endfacet
  facet normal 0 0 1
    outer loop
      vertex -2.62664 8.08398 10.9
      vertex -4.86636 5.07601 10.9
      vertex -4.82993 5.11943 10.9
    endloop
  endfacet
  facet normal 0 0 1
    outer loop
      vertex -3.56458 6.06144 10.9
      vertex -3.51912 6.09529 10.9
      vertex -0.888492 8.45344 10.9
    endloop
  endfacet
  facet normal 0 0 1
    outer loop
      vertex -4.82993 5.11943 10.9
      vertex -3.56458 6.06144 10.9
      vertex -0.888492 8.45344 10.9
    endloop
  endfacet
  facet normal 0 0 1
    outer loop
      vertex -0.888492 8.45344 10.9
      vertex -2.07063 6.72011 10.9
      vertex 0.888492 8.45344 10.9
    endloop
  endfacet
  facet normal 0 0 1
    outer loop
      vertex -2.07063 6.72011 10.9
      vertex -2.01859 6.74256 10.9
      vertex 0.888492 8.45344 10.9
    endloop
  endfacet
  facet normal 0 0 1
    outer loop
      vertex 0.888492 8.45344 10.9
      vertex -0.465057 7.01649 10.9
      vertex 2.62664 8.08398 10.9
    endloop
  endfacet
  facet normal 0 0 1
    outer loop
      vertex -0.465057 7.01649 10.9
      vertex -0.409237 7.02633 10.9
      vertex 2.62664 8.08398 10.9
    endloop
  endfacet
  facet normal 0 0 1
    outer loop
      vertex 2.62664 8.08398 10.9
      vertex 1.16559 6.9346 10.9
      vertex 4.25 7.36122 10.9
    endloop
  endfacet
  facet normal 0 0 1
    outer loop
      vertex 1.16559 6.9346 10.9
      vertex 1.22218 6.93131 10.9
      vertex 4.25 7.36122 10.9
    endloop
  endfacet
  facet normal 0 0 1
    outer loop
      vertex 4.25 7.36122 10.9
      vertex 2.7334 6.47888 10.9
      vertex 5.68761 6.31673 10.9
    endloop
  endfacet
  facet normal 0 0 1
    outer loop
      vertex 2.7334 6.47888 10.9
      vertex 2.7877 6.46262 10.9
      vertex 5.68761 6.31673 10.9
    endloop
  endfacet
  facet normal 0 0 1
    outer loop
      vertex 5.68761 6.31673 10.9
      vertex 4.15386 5.67387 10.9
      vertex 6.87664 4.99618 10.9
    endloop
  endfacet
  facet normal 0 0 1
    outer loop
      vertex 4.15386 5.67387 10.9
      vertex 4.20294 5.64553 10.9
      vertex 6.87664 4.99618 10.9
    endloop
  endfacet
  facet normal 0 0 1
    outer loop
      vertex 6.87664 4.99618 10.9
      vertex 5.35037 4.56299 10.9
      vertex 7.76514 3.45726 10.9
    endloop
  endfacet
  facet normal 0 0 1
    outer loop
      vertex 5.35037 4.56299 10.9
      vertex 5.3916 4.52409 10.9
      vertex 7.76514 3.45726 10.9
    endloop
  endfacet
  facet normal 0 0 1
    outer loop
      vertex -4.82993 -5.11943 10.9
      vertex -5.84393 -3.91099 10.9
      vertex -4.25 -7.36122 10.9
    endloop
  endfacet
  facet normal 0 0 1
    outer loop
      vertex 7.76514 3.45726 10.9
      vertex 6.25845 3.20611 10.9
      vertex 8.31425 1.76725 10.9
    endloop
  endfacet
  facet normal 0 0 1
    outer loop
      vertex -6.61378 2.40722 10.9
      vertex -5.9058 3.81692 10.9
      vertex -8.31425 1.76725 10.9
    endloop
  endfacet
  facet normal 0 0 1
    outer loop
      vertex 6.25845 3.20611 10.9
      vertex 6.2896 3.15875 10.9
      vertex 8.31425 1.76725 10.9
    endloop
  endfacet
  facet normal 0 0 1
    outer loop
      vertex 8.31425 1.76725 10.9
      vertex 6.82913 1.67639 10.9
      vertex 8.5 0 10.9
    endloop
  endfacet
  facet normal 0 0 1
    outer loop
      vertex 6.82913 1.67639 10.9
      vertex 6.84852 1.62313 10.9
      vertex 8.5 0 10.9
    endloop
  endfacet
  facet normal 0 0 1
    outer loop
      vertex 8.5 0 10.9
      vertex 7.03166 0.0562974 10.9
      vertex 8.31425 -1.76725 10.9
    endloop
  endfacet
  facet normal 0 0 1
    outer loop
      vertex 7.03166 0.0562974 10.9
      vertex 7.03824 0 10.9
      vertex 8.31425 -1.76725 10.9
    endloop
  endfacet
  facet normal 0 0 1
    outer loop
      vertex 8.31425 -1.76725 10.9
      vertex 6.8551 -1.56683 10.9
      vertex 7.76514 -3.45726 10.9
    endloop
  endfacet
  facet normal 0 0 1
    outer loop
      vertex 6.8551 -1.56683 10.9
      vertex 6.84852 -1.62313 10.9
      vertex 7.76514 -3.45726 10.9
    endloop
  endfacet
  facet normal 0 0 1
    outer loop
      vertex 7.76514 -3.45726 10.9
      vertex 6.30898 -3.10549 10.9
      vertex 6.87664 -4.99618 10.9
    endloop
  endfacet
  facet normal 0 0 1
    outer loop
      vertex 6.30898 -3.10549 10.9
      vertex 6.2896 -3.15875 10.9
      vertex 6.87664 -4.99618 10.9
    endloop
  endfacet
  facet normal 0 0 1
    outer loop
      vertex 6.87664 -4.99618 10.9
      vertex 5.42275 -4.47673 10.9
      vertex 5.68761 -6.31673 10.9
    endloop
  endfacet
  facet normal 0 0 1
    outer loop
      vertex 5.42275 -4.47673 10.9
      vertex 5.3916 -4.52409 10.9
      vertex 5.68761 -6.31673 10.9
    endloop
  endfacet
  facet normal 0 0 1
    outer loop
      vertex 5.68761 -6.31673 10.9
      vertex 4.24417 -5.60663 10.9
      vertex 4.25 -7.36122 10.9
    endloop
  endfacet
  facet normal 0 0 1
    outer loop
      vertex 4.24417 -5.60663 10.9
      vertex 4.20294 -5.64553 10.9
      vertex 4.25 -7.36122 10.9
    endloop
  endfacet
  facet normal 0 0 1
    outer loop
      vertex 4.25 -7.36122 10.9
      vertex 2.83679 -6.43428 10.9
      vertex 2.62664 -8.08398 10.9
    endloop
  endfacet
  facet normal 0 0 1
    outer loop
      vertex 2.83679 -6.43428 10.9
      vertex 2.7877 -6.46262 10.9
      vertex 2.62664 -8.08398 10.9
    endloop
  endfacet
  facet normal 0 0 1
    outer loop
      vertex 5.3916 4.52409 10.9
      vertex 6.25845 3.20611 10.9
      vertex 7.76514 3.45726 10.9
    endloop
  endfacet
  facet normal 0 0 1
    outer loop
      vertex 2.62664 -8.08398 10.9
      vertex 1.27648 -6.91505 10.9
      vertex 0.888492 -8.45344 10.9
    endloop
  endfacet
  facet normal 0 0 1
    outer loop
      vertex 1.27648 -6.91505 10.9
      vertex 1.22218 -6.93131 10.9
      vertex 0.888492 -8.45344 10.9
    endloop
  endfacet
  facet normal 0 0 1
    outer loop
      vertex 6.2896 3.15875 10.9
      vertex 6.82913 1.67639 10.9
      vertex 8.31425 1.76725 10.9
    endloop
  endfacet
  facet normal 0 0 1
    outer loop
      vertex 1.22218 -6.93131 10.9
      vertex -0.352652 -7.02303 10.9
      vertex 0.888492 -8.45344 10.9
    endloop
  endfacet
  facet normal 0 0 1
    outer loop
      vertex 0.888492 -8.45344 10.9
      vertex -0.409237 -7.02633 10.9
      vertex -0.888492 -8.45344 10.9
    endloop
  endfacet
  facet normal 0 0 1
    outer loop
      vertex 6.84852 1.62313 10.9
      vertex 7.03166 0.0562974 10.9
      vertex 8.5 0 10.9
    endloop
  endfacet
  facet normal 0 0 1
    outer loop
      vertex -0.409237 -7.02633 10.9
      vertex -1.96277 -6.7524 10.9
      vertex -0.888492 -8.45344 10.9
    endloop
  endfacet
  facet normal 0 0 1
    outer loop
      vertex -1.96277 -6.7524 10.9
      vertex -2.01859 -6.74256 10.9
      vertex -0.888492 -8.45344 10.9
    endloop
  endfacet
  facet normal 0 0 1
    outer loop
      vertex -0.888492 -8.45344 10.9
      vertex -3.46707 -6.11774 10.9
      vertex -2.62664 -8.08398 10.9
    endloop
  endfacet
  facet normal 0 0 1
    outer loop
      vertex -3.46707 -6.11774 10.9
      vertex -3.51912 -6.09529 10.9
      vertex -2.62664 -8.08398 10.9
    endloop
  endfacet
  facet normal 0 0 1
    outer loop
      vertex -2.62664 -8.08398 10.9
      vertex -4.78446 -5.15327 10.9
      vertex -4.25 -7.36122 10.9
    endloop
  endfacet
  facet normal 0 0 1
    outer loop
      vertex -4.78446 -5.15327 10.9
      vertex -4.82993 -5.11943 10.9
      vertex -4.25 -7.36122 10.9
    endloop
  endfacet
  facet normal 0 0 1
    outer loop
      vertex -4.25 -7.36122 10.9
      vertex -5.84393 -3.91099 10.9
      vertex -5.68761 -6.31673 10.9
    endloop
  endfacet
  facet normal 0 0 1
    outer loop
      vertex -5.84393 -3.91099 10.9
      vertex -5.88036 -3.86757 10.9
      vertex -5.68761 -6.31673 10.9
    endloop
  endfacet
  facet normal 0 0 1
    outer loop
      vertex -5.88036 -3.86757 10.9
      vertex -6.58834 -2.45787 10.9
      vertex -5.68761 -6.31673 10.9
    endloop
  endfacet
  facet normal 0 0 1
    outer loop
      vertex -6.58834 -2.45787 10.9
      vertex -6.61378 -2.40722 10.9
      vertex -5.68761 -6.31673 10.9
    endloop
  endfacet
  facet normal 0 0 1
    outer loop
      vertex -6.99065 -0.817089 10.9
      vertex -8.31425 1.76725 10.9
      vertex -6.97757 -0.872242 10.9
    endloop
  endfacet
  facet normal 0 0 1
    outer loop
      vertex -0.352652 -7.02303 10.9
      vertex -0.409237 -7.02633 10.9
      vertex 0.888492 -8.45344 10.9
    endloop
  endfacet
  facet normal 0 0 1
    outer loop
      vertex -2.01859 -6.74256 10.9
      vertex -3.46707 -6.11774 10.9
      vertex -0.888492 -8.45344 10.9
    endloop
  endfacet
  facet normal 0 0 1
    outer loop
      vertex -6.99065 -0.817089 10.9
      vertex -6.99065 0.817089 10.9
      vertex -8.31425 1.76725 10.9
    endloop
  endfacet
  facet normal 0 0 1
    outer loop
      vertex 6.2896 -3.15875 10.9
      vertex 5.42275 -4.47673 10.9
      vertex 6.87664 -4.99618 10.9
    endloop
  endfacet
  facet normal 0 0 1
    outer loop
      vertex -3.51912 -6.09529 10.9
      vertex -4.78446 -5.15327 10.9
      vertex -2.62664 -8.08398 10.9
    endloop
  endfacet
  facet normal 0 0 1
    outer loop
      vertex 4.20294 -5.64553 10.9
      vertex 2.83679 -6.43428 10.9
      vertex 4.25 -7.36122 10.9
    endloop
  endfacet
  facet normal 0 0 1
    outer loop
      vertex -6.99065 0.817089 10.9
      vertex -6.62685 2.35207 10.9
      vertex -8.31425 1.76725 10.9
    endloop
  endfacet
  facet normal 0.992083 0 -0.125587
    outer loop
      vertex -8.24388 0.963571 1
      vertex -6.99065 0.817089 10.9
      vertex -6.99065 -0.817089 10.9
    endloop
  endfacet
  facet normal 0.992083 0 -0.125587
    outer loop
      vertex -8.24388 -0.963571 1
      vertex -8.24388 0.963571 1
      vertex -6.99065 -0.817089 10.9
    endloop
  endfacet
  facet normal 0.965341 0.22879 -0.125587
    outer loop
      vertex -6.99065 -0.817089 10.9
      vertex -6.97757 -0.872242 10.9
      vertex -7.79945 -2.83877 1
    endloop
  endfacet
  facet normal 0.965341 0.22879 -0.125587
    outer loop
      vertex -8.24388 -0.963571 1
      vertex -6.99065 -0.817089 10.9
      vertex -7.79945 -2.83877 1
    endloop
  endfacet
  facet normal 0.965341 0.22879 -0.125587
    outer loop
      vertex -6.97757 -0.872242 10.9
      vertex -6.61378 -2.40722 10.9
      vertex -7.79945 -2.83877 1
    endloop
  endfacet
  facet normal 0.886557 0.445246 -0.125587
    outer loop
      vertex -6.61378 -2.40722 10.9
      vertex -6.58834 -2.45787 10.9
      vertex -6.93455 -4.56093 1
    endloop
  endfacet
  facet normal 0.886557 0.445246 -0.125587
    outer loop
      vertex -7.79945 -2.83877 1
      vertex -6.61378 -2.40722 10.9
      vertex -6.93455 -4.56093 1
    endloop
  endfacet
  facet normal 0.886558 0.445246 -0.125587
    outer loop
      vertex -6.58834 -2.45787 10.9
      vertex -5.88036 -3.86757 10.9
      vertex -6.93455 -4.56093 1
    endloop
  endfacet
  facet normal 0.759979 0.637699 -0.125587
    outer loop
      vertex -5.88036 -3.86757 10.9
      vertex -5.84393 -3.91099 10.9
      vertex -5.69581 -6.0372 1
    endloop
  endfacet
  facet normal 0.759979 0.637699 -0.125587
    outer loop
      vertex -6.93455 -4.56093 1
      vertex -5.88036 -3.86757 10.9
      vertex -5.69581 -6.0372 1
    endloop
  endfacet
  facet normal 0.759979 0.637699 -0.125587
    outer loop
      vertex -4.82993 -5.11943 10.9
      vertex -5.69581 -6.0372 1
      vertex -5.84393 -3.91099 10.9
    endloop
  endfacet
  facet normal 0.592431 0.795772 -0.125587
    outer loop
      vertex -4.78446 -5.15327 10.9
      vertex -4.15 -7.18801 1
      vertex -4.82993 -5.11943 10.9
    endloop
  endfacet
  facet normal 0.592431 0.795772 -0.125587
    outer loop
      vertex -4.82993 -5.11943 10.9
      vertex -4.15 -7.18801 1
      vertex -5.69581 -6.0372 1
    endloop
  endfacet
  facet normal 0.592431 0.795772 -0.125587
    outer loop
      vertex -3.51912 -6.09529 10.9
      vertex -4.15 -7.18801 1
      vertex -4.78446 -5.15327 10.9
    endloop
  endfacet
  facet normal 0.392944 0.910946 -0.125587
    outer loop
      vertex -3.46707 -6.11774 10.9
      vertex -2.38047 -7.95131 1
      vertex -3.51912 -6.09529 10.9
    endloop
  endfacet
  facet normal 0.392944 0.910946 -0.125587
    outer loop
      vertex -3.51912 -6.09529 10.9
      vertex -2.38047 -7.95131 1
      vertex -4.15 -7.18801 1
    endloop
  endfacet
  facet normal 0.392944 0.910946 -0.125587
    outer loop
      vertex -2.01859 -6.74256 10.9
      vertex -2.38047 -7.95131 1
      vertex -3.46707 -6.11774 10.9
    endloop
  endfacet
  facet normal 0.172273 0.977011 -0.125587
    outer loop
      vertex -1.96277 -6.7524 10.9
      vertex -0.482602 -8.28596 1
      vertex -2.01859 -6.74256 10.9
    endloop
  endfacet
  facet normal 0.172273 0.977011 -0.125587
    outer loop
      vertex -2.01859 -6.74256 10.9
      vertex -0.482602 -8.28596 1
      vertex -2.38047 -7.95131 1
    endloop
  endfacet
  facet normal 0.172273 0.977011 -0.125587
    outer loop
      vertex -0.409237 -7.02633 10.9
      vertex -0.482602 -8.28596 1
      vertex -1.96277 -6.7524 10.9
    endloop
  endfacet
  facet normal -0.0576848 0.990404 -0.125587
    outer loop
      vertex -0.352652 -7.02303 10.9
      vertex 1.44128 -8.1739 1
      vertex -0.409237 -7.02633 10.9
    endloop
  endfacet
  facet normal -0.0576848 0.990404 -0.125587
    outer loop
      vertex -0.409237 -7.02633 10.9
      vertex 1.44128 -8.1739 1
      vertex -0.482602 -8.28596 1
    endloop
  endfacet
  facet normal -0.0576846 0.990404 -0.125587
    outer loop
      vertex 1.22218 -6.93131 10.9
      vertex 1.44128 -8.1739 1
      vertex -0.352652 -7.02303 10.9
    endloop
  endfacet
  facet normal -0.284532 0.950405 -0.125587
    outer loop
      vertex 3.28746 -7.62119 1
      vertex 1.44128 -8.1739 1
      vertex 1.27648 -6.91505 10.9
    endloop
  endfacet
  facet normal -0.284532 0.950405 -0.125587
    outer loop
      vertex 1.27648 -6.91505 10.9
      vertex 1.44128 -8.1739 1
      vertex 1.22218 -6.93131 10.9
    endloop
  endfacet
  facet normal -0.284532 0.950405 -0.125587
    outer loop
      vertex 2.7877 -6.46262 10.9
      vertex 3.28746 -7.62119 1
      vertex 1.27648 -6.91505 10.9
    endloop
  endfacet
  facet normal -0.496042 0.859169 -0.125587
    outer loop
      vertex 4.95642 -6.65762 1
      vertex 3.28746 -7.62119 1
      vertex 2.83679 -6.43428 10.9
    endloop
  endfacet
  facet normal -0.496042 0.859169 -0.125587
    outer loop
      vertex 2.83679 -6.43428 10.9
      vertex 3.28746 -7.62119 1
      vertex 2.7877 -6.46262 10.9
    endloop
  endfacet
  facet normal -0.496042 0.859169 -0.125587
    outer loop
      vertex 4.20294 -5.64553 10.9
      vertex 4.95642 -6.65762 1
      vertex 2.83679 -6.43428 10.9
    endloop
  endfacet
  facet normal -0.680808 0.721615 -0.125587
    outer loop
      vertex 6.35817 -5.33514 1
      vertex 4.95642 -6.65762 1
      vertex 4.24417 -5.60663 10.9
    endloop
  endfacet
  facet normal -0.680808 0.721615 -0.125587
    outer loop
      vertex 4.24417 -5.60663 10.9
      vertex 4.95642 -6.65762 1
      vertex 4.20294 -5.64553 10.9
    endloop
  endfacet
  facet normal -0.680808 0.721615 -0.125587
    outer loop
      vertex 5.3916 -4.52409 10.9
      vertex 6.35817 -5.33514 1
      vertex 4.24417 -5.60663 10.9
    endloop
  endfacet
  facet normal -0.828873 0.545158 -0.125587
    outer loop
      vertex 7.41715 -3.72503 1
      vertex 6.35817 -5.33514 1
      vertex 5.42275 -4.47673 10.9
    endloop
  endfacet
  facet normal -0.828873 0.545158 -0.125587
    outer loop
      vertex 5.42275 -4.47673 10.9
      vertex 6.35817 -5.33514 1
      vertex 5.3916 -4.52409 10.9
    endloop
  endfacet
  facet normal -0.828873 0.545158 -0.125587
    outer loop
      vertex 6.2896 -3.15875 10.9
      vertex 7.41715 -3.72503 1
      vertex 5.42275 -4.47673 10.9
    endloop
  endfacet
  facet normal -0.932253 0.339312 -0.125587
    outer loop
      vertex 8.07627 -1.91411 1
      vertex 7.41715 -3.72503 1
      vertex 6.30898 -3.10549 10.9
    endloop
  endfacet
  facet normal -0.932253 0.339312 -0.125587
    outer loop
      vertex 6.30898 -3.10549 10.9
      vertex 7.41715 -3.72503 1
      vertex 6.2896 -3.15875 10.9
    endloop
  endfacet
  facet normal -0.932253 0.339312 -0.125587
    outer loop
      vertex 6.84852 -1.62313 10.9
      vertex 8.07627 -1.91411 1
      vertex 6.30898 -3.10549 10.9
    endloop
  endfacet
  facet normal -0.985374 0.115174 -0.125587
    outer loop
      vertex 8.3 0 1
      vertex 8.07627 -1.91411 1
      vertex 6.8551 -1.56683 10.9
    endloop
  endfacet
  facet normal -0.985374 0.115174 -0.125587
    outer loop
      vertex 6.8551 -1.56683 10.9
      vertex 8.07627 -1.91411 1
      vertex 6.84852 -1.62313 10.9
    endloop
  endfacet
  facet normal -0.985375 0.115174 -0.125587
    outer loop
      vertex 7.03824 0 10.9
      vertex 8.3 0 1
      vertex 6.8551 -1.56683 10.9
    endloop
  endfacet
  facet normal -0.985374 -0.115174 -0.125587
    outer loop
      vertex 8.3 0 1
      vertex 7.03824 0 10.9
      vertex 8.07627 1.91411 1
    endloop
  endfacet
  facet normal -0.985374 -0.115174 -0.125587
    outer loop
      vertex 8.07627 1.91411 1
      vertex 7.03824 0 10.9
      vertex 7.03166 0.0562974 10.9
    endloop
  endfacet
  facet normal -0.985375 -0.115174 -0.125587
    outer loop
      vertex 8.07627 1.91411 1
      vertex 7.03166 0.0562974 10.9
      vertex 6.84852 1.62313 10.9
    endloop
  endfacet
  facet normal -0.932253 -0.339312 -0.125587
    outer loop
      vertex 8.07627 1.91411 1
      vertex 6.84852 1.62313 10.9
      vertex 7.41715 3.72503 1
    endloop
  endfacet
  facet normal -0.932253 -0.339312 -0.125587
    outer loop
      vertex 7.41715 3.72503 1
      vertex 6.84852 1.62313 10.9
      vertex 6.82913 1.67639 10.9
    endloop
  endfacet
  facet normal -0.932253 -0.339312 -0.125587
    outer loop
      vertex 7.41715 3.72503 1
      vertex 6.82913 1.67639 10.9
      vertex 6.2896 3.15875 10.9
    endloop
  endfacet
  facet normal -0.828873 -0.545158 -0.125587
    outer loop
      vertex 7.41715 3.72503 1
      vertex 6.2896 3.15875 10.9
      vertex 6.35817 5.33514 1
    endloop
  endfacet
  facet normal -0.828873 -0.545158 -0.125587
    outer loop
      vertex 6.35817 5.33514 1
      vertex 6.2896 3.15875 10.9
      vertex 6.25845 3.20611 10.9
    endloop
  endfacet
  facet normal -0.828873 -0.545158 -0.125587
    outer loop
      vertex 6.35817 5.33514 1
      vertex 6.25845 3.20611 10.9
      vertex 5.3916 4.52409 10.9
    endloop
  endfacet
  facet normal -0.680808 -0.721615 -0.125587
    outer loop
      vertex 6.35817 5.33514 1
      vertex 5.3916 4.52409 10.9
      vertex 5.35037 4.56299 10.9
    endloop
  endfacet
  facet normal -0.680808 -0.721615 -0.125587
    outer loop
      vertex 4.95642 6.65762 1
      vertex 6.35817 5.33514 1
      vertex 5.35037 4.56299 10.9
    endloop
  endfacet
  facet normal -0.680808 -0.721615 -0.125587
    outer loop
      vertex 4.95642 6.65762 1
      vertex 5.35037 4.56299 10.9
      vertex 4.20294 5.64553 10.9
    endloop
  endfacet
  facet normal -0.496042 -0.859169 -0.125587
    outer loop
      vertex 4.95642 6.65762 1
      vertex 4.20294 5.64553 10.9
      vertex 4.15386 5.67387 10.9
    endloop
  endfacet
  facet normal -0.496042 -0.859169 -0.125587
    outer loop
      vertex 3.28746 7.62119 1
      vertex 4.95642 6.65762 1
      vertex 4.15386 5.67387 10.9
    endloop
  endfacet
  facet normal -0.496042 -0.859169 -0.125587
    outer loop
      vertex 3.28746 7.62119 1
      vertex 4.15386 5.67387 10.9
      vertex 2.7877 6.46262 10.9
    endloop
  endfacet
  facet normal -0.284532 -0.950405 -0.125587
    outer loop
      vertex 3.28746 7.62119 1
      vertex 2.7877 6.46262 10.9
      vertex 2.7334 6.47888 10.9
    endloop
  endfacet
  facet normal -0.284532 -0.950405 -0.125587
    outer loop
      vertex 1.44128 8.1739 1
      vertex 3.28746 7.62119 1
      vertex 2.7334 6.47888 10.9
    endloop
  endfacet
  facet normal -0.284532 -0.950405 -0.125587
    outer loop
      vertex 1.44128 8.1739 1
      vertex 2.7334 6.47888 10.9
      vertex 1.22218 6.93131 10.9
    endloop
  endfacet
  facet normal -0.0576848 -0.990404 -0.125587
    outer loop
      vertex 1.44128 8.1739 1
      vertex 1.22218 6.93131 10.9
      vertex 1.16559 6.9346 10.9
    endloop
  endfacet
  facet normal -0.0576848 -0.990404 -0.125587
    outer loop
      vertex -0.482602 8.28596 1
      vertex 1.44128 8.1739 1
      vertex 1.16559 6.9346 10.9
    endloop
  endfacet
  facet normal -0.0576846 -0.990404 -0.125587
    outer loop
      vertex 1.16559 6.9346 10.9
      vertex -0.409237 7.02633 10.9
      vertex -0.482602 8.28596 1
    endloop
  endfacet
  facet normal 0.172273 -0.977011 -0.125587
    outer loop
      vertex -0.482602 8.28596 1
      vertex -0.409237 7.02633 10.9
      vertex -0.465057 7.01649 10.9
    endloop
  endfacet
  facet normal 0.172273 -0.977011 -0.125587
    outer loop
      vertex -2.38047 7.95131 1
      vertex -0.482602 8.28596 1
      vertex -0.465057 7.01649 10.9
    endloop
  endfacet
  facet normal 0.172273 -0.977011 -0.125587
    outer loop
      vertex -0.465057 7.01649 10.9
      vertex -2.01859 6.74256 10.9
      vertex -2.38047 7.95131 1
    endloop
  endfacet
  facet normal 0.392944 -0.910946 -0.125587
    outer loop
      vertex -2.38047 7.95131 1
      vertex -2.01859 6.74256 10.9
      vertex -2.07063 6.72011 10.9
    endloop
  endfacet
  facet normal 0.392944 -0.910946 -0.125587
    outer loop
      vertex -4.15 7.18801 1
      vertex -2.38047 7.95131 1
      vertex -2.07063 6.72011 10.9
    endloop
  endfacet
  facet normal 0.392944 -0.910946 -0.125587
    outer loop
      vertex -2.07063 6.72011 10.9
      vertex -3.51912 6.09529 10.9
      vertex -4.15 7.18801 1
    endloop
  endfacet
  facet normal 0.592431 -0.795772 -0.125587
    outer loop
      vertex -4.15 7.18801 1
      vertex -3.51912 6.09529 10.9
      vertex -3.56458 6.06144 10.9
    endloop
  endfacet
  facet normal 0.592431 -0.795772 -0.125587
    outer loop
      vertex -5.69581 6.0372 1
      vertex -4.15 7.18801 1
      vertex -3.56458 6.06144 10.9
    endloop
  endfacet
  facet normal 0.592431 -0.795772 -0.125587
    outer loop
      vertex -3.56458 6.06144 10.9
      vertex -4.82993 5.11943 10.9
      vertex -5.69581 6.0372 1
    endloop
  endfacet
  facet normal 0.759979 -0.637699 -0.125587
    outer loop
      vertex -5.69581 6.0372 1
      vertex -4.82993 5.11943 10.9
      vertex -4.86636 5.07601 10.9
    endloop
  endfacet
  facet normal 0.759979 -0.637699 -0.125587
    outer loop
      vertex -6.93455 4.56093 1
      vertex -5.69581 6.0372 1
      vertex -4.86636 5.07601 10.9
    endloop
  endfacet
  facet normal 0.759979 -0.637699 -0.125587
    outer loop
      vertex -4.86636 5.07601 10.9
      vertex -5.88036 3.86757 10.9
      vertex -6.93455 4.56093 1
    endloop
  endfacet
  facet normal 0.886557 -0.445246 -0.125587
    outer loop
      vertex -6.93455 4.56093 1
      vertex -5.88036 3.86757 10.9
      vertex -5.9058 3.81692 10.9
    endloop
  endfacet
  facet normal 0.886557 -0.445246 -0.125587
    outer loop
      vertex -7.79945 2.83877 1
      vertex -6.93455 4.56093 1
      vertex -5.9058 3.81692 10.9
    endloop
  endfacet
  facet normal 0.886558 -0.445245 -0.125587
    outer loop
      vertex -5.9058 3.81692 10.9
      vertex -6.61378 2.40722 10.9
      vertex -7.79945 2.83877 1
    endloop
  endfacet
  facet normal 0.965341 -0.22879 -0.125587
    outer loop
      vertex -7.79945 2.83877 1
      vertex -6.61378 2.40722 10.9
      vertex -6.62685 2.35207 10.9
    endloop
  endfacet
  facet normal 0.965341 -0.22879 -0.125587
    outer loop
      vertex -8.24388 0.963571 1
      vertex -7.79945 2.83877 1
      vertex -6.62685 2.35207 10.9
    endloop
  endfacet
  facet normal 0.965341 -0.22879 -0.125587
    outer loop
      vertex -6.62685 2.35207 10.9
      vertex -6.99065 0.817089 10.9
      vertex -8.24388 0.963571 1
    endloop
  endfacet
  facet normal 0 0 1
    outer loop
      vertex -7.79945 -2.83877 1
      vertex -6.93455 -4.56093 1
      vertex -5.69581 -6.0372 1
    endloop
  endfacet
  facet normal 0 0 1
    outer loop
      vertex -2.38047 -7.95131 1
      vertex -7.79945 -2.83877 1
      vertex -4.15 -7.18801 1
    endloop
  endfacet
  facet normal 0 0 1
    outer loop
      vertex -4.15 -7.18801 1
      vertex -7.79945 -2.83877 1
      vertex -5.69581 -6.0372 1
    endloop
  endfacet
  facet normal 0 0 1
    outer loop
      vertex -0.482602 -8.28596 1
      vertex -7.79945 -2.83877 1
      vertex -2.38047 -7.95131 1
    endloop
  endfacet
  facet normal 0 0 1
    outer loop
      vertex 1.44128 -8.1739 1
      vertex -7.79945 -2.83877 1
      vertex -0.482602 -8.28596 1
    endloop
  endfacet
  facet normal 0 0 1
    outer loop
      vertex 3.28746 -7.62119 1
      vertex -7.79945 -2.83877 1
      vertex 1.44128 -8.1739 1
    endloop
  endfacet
  facet normal 0 0 1
    outer loop
      vertex 4.95642 -6.65762 1
      vertex -7.79945 -2.83877 1
      vertex 3.28746 -7.62119 1
    endloop
  endfacet
  facet normal 0 0 1
    outer loop
      vertex 6.35817 -5.33514 1
      vertex -7.79945 -2.83877 1
      vertex 4.95642 -6.65762 1
    endloop
  endfacet
  facet normal 0 0 1
    outer loop
      vertex 7.41715 -3.72503 1
      vertex -7.79945 -2.83877 1
      vertex 6.35817 -5.33514 1
    endloop
  endfacet
  facet normal 0 0 1
    outer loop
      vertex 8.07627 -1.91411 1
      vertex -7.79945 -2.83877 1
      vertex 7.41715 -3.72503 1
    endloop
  endfacet
  facet normal 0 0 1
    outer loop
      vertex 8.3 0 1
      vertex -7.79945 -2.83877 1
      vertex 8.07627 -1.91411 1
    endloop
  endfacet
  facet normal 0 0 1
    outer loop
      vertex 8.07627 1.91411 1
      vertex -7.79945 -2.83877 1
      vertex 8.3 0 1
    endloop
  endfacet
  facet normal 0 0 1
    outer loop
      vertex 7.41715 3.72503 1
      vertex -7.79945 -2.83877 1
      vertex 8.07627 1.91411 1
    endloop
  endfacet
  facet normal 0 0 1
    outer loop
      vertex 6.35817 5.33514 1
      vertex -7.79945 -2.83877 1
      vertex 7.41715 3.72503 1
    endloop
  endfacet
  facet normal 0 0 1
    outer loop
      vertex 4.95642 6.65762 1
      vertex -7.79945 -2.83877 1
      vertex 6.35817 5.33514 1
    endloop
  endfacet
  facet normal 0 0 1
    outer loop
      vertex 3.28746 7.62119 1
      vertex -7.79945 -2.83877 1
      vertex 4.95642 6.65762 1
    endloop
  endfacet
  facet normal 0 0 1
    outer loop
      vertex 1.44128 8.1739 1
      vertex -7.79945 -2.83877 1
      vertex 3.28746 7.62119 1
    endloop
  endfacet
  facet normal 0 0 1
    outer loop
      vertex -0.482602 8.28596 1
      vertex -7.79945 -2.83877 1
      vertex 1.44128 8.1739 1
    endloop
  endfacet
  facet normal 0 0 1
    outer loop
      vertex -2.38047 7.95131 1
      vertex -7.79945 -2.83877 1
      vertex -0.482602 8.28596 1
    endloop
  endfacet
  facet normal 0 0 1
    outer loop
      vertex -4.15 7.18801 1
      vertex -7.79945 -2.83877 1
      vertex -2.38047 7.95131 1
    endloop
  endfacet
  facet normal 0 0 1
    outer loop
      vertex -5.69581 6.0372 1
      vertex -7.79945 -2.83877 1
      vertex -4.15 7.18801 1
    endloop
  endfacet
  facet normal 0 0 1
    outer loop
      vertex -6.93455 4.56093 1
      vertex -7.79945 -2.83877 1
      vertex -5.69581 6.0372 1
    endloop
  endfacet
  facet normal 0 0 1
    outer loop
      vertex -7.79945 2.83877 1
      vertex -7.79945 -2.83877 1
      vertex -6.93455 4.56093 1
    endloop
  endfacet
  facet normal 0 0 1
    outer loop
      vertex -8.24388 0.963571 1
      vertex -7.79945 -2.83877 1
      vertex -7.79945 2.83877 1
    endloop
  endfacet
  facet normal 0 0 1
    outer loop
      vertex -8.24388 -0.963571 1
      vertex -7.79945 -2.83877 1
      vertex -8.24388 0.963571 1
    endloop
  endfacet
endsolid OpenSCAD_Model
