solid OpenSCAD_Model
  facet normal 0 0 -1
    outer loop
      vertex 0 42.9516 0
      vertex 0 47.3 0
      vertex 21.6 42.9516 0
    endloop
  endfacet
  facet normal 0 0 -1
    outer loop
      vertex 3 48.8 0
      vertex 0 47.3 0
      vertex 3.6 51.3 0
    endloop
  endfacet
  facet normal 0 0 -1
    outer loop
      vertex 6.63523 49.9562 0
      vertex 3.6 51.3 0
      vertex 5.80999 51.3 0
    endloop
  endfacet
  facet normal 0 0 -1
    outer loop
      vertex 6 48.8 0
      vertex 9.84041 47.7157 0
      vertex 6 47.3 0
    endloop
  endfacet
  facet normal 0 0 -1
    outer loop
      vertex 11.7791 47.3168 0
      vertex 21.6 42.9516 0
      vertex 9.84041 47.7157 0
    endloop
  endfacet
  facet normal 0 0 -1
    outer loop
      vertex 6 48.8 0
      vertex 8.08233 48.6178 0
      vertex 9.84041 47.7157 0
    endloop
  endfacet
  facet normal 0 0 -1
    outer loop
      vertex 13.7545 47.4506 0
      vertex 21.6 42.9516 0
      vertex 11.7791 47.3168 0
    endloop
  endfacet
  facet normal 0 0 -1
    outer loop
      vertex 18.6 47.3 0
      vertex 21.6 42.9516 0
      vertex 15.6 47.3 0
    endloop
  endfacet
  facet normal 0 0 -1
    outer loop
      vertex 15.6 47.3 0
      vertex 13.7545 47.4506 0
      vertex 15.6 48.1001 0
    endloop
  endfacet
  facet normal 0 0 -1
    outer loop
      vertex 21.6 42.9516 0
      vertex 13.7545 47.4506 0
      vertex 15.6 47.3 0
    endloop
  endfacet
  facet normal 0 0 -1
    outer loop
      vertex 17.2379 49.238 0
      vertex 18.6 48.8 0
      vertex 16.6113 48.8 0
    endloop
  endfacet
  facet normal 0 0 -1
    outer loop
      vertex 18.6 47.3 0
      vertex 18.6 48.8 0
      vertex 21.6 42.9516 0
    endloop
  endfacet
  facet normal 0 0 -1
    outer loop
      vertex 3 47.3 0
      vertex 0 47.3 0
      vertex 3 48.8 0
    endloop
  endfacet
  facet normal 0 0 -1
    outer loop
      vertex 18.6 48.8 0
      vertex 17.2379 49.238 0
      vertex 18.4872 50.7586 0
    endloop
  endfacet
  facet normal 0 0 -1
    outer loop
      vertex 18.6 48.8 0
      vertex 18.4872 50.7586 0
      vertex 21.6 42.9516 0
    endloop
  endfacet
  facet normal 0 0 -1
    outer loop
      vertex 21.6 42.9516 0
      vertex 18.4872 50.7586 0
      vertex 21.6 47.3 0
    endloop
  endfacet
  facet normal 0 0 -1
    outer loop
      vertex 6 48.8 0
      vertex 3 48.8 0
      vertex 3.6 51.3 0
    endloop
  endfacet
  facet normal 0 0 -1
    outer loop
      vertex 21.6 42.9516 0
      vertex 0 47.3 0
      vertex 3 47.3 0
    endloop
  endfacet
  facet normal 0 0 -1
    outer loop
      vertex 21.6 42.9516 0
      vertex 3 47.3 0
      vertex 6 47.3 0
    endloop
  endfacet
  facet normal 0 0 -1
    outer loop
      vertex 21.6 42.9516 0
      vertex 6 47.3 0
      vertex 9.84041 47.7157 0
    endloop
  endfacet
  facet normal 0 0 -1
    outer loop
      vertex 8.08233 48.6178 0
      vertex 6 48.8 0
      vertex 3.6 51.3 0
    endloop
  endfacet
  facet normal 0 0 -1
    outer loop
      vertex 8.08233 48.6178 0
      vertex 3.6 51.3 0
      vertex 6.63523 49.9562 0
    endloop
  endfacet
  facet normal -1 0 0
    outer loop
      vertex 0 42.9516 0
      vertex 0 43.5706 0.383253
      vertex 0 47.3 0
    endloop
  endfacet
  facet normal -1 0 0
    outer loop
      vertex 0 47.3 0
      vertex 0 43.5706 0.383253
      vertex 0 44.7444 1.93759
    endloop
  endfacet
  facet normal -1 0 0
    outer loop
      vertex 0 44.7444 1.93759
      vertex 0 45.2774 3.81098
      vertex 0 47.3 0
    endloop
  endfacet
  facet normal -1 0 0
    outer loop
      vertex 0 45.2774 3.81098
      vertex 0 45.2774 14.411
      vertex 0 47.3 0
    endloop
  endfacet
  facet normal -1 0 0
    outer loop
      vertex 0 45.2774 14.411
      vertex 0 45.0977 16.3504
      vertex 0 47.3 0
    endloop
  endfacet
  facet normal -1 0 0
    outer loop
      vertex 0 45.0977 16.3504
      vertex 0 47.3 19.2
      vertex 0 47.3 0
    endloop
  endfacet
  facet normal -1 0 0
    outer loop
      vertex 0 44.2295 18.094
      vertex 0 43.0162 19.2
      vertex 0 47.3 19.2
    endloop
  endfacet
  facet normal -1 0 0
    outer loop
      vertex 0 44.2295 18.094
      vertex 0 47.3 19.2
      vertex 0 45.0977 16.3504
    endloop
  endfacet
  facet normal 0 -0.526432 0.850217
    outer loop
      vertex 21.6 42.9516 0
      vertex 21.6 43.5706 0.383253
      vertex 0 43.5706 0.383253
    endloop
  endfacet
  facet normal 0 -0.526432 0.850217
    outer loop
      vertex 0 42.9516 0
      vertex 21.6 42.9516 0
      vertex 0 43.5706 0.383253
    endloop
  endfacet
  facet normal 1 0 0
    outer loop
      vertex 21.6 43.5706 0.383253
      vertex 21.6 42.9516 0
      vertex 21.6 47.3 0
    endloop
  endfacet
  facet normal 1 0 0
    outer loop
      vertex 21.6 44.7444 1.93759
      vertex 21.6 43.5706 0.383253
      vertex 21.6 47.3 0
    endloop
  endfacet
  facet normal 1 0 0
    outer loop
      vertex 21.6 44.2295 18.094
      vertex 21.6 47.3 19.2
      vertex 21.6 43.0162 19.2
    endloop
  endfacet
  facet normal 1 0 0
    outer loop
      vertex 21.6 45.0977 16.3504
      vertex 21.6 47.3 19.2
      vertex 21.6 44.2295 18.094
    endloop
  endfacet
  facet normal 1 0 0
    outer loop
      vertex 21.6 45.2774 14.411
      vertex 21.6 47.3 19.2
      vertex 21.6 45.0977 16.3504
    endloop
  endfacet
  facet normal 1 0 0
    outer loop
      vertex 21.6 47.3 19.2
      vertex 21.6 45.2774 3.81098
      vertex 21.6 47.3 0
    endloop
  endfacet
  facet normal 1 0 0
    outer loop
      vertex 21.6 45.2774 3.81098
      vertex 21.6 44.7444 1.93759
      vertex 21.6 47.3 0
    endloop
  endfacet
  facet normal 1 0 0
    outer loop
      vertex 21.6 45.2774 14.411
      vertex 21.6 45.2774 3.81098
      vertex 21.6 47.3 19.2
    endloop
  endfacet
  facet normal 0.743294 0.668965 0
    outer loop
      vertex 18.4869 50.759 0.00433132
      vertex 18 51.3 5.15731
      vertex 18 51.3 19.2
    endloop
  endfacet
  facet normal 0.743294 0.668965 0
    outer loop
      vertex 21.6 47.3 0
      vertex 18.4869 50.759 0.00433132
      vertex 21.6 47.3 19.2
    endloop
  endfacet
  facet normal 0.743294 0.668965 0
    outer loop
      vertex 21.6 47.3 19.2
      vertex 18.4869 50.759 0.00433132
      vertex 18 51.3 19.2
    endloop
  endfacet
  facet normal 0.743294 0.668965 0
    outer loop
      vertex 18.4872 50.7586 0
      vertex 18.4869 50.759 0.00433132
      vertex 21.6 47.3 0
    endloop
  endfacet
  facet normal -0.768162 0.631088 -0.107958
    outer loop
      vertex 18.4869 50.759 0.00433132
      vertex 18.4872 50.7586 0
      vertex 15.7891 50.759 19.2
    endloop
  endfacet
  facet normal -0.768162 0.631088 -0.107958
    outer loop
      vertex 15.7891 50.759 19.2
      vertex 18.4872 50.7586 0
      vertex 17.2379 49.238 0
    endloop
  endfacet
  facet normal -0.768162 0.631088 -0.107958
    outer loop
      vertex 15.7891 50.759 19.2
      vertex 17.2379 49.238 0
      vertex 14.5395 49.238 19.2
    endloop
  endfacet
  facet normal -0.571068 0.81697 -0.0802584
    outer loop
      vertex 17.2379 49.238 0
      vertex 16.6113 48.8 0
      vertex 14.5395 49.238 19.2
    endloop
  endfacet
  facet normal -0.571068 0.81697 -0.0802584
    outer loop
      vertex 14.5395 49.238 19.2
      vertex 16.6113 48.8 0
      vertex 15.6 48.8 7.19605
    endloop
  endfacet
  facet normal -0.571068 0.81697 -0.0802584
    outer loop
      vertex 14.5395 49.238 19.2
      vertex 15.6 48.8 7.19605
      vertex 15.6 48.1072 0.144132
    endloop
  endfacet
  facet normal -0.571068 0.81697 -0.0802584
    outer loop
      vertex 14.5395 49.238 19.2
      vertex 15.6 48.1072 0.144132
      vertex 12.9219 48.1072 19.2
    endloop
  endfacet
  facet normal 0 -1 0
    outer loop
      vertex 16.6113 48.8 0
      vertex 18.6 48.8 0
      vertex 18.6 48.8 19.2
    endloop
  endfacet
  facet normal 0 -1 0
    outer loop
      vertex 15.6 48.8 7.19605
      vertex 16.6113 48.8 0
      vertex 15.6 48.8 19.2
    endloop
  endfacet
  facet normal 0 -1 0
    outer loop
      vertex 15.6 48.8 19.2
      vertex 16.6113 48.8 0
      vertex 18.6 48.8 19.2
    endloop
  endfacet
  facet normal -1 0 0
    outer loop
      vertex 18.6 48.8 19.2
      vertex 18.6 48.8 0
      vertex 18.6 47.3 19.2
    endloop
  endfacet
  facet normal -1 0 0
    outer loop
      vertex 18.6 47.3 19.2
      vertex 18.6 48.8 0
      vertex 18.6 47.3 0
    endloop
  endfacet
  facet normal 0 1 0
    outer loop
      vertex 18.6 47.3 19.2
      vertex 18.6 47.3 0
      vertex 15.6 47.3 19.2
    endloop
  endfacet
  facet normal 0 1 0
    outer loop
      vertex 15.6 47.3 19.2
      vertex 18.6 47.3 0
      vertex 15.6 47.3 0
    endloop
  endfacet
  facet normal 1 0 0
    outer loop
      vertex 15.6 48.1001 0
      vertex 15.6 48.1072 0.144132
      vertex 15.6 48.8 19.2
    endloop
  endfacet
  facet normal 1 0 0
    outer loop
      vertex 15.6 48.8 19.2
      vertex 15.6 48.1072 0.144132
      vertex 15.6 48.8 7.19605
    endloop
  endfacet
  facet normal 1 0 0
    outer loop
      vertex 15.6 48.1001 0
      vertex 15.6 48.8 19.2
      vertex 15.6 47.3 19.2
    endloop
  endfacet
  facet normal 1 0 0
    outer loop
      vertex 15.6 48.1001 0
      vertex 15.6 47.3 19.2
      vertex 15.6 47.3 0
    endloop
  endfacet
  facet normal -0.33162 0.942261 -0.0466062
    outer loop
      vertex 15.6 48.1072 0.144132
      vertex 15.6 48.1001 0
      vertex 12.9219 48.1072 19.2
    endloop
  endfacet
  facet normal -0.33162 0.942261 -0.0466062
    outer loop
      vertex 12.9219 48.1072 19.2
      vertex 15.6 48.1001 0
      vertex 13.7545 47.4506 0
    endloop
  endfacet
  facet normal -0.33162 0.942261 -0.0466062
    outer loop
      vertex 12.9219 48.1072 19.2
      vertex 13.7545 47.4506 0
      vertex 11.0561 47.4506 19.2
    endloop
  endfacet
  facet normal -0.0675785 0.997669 -0.00949753
    outer loop
      vertex 13.7545 47.4506 0
      vertex 11.7791 47.3168 0
      vertex 11.0561 47.4506 19.2
    endloop
  endfacet
  facet normal -0.0675785 0.997669 -0.00949753
    outer loop
      vertex 11.0561 47.4506 19.2
      vertex 11.7791 47.3168 0
      vertex 9.08068 47.3168 19.2
    endloop
  endfacet
  facet normal 0.201476 0.979084 0.0283156
    outer loop
      vertex 11.7791 47.3168 0
      vertex 9.84041 47.7157 0
      vertex 9.08068 47.3168 19.2
    endloop
  endfacet
  facet normal 0.201476 0.979084 0.0283156
    outer loop
      vertex 9.08068 47.3168 19.2
      vertex 9.84041 47.7157 0
      vertex 7.14202 47.7157 19.2
    endloop
  endfacet
  facet normal 0.455588 0.887885 0.0640287
    outer loop
      vertex 9.84041 47.7157 0
      vertex 8.08233 48.6178 0
      vertex 7.14202 47.7157 19.2
    endloop
  endfacet
  facet normal 0.455588 0.887885 0.0640287
    outer loop
      vertex 7.14202 47.7157 19.2
      vertex 8.08233 48.6178 0
      vertex 6 48.6178 14.8166
    endloop
  endfacet
  facet normal 0.455588 0.887885 0.0640287
    outer loop
      vertex 7.14202 47.7157 19.2
      vertex 6 48.6178 14.8166
      vertex 6 48.3017 19.2
    endloop
  endfacet
  facet normal 0.675911 0.730836 0.094993
    outer loop
      vertex 6 48.8 13.4149
      vertex 6 48.6178 14.8166
      vertex 8.08233 48.6178 0
    endloop
  endfacet
  facet normal 0.675911 0.730836 0.094993
    outer loop
      vertex 6 48.8 13.4149
      vertex 8.08233 48.6178 0
      vertex 6.63523 49.9562 0
    endloop
  endfacet
  facet normal 0.675911 0.730836 0.094993
    outer loop
      vertex 6 48.8 13.4149
      vertex 6.63523 49.9562 0
      vertex 5.18696 48.8 19.2
    endloop
  endfacet
  facet normal 0.675911 0.730836 0.094993
    outer loop
      vertex 6.63523 49.9562 0
      vertex 3.93684 49.9562 19.2
      vertex 5.18696 48.8 19.2
    endloop
  endfacet
  facet normal 0.846104 0.519584 0.118912
    outer loop
      vertex 3.93684 49.9562 19.2
      vertex 6.63523 49.9562 0
      vertex 5.80999 51.3 0
    endloop
  endfacet
  facet normal 0.846104 0.519584 0.118912
    outer loop
      vertex 3.30969 50.9774 19.2
      vertex 3.93684 49.9562 19.2
      vertex 3.6 51.3 15.7249
    endloop
  endfacet
  facet normal 0.846104 0.519584 0.118912
    outer loop
      vertex 3.6 51.3 15.7249
      vertex 3.93684 49.9562 19.2
      vertex 5.80999 51.3 0
    endloop
  endfacet
  facet normal 0 1 0
    outer loop
      vertex 5.80999 51.3 0
      vertex 3.6 51.3 0
      vertex 3.6 51.3 15.7249
    endloop
  endfacet
  facet normal -0.743294 0.668965 0
    outer loop
      vertex 0 47.3 0
      vertex 0 47.3 19.2
      vertex 3.6 51.3 0
    endloop
  endfacet
  facet normal -0.743294 0.668965 0
    outer loop
      vertex 3.6 51.3 0
      vertex 0 47.3 19.2
      vertex 3.30969 50.9774 19.2
    endloop
  endfacet
  facet normal -0.743294 0.668965 0
    outer loop
      vertex 3.6 51.3 0
      vertex 3.30969 50.9774 19.2
      vertex 3.6 51.3 15.7249
    endloop
  endfacet
  facet normal 1 0 0
    outer loop
      vertex 3 48.8 0
      vertex 3 48.8 19.2
      vertex 3 47.3 19.2
    endloop
  endfacet
  facet normal 1 0 0
    outer loop
      vertex 3 47.3 0
      vertex 3 48.8 0
      vertex 3 47.3 19.2
    endloop
  endfacet
  facet normal 0 -1 0
    outer loop
      vertex 6 48.8 0
      vertex 6 48.8 13.4149
      vertex 5.18696 48.8 19.2
    endloop
  endfacet
  facet normal 0 -1 0
    outer loop
      vertex 3 48.8 0
      vertex 6 48.8 0
      vertex 3 48.8 19.2
    endloop
  endfacet
  facet normal 0 -1 0
    outer loop
      vertex 3 48.8 19.2
      vertex 6 48.8 0
      vertex 5.18696 48.8 19.2
    endloop
  endfacet
  facet normal -1 0 0
    outer loop
      vertex 6 48.3017 19.2
      vertex 6 48.6178 14.8166
      vertex 6 47.3 19.2
    endloop
  endfacet
  facet normal -1 0 0
    outer loop
      vertex 6 47.3 19.2
      vertex 6 48.6178 14.8166
      vertex 6 48.8 13.4149
    endloop
  endfacet
  facet normal -1 0 0
    outer loop
      vertex 6 47.3 19.2
      vertex 6 48.8 13.4149
      vertex 6 48.8 0
    endloop
  endfacet
  facet normal -1 0 0
    outer loop
      vertex 6 47.3 19.2
      vertex 6 48.8 0
      vertex 6 47.3 0
    endloop
  endfacet
  facet normal 0 1 0
    outer loop
      vertex 6 47.3 19.2
      vertex 6 47.3 0
      vertex 3 47.3 19.2
    endloop
  endfacet
  facet normal 0 1 0
    outer loop
      vertex 3 47.3 19.2
      vertex 6 47.3 0
      vertex 3 47.3 0
    endloop
  endfacet
  facet normal 0 0 1
    outer loop
      vertex 0 47.3 19.2
      vertex 0 43.0162 19.2
      vertex 21.6 43.0162 19.2
    endloop
  endfacet
  facet normal 0 0 1
    outer loop
      vertex 6 47.3 19.2
      vertex 0 47.3 19.2
      vertex 21.6 47.3 19.2
    endloop
  endfacet
  facet normal 0 0 1
    outer loop
      vertex 21.6 47.3 19.2
      vertex 0 47.3 19.2
      vertex 21.6 43.0162 19.2
    endloop
  endfacet
  facet normal 0 0 1
    outer loop
      vertex 5.18696 48.8 19.2
      vertex 3.93684 49.9562 19.2
      vertex 3 48.8 19.2
    endloop
  endfacet
  facet normal 0 0 1
    outer loop
      vertex 18 51.3 19.2
      vertex 15.7891 50.759 19.2
      vertex 21.6 47.3 19.2
    endloop
  endfacet
  facet normal 0 0 1
    outer loop
      vertex 15.6 47.3 19.2
      vertex 15.6 48.8 19.2
      vertex 12.9219 48.1072 19.2
    endloop
  endfacet
  facet normal 0 0 1
    outer loop
      vertex 15.6 48.8 19.2
      vertex 18.6 48.8 19.2
      vertex 14.5395 49.238 19.2
    endloop
  endfacet
  facet normal 0 0 1
    outer loop
      vertex 7.14202 47.7157 19.2
      vertex 6 47.3 19.2
      vertex 9.08068 47.3168 19.2
    endloop
  endfacet
  facet normal 0 0 1
    outer loop
      vertex 15.6 47.3 19.2
      vertex 12.9219 48.1072 19.2
      vertex 11.0561 47.4506 19.2
    endloop
  endfacet
  facet normal 0 0 1
    outer loop
      vertex 15.6 47.3 19.2
      vertex 6 47.3 19.2
      vertex 21.6 47.3 19.2
    endloop
  endfacet
  facet normal 0 0 1
    outer loop
      vertex 3 47.3 19.2
      vertex 0 47.3 19.2
      vertex 6 47.3 19.2
    endloop
  endfacet
  facet normal 0 0 1
    outer loop
      vertex 3.93684 49.9562 19.2
      vertex 0 47.3 19.2
      vertex 3 48.8 19.2
    endloop
  endfacet
  facet normal 0 0 1
    outer loop
      vertex 3.30969 50.9774 19.2
      vertex 0 47.3 19.2
      vertex 3.93684 49.9562 19.2
    endloop
  endfacet
  facet normal 0 0 1
    outer loop
      vertex 18.6 47.3 19.2
      vertex 15.6 47.3 19.2
      vertex 21.6 47.3 19.2
    endloop
  endfacet
  facet normal 0 0 1
    outer loop
      vertex 9.08068 47.3168 19.2
      vertex 6 47.3 19.2
      vertex 15.6 47.3 19.2
    endloop
  endfacet
  facet normal 0 0 1
    outer loop
      vertex 18.6 48.8 19.2
      vertex 18.6 47.3 19.2
      vertex 21.6 47.3 19.2
    endloop
  endfacet
  facet normal 0 0 1
    outer loop
      vertex 14.5395 49.238 19.2
      vertex 12.9219 48.1072 19.2
      vertex 15.6 48.8 19.2
    endloop
  endfacet
  facet normal 0 0 1
    outer loop
      vertex 15.7891 50.759 19.2
      vertex 18.6 48.8 19.2
      vertex 21.6 47.3 19.2
    endloop
  endfacet
  facet normal 0 0 1
    outer loop
      vertex 15.7891 50.759 19.2
      vertex 14.5395 49.238 19.2
      vertex 18.6 48.8 19.2
    endloop
  endfacet
  facet normal 0 0 1
    outer loop
      vertex 15.6 47.3 19.2
      vertex 11.0561 47.4506 19.2
      vertex 9.08068 47.3168 19.2
    endloop
  endfacet
  facet normal 0 0 1
    outer loop
      vertex 16.0264 51.3 19.2
      vertex 15.7891 50.759 19.2
      vertex 18 51.3 19.2
    endloop
  endfacet
  facet normal 0 0 1
    outer loop
      vertex 6 48.3017 19.2
      vertex 6 47.3 19.2
      vertex 7.14202 47.7157 19.2
    endloop
  endfacet
  facet normal 0 0 1
    outer loop
      vertex 3 47.3 19.2
      vertex 3 48.8 19.2
      vertex 0 47.3 19.2
    endloop
  endfacet
  facet normal 0 -0.673696 -0.739009
    outer loop
      vertex 21.6 44.2295 18.094
      vertex 21.6 43.0162 19.2
      vertex 0 44.2295 18.094
    endloop
  endfacet
  facet normal 0 -0.673696 -0.739009
    outer loop
      vertex 0 44.2295 18.094
      vertex 21.6 43.0162 19.2
      vertex 0 43.0162 19.2
    endloop
  endfacet
  facet normal 0 -0.895163 -0.445738
    outer loop
      vertex 0 45.0977 16.3504
      vertex 21.6 45.0977 16.3504
      vertex 21.6 44.2295 18.094
    endloop
  endfacet
  facet normal 0 -0.895163 -0.445738
    outer loop
      vertex 0 44.2295 18.094
      vertex 0 45.0977 16.3504
      vertex 21.6 44.2295 18.094
    endloop
  endfacet
  facet normal 0 -0.995734 -0.0922683
    outer loop
      vertex 0 45.2774 14.411
      vertex 21.6 45.2774 14.411
      vertex 21.6 45.0977 16.3504
    endloop
  endfacet
  facet normal 0 -0.995734 -0.0922683
    outer loop
      vertex 0 45.0977 16.3504
      vertex 0 45.2774 14.411
      vertex 21.6 45.0977 16.3504
    endloop
  endfacet
  facet normal 0 -1 0
    outer loop
      vertex 21.6 45.2774 3.81098
      vertex 21.6 45.2774 14.411
      vertex 0 45.2774 14.411
    endloop
  endfacet
  facet normal 0 -1 0
    outer loop
      vertex 0 45.2774 3.81098
      vertex 21.6 45.2774 3.81098
      vertex 0 45.2774 14.411
    endloop
  endfacet
  facet normal 0 -0.961826 0.273663
    outer loop
      vertex 21.6 44.7444 1.93759
      vertex 21.6 45.2774 3.81098
      vertex 0 45.2774 3.81098
    endloop
  endfacet
  facet normal 0 -0.961826 0.273663
    outer loop
      vertex 0 44.7444 1.93759
      vertex 21.6 44.7444 1.93759
      vertex 0 45.2774 3.81098
    endloop
  endfacet
  facet normal 0 -0.798017 0.602634
    outer loop
      vertex 21.6 43.5706 0.383253
      vertex 21.6 44.7444 1.93759
      vertex 0 44.7444 1.93759
    endloop
  endfacet
  facet normal 0 -0.798017 0.602634
    outer loop
      vertex 0 43.5706 0.383253
      vertex 21.6 43.5706 0.383253
      vertex 0 44.7444 1.93759
    endloop
  endfacet
  facet normal -0.908285 0.398401 -0.127651
    outer loop
      vertex 18 51.3 5.15731
      vertex 18.4869 50.759 0.00433132
      vertex 16.0264 51.3 19.2
    endloop
  endfacet
  facet normal -0.908285 0.398401 -0.127651
    outer loop
      vertex 16.0264 51.3 19.2
      vertex 18.4869 50.759 0.00433132
      vertex 15.7891 50.759 19.2
    endloop
  endfacet
  facet normal 0 1 0
    outer loop
      vertex 18 51.3 5.15731
      vertex 16.0264 51.3 19.2
      vertex 18 51.3 19.2
    endloop
  endfacet
endsolid OpenSCAD_Model
