solid OpenSCAD_Model
  facet normal -5.10216e-08 -0.686104 0.727503
    outer loop
      vertex 9 16 30
      vertex 3.85895 6.67842 21.2089
      vertex 9 7.30433 21.7992
    endloop
  endfacet
  facet normal 7.21906e-07 -0.686105 0.727503
    outer loop
      vertex 9 16 30
      vertex 2.975 6.55891 21.0962
      vertex 3.85895 6.67842 21.2089
    endloop
  endfacet
  facet normal -2.31703e-06 -0.686104 0.727504
    outer loop
      vertex 9 16 30
      vertex 2.58997 6.54439 21.0825
      vertex 2.975 6.55891 21.0962
    endloop
  endfacet
  facet normal 2.27133e-07 -0.686104 0.727503
    outer loop
      vertex 9 16 30
      vertex -7.59874e-16 6.37442 20.9222
      vertex 2.58997 6.54439 21.0825
    endloop
  endfacet
  facet normal 0 -0.686104 0.727503
    outer loop
      vertex -9 16 30
      vertex -7.59874e-16 6.37442 20.9222
      vertex 9 16 30
    endloop
  endfacet
  facet normal -2.27133e-07 -0.686104 0.727503
    outer loop
      vertex -7.59874e-16 6.37442 20.9222
      vertex -9 16 30
      vertex -2.58997 6.54439 21.0825
    endloop
  endfacet
  facet normal 2.31703e-06 -0.686104 0.727504
    outer loop
      vertex -2.58997 6.54439 21.0825
      vertex -9 16 30
      vertex -2.975 6.55891 21.0962
    endloop
  endfacet
  facet normal -7.21906e-07 -0.686105 0.727503
    outer loop
      vertex -2.975 6.55891 21.0962
      vertex -9 16 30
      vertex -3.85895 6.67842 21.2089
    endloop
  endfacet
  facet normal 5.10216e-08 -0.686104 0.727503
    outer loop
      vertex -3.85895 6.67842 21.2089
      vertex -9 16 30
      vertex -9 7.30433 21.7992
    endloop
  endfacet
  facet normal 0 0.560439 -0.828196
    outer loop
      vertex -9 7.86818 11.9634
      vertex 9 16.05 17.5
      vertex 9 7.86818 11.9634
    endloop
  endfacet
  facet normal 0 0.560439 -0.828196
    outer loop
      vertex 9 16.05 17.5
      vertex -9 7.86818 11.9634
      vertex -9 16.05 17.5
    endloop
  endfacet
  facet normal 3.16022e-08 -0.183366 -0.983045
    outer loop
      vertex 2.975 5.46782 12.4111
      vertex 9 7.86818 11.9634
      vertex 9 6.61424 12.1973
    endloop
  endfacet
  facet normal 1.89129e-07 -0.183367 -0.983045
    outer loop
      vertex 0.723654 5.32717 12.4373
      vertex 9 7.86818 11.9634
      vertex 2.975 5.46782 12.4111
    endloop
  endfacet
  facet normal 0 -0.183367 -0.983045
    outer loop
      vertex -0.723654 5.32717 12.4373
      vertex 0.723654 5.32717 12.4373
      vertex 1.12119e-15 5.25606 12.4506
    endloop
  endfacet
  facet normal -0 -0.183366 -0.983045
    outer loop
      vertex 0.723654 5.32717 12.4373
      vertex -0.723654 5.32717 12.4373
      vertex 9 7.86818 11.9634
    endloop
  endfacet
  facet normal -1.89129e-07 -0.183367 -0.983045
    outer loop
      vertex -9 7.86818 11.9634
      vertex -0.723654 5.32717 12.4373
      vertex -2.975 5.46782 12.4111
    endloop
  endfacet
  facet normal -3.16022e-08 -0.183366 -0.983045
    outer loop
      vertex -9 7.86818 11.9634
      vertex -2.975 5.46782 12.4111
      vertex -9 6.61424 12.1973
    endloop
  endfacet
  facet normal 0 -0.183366 -0.983045
    outer loop
      vertex -0.723654 5.32717 12.4373
      vertex -9 7.86818 11.9634
      vertex 9 7.86818 11.9634
    endloop
  endfacet
  facet normal 1 0 0
    outer loop
      vertex 9 41.1 11.8
      vertex 9 37.8484 10.3
      vertex 9 41.1 10.3
    endloop
  endfacet
  facet normal 1 -0 0
    outer loop
      vertex 9 28 17.5
      vertex 9 37.8484 10.3
      vertex 9 29 19.5
    endloop
  endfacet
  facet normal 1 0 0
    outer loop
      vertex 9 29 19.5
      vertex 9 37.8484 10.3
      vertex 9 41.1 11.8
    endloop
  endfacet
  facet normal 1 0 0
    outer loop
      vertex 9 37.8484 4.825
      vertex 9 38.1 1.8
      vertex 9 40.9028 1.8
    endloop
  endfacet
  facet normal 1 0 0
    outer loop
      vertex 9 37.8484 10.3
      vertex 9 28 17.5
      vertex 9 37.8484 4.825
    endloop
  endfacet
  facet normal 1 0 0
    outer loop
      vertex 9 37.8484 4.825
      vertex 9 28 17.5
      vertex 9 38.1 1.8
    endloop
  endfacet
  facet normal 1 -0 0
    outer loop
      vertex 9 16 30
      vertex 9 29 19.5
      vertex 9 17 37
    endloop
  endfacet
  facet normal 1 0 -0
    outer loop
      vertex 9 16.05 17.5
      vertex 9 29 19.5
      vertex 9 16 30
    endloop
  endfacet
  facet normal 1 0 0
    outer loop
      vertex 9 16 30
      vertex 9 17 37
      vertex 9 16 37
    endloop
  endfacet
  facet normal 1 0 0
    outer loop
      vertex 9 29 19.5
      vertex 9 16.05 17.5
      vertex 9 28 17.5
    endloop
  endfacet
  facet normal 1 -0 0
    outer loop
      vertex 9 7.74411 20.9697
      vertex 9 16.05 17.5
      vertex 9 16 30
    endloop
  endfacet
  facet normal 1 0 0
    outer loop
      vertex 9 8.41085 16.5322
      vertex 9 16.05 17.5
      vertex 9 8.49533 17.1738
    endloop
  endfacet
  facet normal 1 0 0
    outer loop
      vertex 9 8.20008 15.2465
      vertex 9 16.05 17.5
      vertex 9 8.41085 16.5322
    endloop
  endfacet
  facet normal 1 -0 0
    outer loop
      vertex 9 8.20008 15.2465
      vertex 9 7.86818 11.9634
      vertex 9 16.05 17.5
    endloop
  endfacet
  facet normal 1 -0 0
    outer loop
      vertex 9 7.71785 14.0362
      vertex 9 7.86818 11.9634
      vertex 9 8.20008 15.2465
    endloop
  endfacet
  facet normal 1 -0 0
    outer loop
      vertex 9 7.47018 13.4383
      vertex 9 7.86818 11.9634
      vertex 9 7.71785 14.0362
    endloop
  endfacet
  facet normal 1 -0 0
    outer loop
      vertex 9 6.73905 12.3599
      vertex 9 7.86818 11.9634
      vertex 9 7.47018 13.4383
    endloop
  endfacet
  facet normal 1 0 0
    outer loop
      vertex 9 7.86818 11.9634
      vertex 9 6.73905 12.3599
      vertex 9 6.61424 12.1973
    endloop
  endfacet
  facet normal 1 0 0
    outer loop
      vertex 9 16.05 17.5
      vertex 9 8.4248 18.4747
      vertex 9 8.49533 17.1738
    endloop
  endfacet
  facet normal 1 0 0
    outer loop
      vertex 9 16.05 17.5
      vertex 9 8.34032 19.1164
      vertex 9 8.4248 18.4747
    endloop
  endfacet
  facet normal 1 0 0
    outer loop
      vertex 9 16.05 17.5
      vertex 9 7.99178 20.3717
      vertex 9 8.34032 19.1164
    endloop
  endfacet
  facet normal 1 0 0
    outer loop
      vertex 9 16.05 17.5
      vertex 9 7.74411 20.9697
      vertex 9 7.99178 20.3717
    endloop
  endfacet
  facet normal 1 0 -0
    outer loop
      vertex 9 7.74411 20.9697
      vertex 9 16 30
      vertex 9 7.30433 21.7992
    endloop
  endfacet
  facet normal -1 0 0
    outer loop
      vertex -9 8.4248 18.4747
      vertex -9 16.05 17.5
      vertex -9 8.49533 17.1738
    endloop
  endfacet
  facet normal -1 0 0
    outer loop
      vertex -9 16.05 17.5
      vertex -9 8.41085 16.5322
      vertex -9 8.49533 17.1738
    endloop
  endfacet
  facet normal -1 0 0
    outer loop
      vertex -9 16.05 17.5
      vertex -9 8.20008 15.2465
      vertex -9 8.41085 16.5322
    endloop
  endfacet
  facet normal -1 0 0
    outer loop
      vertex -9 7.86818 11.9634
      vertex -9 8.20008 15.2465
      vertex -9 16.05 17.5
    endloop
  endfacet
  facet normal -1 0 0
    outer loop
      vertex -9 7.86818 11.9634
      vertex -9 7.71785 14.0362
      vertex -9 8.20008 15.2465
    endloop
  endfacet
  facet normal -1 0 0
    outer loop
      vertex -9 7.86818 11.9634
      vertex -9 7.47018 13.4383
      vertex -9 7.71785 14.0362
    endloop
  endfacet
  facet normal -1 0 0
    outer loop
      vertex -9 7.86818 11.9634
      vertex -9 6.73905 12.3599
      vertex -9 7.47018 13.4383
    endloop
  endfacet
  facet normal -1 0 -0
    outer loop
      vertex -9 6.73905 12.3599
      vertex -9 7.86818 11.9634
      vertex -9 6.61424 12.1973
    endloop
  endfacet
  facet normal -1 0 0
    outer loop
      vertex -9 38.1 1.8
      vertex -9 37.8484 4.825
      vertex -9 40.9028 1.8
    endloop
  endfacet
  facet normal -1 0 0
    outer loop
      vertex -9 28 17.5
      vertex -9 37.8484 10.3
      vertex -9 37.8484 4.825
    endloop
  endfacet
  facet normal -1 0 0
    outer loop
      vertex -9 28 17.5
      vertex -9 37.8484 4.825
      vertex -9 38.1 1.8
    endloop
  endfacet
  facet normal -1 0 0
    outer loop
      vertex -9 37.8484 10.3
      vertex -9 28 17.5
      vertex -9 29 19.5
    endloop
  endfacet
  facet normal -1 0 0
    outer loop
      vertex -9 16.05 17.5
      vertex -9 29 19.5
      vertex -9 28 17.5
    endloop
  endfacet
  facet normal -1 -0 0
    outer loop
      vertex -9 29 19.5
      vertex -9 16.05 17.5
      vertex -9 16 30
    endloop
  endfacet
  facet normal -1 0 0
    outer loop
      vertex -9 29 19.5
      vertex -9 16 30
      vertex -9 17 37
    endloop
  endfacet
  facet normal -1 -0 0
    outer loop
      vertex -9 17 37
      vertex -9 16 30
      vertex -9 16 37
    endloop
  endfacet
  facet normal -1 0 0
    outer loop
      vertex -9 37.8484 10.3
      vertex -9 41.1 11.8
      vertex -9 41.1 10.3
    endloop
  endfacet
  facet normal -1 -0 0
    outer loop
      vertex -9 41.1 11.8
      vertex -9 37.8484 10.3
      vertex -9 29 19.5
    endloop
  endfacet
  facet normal -1 0 0
    outer loop
      vertex -9 8.34032 19.1164
      vertex -9 16.05 17.5
      vertex -9 8.4248 18.4747
    endloop
  endfacet
  facet normal -1 0 0
    outer loop
      vertex -9 7.99178 20.3717
      vertex -9 16.05 17.5
      vertex -9 8.34032 19.1164
    endloop
  endfacet
  facet normal -1 0 0
    outer loop
      vertex -9 7.74411 20.9697
      vertex -9 16.05 17.5
      vertex -9 7.99178 20.3717
    endloop
  endfacet
  facet normal -1 0 0
    outer loop
      vertex -9 16.05 17.5
      vertex -9 7.74411 20.9697
      vertex -9 16 30
    endloop
  endfacet
  facet normal -1 0 0
    outer loop
      vertex -9 16 30
      vertex -9 7.74411 20.9697
      vertex -9 7.30433 21.7992
    endloop
  endfacet
  facet normal -0 0 1
    outer loop
      vertex -9 17 37
      vertex 9 16 37
      vertex 9 17 37
    endloop
  endfacet
  facet normal 0 0 1
    outer loop
      vertex 9 16 37
      vertex -9 17 37
      vertex -9 16 37
    endloop
  endfacet
  facet normal 0 0 -1
    outer loop
      vertex -9 16.05 17.5
      vertex 9 28 17.5
      vertex 9 16.05 17.5
    endloop
  endfacet
  facet normal -0 0 -1
    outer loop
      vertex 9 28 17.5
      vertex -9 16.05 17.5
      vertex -9 28 17.5
    endloop
  endfacet
  facet normal 0 -1 0
    outer loop
      vertex -9 16 30
      vertex 9 16 37
      vertex -9 16 37
    endloop
  endfacet
  facet normal 0 -1 -0
    outer loop
      vertex 9 16 37
      vertex -9 16 30
      vertex 9 16 30
    endloop
  endfacet
  facet normal 0 0.824729 0.565528
    outer loop
      vertex 9 29 19.5
      vertex -9 17 37
      vertex 9 17 37
    endloop
  endfacet
  facet normal 0 0.824729 0.565528
    outer loop
      vertex -9 17 37
      vertex 9 29 19.5
      vertex -9 29 19.5
    endloop
  endfacet
  facet normal 0 1 -0
    outer loop
      vertex 9 41.1 10.3
      vertex -9 41.1 11.8
      vertex 9 41.1 11.8
    endloop
  endfacet
  facet normal 0 1 0
    outer loop
      vertex -9 41.1 11.8
      vertex 9 41.1 10.3
      vertex -9 41.1 10.3
    endloop
  endfacet
  facet normal 0 1 0
    outer loop
      vertex 4.28692 41.1 2.1144
      vertex -4.28692 41.1 2.1144
      vertex 0 41.1 2.325
    endloop
  endfacet
  facet normal 0 1 0
    outer loop
      vertex 7.67089 41.1 1.8
      vertex 4.28692 41.1 2.1144
      vertex 6.15571 41.1 2.02259
    endloop
  endfacet
  facet normal 0 1 0
    outer loop
      vertex 4.28692 41.1 2.1144
      vertex 7.67089 41.1 1.8
      vertex -4.28692 41.1 2.1144
    endloop
  endfacet
  facet normal 0 1 0
    outer loop
      vertex -7.67089 41.1 1.8
      vertex -4.28692 41.1 2.1144
      vertex 7.67089 41.1 1.8
    endloop
  endfacet
  facet normal 0 1 0
    outer loop
      vertex -4.28692 41.1 2.1144
      vertex -7.67089 41.1 1.8
      vertex -6.15571 41.1 2.02259
    endloop
  endfacet
  facet normal 0 0 -1
    outer loop
      vertex 9 38.1 1.8
      vertex 8.23306 41.0166 1.8
      vertex 9 40.9028 1.8
    endloop
  endfacet
  facet normal 0 0 -1
    outer loop
      vertex 9 38.1 1.8
      vertex 7.67089 41.1 1.8
      vertex 8.23306 41.0166 1.8
    endloop
  endfacet
  facet normal 0 0 -1
    outer loop
      vertex 9 38.1 1.8
      vertex -7.67089 41.1 1.8
      vertex 7.67089 41.1 1.8
    endloop
  endfacet
  facet normal 0 0 -1
    outer loop
      vertex -9 38.1 1.8
      vertex -7.67089 41.1 1.8
      vertex 9 38.1 1.8
    endloop
  endfacet
  facet normal 0 0 -1
    outer loop
      vertex -7.67089 41.1 1.8
      vertex -9 38.1 1.8
      vertex -8.23306 41.0166 1.8
    endloop
  endfacet
  facet normal 0 0 -1
    outer loop
      vertex -8.23306 41.0166 1.8
      vertex -9 38.1 1.8
      vertex -9 40.9028 1.8
    endloop
  endfacet
  facet normal -0 0.536876 0.843661
    outer loop
      vertex -9 41.1 11.8
      vertex 9 29 19.5
      vertex 9 41.1 11.8
    endloop
  endfacet
  facet normal 0 0.536876 0.843661
    outer loop
      vertex 9 29 19.5
      vertex -9 41.1 11.8
      vertex -9 29 19.5
    endloop
  endfacet
  facet normal 0 -0.841004 -0.541028
    outer loop
      vertex -9 38.1 1.8
      vertex 9 28 17.5
      vertex -9 28 17.5
    endloop
  endfacet
  facet normal 0 -0.841004 -0.541028
    outer loop
      vertex 9 28 17.5
      vertex -9 38.1 1.8
      vertex 9 38.1 1.8
    endloop
  endfacet
  facet normal 0.0540608 -0.92253 0.382121
    outer loop
      vertex 2.975 6.49519 13.75
      vertex 7.43109e-16 6.48792 14.1533
      vertex 7.46456e-16 6.48168 14.1383
    endloop
  endfacet
  facet normal 0.0540612 -0.922529 0.382124
    outer loop
      vertex 7.43109e-16 6.48792 14.1533
      vertex 2.975 6.49519 13.75
      vertex 2.975 7.24444 15.5589
    endloop
  endfacet
  facet normal 0.0484134 -0.922796 -0.382235
    outer loop
      vertex 2.975 7.24444 19.4411
      vertex 2.58997 6.54439 21.0825
      vertex -5.4523e-16 6.87531 19.9555
    endloop
  endfacet
  facet normal 0.0484141 -0.922797 -0.382232
    outer loop
      vertex 2.975 7.24444 19.4411
      vertex -5.4523e-16 6.87531 19.9555
      vertex -5.41883e-16 6.88155 19.9404
    endloop
  endfacet
  facet normal 0.0484146 -0.922796 -0.382235
    outer loop
      vertex 2.58997 6.54439 21.0825
      vertex 2.975 7.24444 19.4411
      vertex 2.975 6.55891 21.0962
    endloop
  endfacet
  facet normal 0.0787278 -0.814434 0.57489
    outer loop
      vertex 1.10409e-15 5.34477 12.5276
      vertex 2.975 6.49519 13.75
      vertex 7.46456e-16 6.48168 14.1383
    endloop
  endfacet
  facet normal 0.0811311 -0.939155 0.333775
    outer loop
      vertex 7.43109e-16 6.48792 14.1533
      vertex 2.975 7.24444 15.5589
      vertex 3.30631e-16 7.14812 16.011
    endloop
  endfacet
  facet normal 0.0849747 -0.975543 -0.20272
    outer loop
      vertex -1.13286e-16 7.28266 18.0102
      vertex 2.975 7.24444 19.4411
      vertex -5.41883e-16 6.88155 19.9404
    endloop
  endfacet
  facet normal 0.0864154 -0.884564 -0.458344
    outer loop
      vertex -5.4523e-16 6.87531 19.9555
      vertex 2.58997 6.54439 21.0825
      vertex -7.59874e-16 6.37442 20.9222
    endloop
  endfacet
  facet normal 0.0832132 -0.994209 0.068006
    outer loop
      vertex 3.27039e-16 7.15025 16.0271
      vertex 2.975 7.5 17.5
      vertex -1.09694e-16 7.28479 17.994
    endloop
  endfacet
  facet normal 0.0760039 -0.629262 0.773468
    outer loop
      vertex 1.12119e-15 5.25606 12.4506
      vertex 0.723654 5.32717 12.4373
      vertex 1.10696e-15 5.33484 12.5147
    endloop
  endfacet
  facet normal 0.056569 -0.792081 0.607789
    outer loop
      vertex 0.723654 5.32717 12.4373
      vertex 1.10409e-15 5.34477 12.5276
      vertex 1.10696e-15 5.33484 12.5147
    endloop
  endfacet
  facet normal 0.0565686 -0.792083 0.607786
    outer loop
      vertex 1.10409e-15 5.34477 12.5276
      vertex 0.723654 5.32717 12.4373
      vertex 2.975 6.49519 13.75
    endloop
  endfacet
  facet normal 0.0565684 -0.792083 0.607787
    outer loop
      vertex 2.975 6.49519 13.75
      vertex 0.723654 5.32717 12.4373
      vertex 2.975 5.46782 12.4111
    endloop
  endfacet
  facet normal 0.0499791 -0.990203 -0.130387
    outer loop
      vertex 2.975 7.5 17.5
      vertex -1.13286e-16 7.28266 18.0102
      vertex -1.09694e-16 7.28479 17.994
    endloop
  endfacet
  facet normal 0.0499833 -0.990206 -0.130363
    outer loop
      vertex -1.13286e-16 7.28266 18.0102
      vertex 2.975 7.5 17.5
      vertex 2.975 7.24444 19.4411
    endloop
  endfacet
  facet normal 0.0518718 -0.990105 0.130389
    outer loop
      vertex 2.975 7.24444 15.5589
      vertex 3.27039e-16 7.15025 16.0271
      vertex 3.30631e-16 7.14812 16.011
    endloop
  endfacet
  facet normal 0.0518659 -0.99011 0.130351
    outer loop
      vertex 3.27039e-16 7.15025 16.0271
      vertex 2.975 7.24444 15.5589
      vertex 2.975 7.5 17.5
    endloop
  endfacet
  facet normal 0.164274 -0.916356 0.36511
    outer loop
      vertex 9 7.71785 14.0362
      vertex 9 8.20008 15.2465
      vertex 2.975 7.24444 15.5589
    endloop
  endfacet
  facet normal 0.159288 -0.872232 -0.462428
    outer loop
      vertex 9 7.74411 20.9697
      vertex 9 7.30433 21.7992
      vertex 3.85895 6.67842 21.2089
    endloop
  endfacet
  facet normal 0.168413 -0.977284 0.128662
    outer loop
      vertex 2.975 7.5 17.5
      vertex 9 8.41085 16.5322
      vertex 9 8.49533 17.1738
    endloop
  endfacet
  facet normal 0.168413 -0.977284 0.128662
    outer loop
      vertex 9 8.41085 16.5322
      vertex 2.975 7.5 17.5
      vertex 2.975 7.24444 15.5589
    endloop
  endfacet
  facet normal 0.166931 -0.910916 0.377314
    outer loop
      vertex 2.975 6.49519 13.75
      vertex 9 7.71785 14.0362
      vertex 2.975 7.24444 15.5589
    endloop
  endfacet
  facet normal 0.166931 -0.910916 0.377314
    outer loop
      vertex 9 7.71785 14.0362
      vertex 2.975 6.49519 13.75
      vertex 9 7.47018 13.4383
    endloop
  endfacet
  facet normal 0.159941 -0.985679 -0.0534417
    outer loop
      vertex 9 8.49533 17.1738
      vertex 9 8.4248 18.4747
      vertex 2.975 7.5 17.5
    endloop
  endfacet
  facet normal 0.170752 -0.976885 -0.128609
    outer loop
      vertex 2.975 7.24444 19.4411
      vertex 9 8.4248 18.4747
      vertex 9 8.34032 19.1164
    endloop
  endfacet
  facet normal 0.170752 -0.976885 -0.12861
    outer loop
      vertex 9 8.4248 18.4747
      vertex 2.975 7.24444 19.4411
      vertex 2.975 7.5 17.5
    endloop
  endfacet
  facet normal 0.160855 -0.816911 0.553879
    outer loop
      vertex 9 6.73905 12.3599
      vertex 9 7.47018 13.4383
      vertex 2.975 6.49519 13.75
    endloop
  endfacet
  facet normal 0.17005 -0.781799 0.599895
    outer loop
      vertex 2.975 5.46782 12.4111
      vertex 9 6.73905 12.3599
      vertex 2.975 6.49519 13.75
    endloop
  endfacet
  facet normal 0.17005 -0.781798 0.599895
    outer loop
      vertex 9 6.73905 12.3599
      vertex 2.975 5.46782 12.4111
      vertex 9 6.61424 12.1973
    endloop
  endfacet
  facet normal 0.162712 -0.973676 0.159626
    outer loop
      vertex 9 8.20008 15.2465
      vertex 9 8.41085 16.5322
      vertex 2.975 7.24444 15.5589
    endloop
  endfacet
  facet normal 0.158798 -0.951324 -0.264134
    outer loop
      vertex 9 8.34032 19.1164
      vertex 9 7.99178 20.3717
      vertex 2.975 7.24444 19.4411
    endloop
  endfacet
  facet normal 0.171141 -0.910249 -0.377038
    outer loop
      vertex 2.975 7.24444 19.4411
      vertex 3.85895 6.67842 21.2089
      vertex 2.975 6.55891 21.0962
    endloop
  endfacet
  facet normal 0.171142 -0.910249 -0.377037
    outer loop
      vertex 3.85895 6.67842 21.2089
      vertex 9 7.99178 20.3717
      vertex 9 7.74411 20.9697
    endloop
  endfacet
  facet normal 0.171141 -0.910249 -0.377038
    outer loop
      vertex 3.85895 6.67842 21.2089
      vertex 2.975 7.24444 19.4411
      vertex 9 7.99178 20.3717
    endloop
  endfacet
  facet normal -0.0540612 -0.922529 0.382124
    outer loop
      vertex -2.975 6.49519 13.75
      vertex 7.43109e-16 6.48792 14.1533
      vertex -2.975 7.24444 15.5589
    endloop
  endfacet
  facet normal -0.0540608 -0.92253 0.382121
    outer loop
      vertex 7.43109e-16 6.48792 14.1533
      vertex -2.975 6.49519 13.75
      vertex 7.46456e-16 6.48168 14.1383
    endloop
  endfacet
  facet normal -0.0484146 -0.922796 -0.382234
    outer loop
      vertex -2.975 7.24444 19.4411
      vertex -2.58997 6.54439 21.0825
      vertex -2.975 6.55891 21.0962
    endloop
  endfacet
  facet normal -0.0484132 -0.922796 -0.382235
    outer loop
      vertex -2.58997 6.54439 21.0825
      vertex -2.975 7.24444 19.4411
      vertex -5.4523e-16 6.87531 19.9555
    endloop
  endfacet
  facet normal -0.0484139 -0.922797 -0.382232
    outer loop
      vertex -5.4523e-16 6.87531 19.9555
      vertex -2.975 7.24444 19.4411
      vertex -5.41883e-16 6.88155 19.9404
    endloop
  endfacet
  facet normal -0.0787278 -0.814434 0.57489
    outer loop
      vertex 7.46456e-16 6.48168 14.1383
      vertex -2.975 6.49519 13.75
      vertex 1.10409e-15 5.34477 12.5276
    endloop
  endfacet
  facet normal -0.0811311 -0.939155 0.333775
    outer loop
      vertex 3.30631e-16 7.14812 16.011
      vertex -2.975 7.24444 15.5589
      vertex 7.43109e-16 6.48792 14.1533
    endloop
  endfacet
  facet normal -0.0849746 -0.975543 -0.20272
    outer loop
      vertex -5.41883e-16 6.88155 19.9404
      vertex -2.975 7.24444 19.4411
      vertex -1.13286e-16 7.28266 18.0102
    endloop
  endfacet
  facet normal -0.0864154 -0.884564 -0.458344
    outer loop
      vertex -7.59874e-16 6.37442 20.9222
      vertex -2.58997 6.54439 21.0825
      vertex -5.4523e-16 6.87531 19.9555
    endloop
  endfacet
  facet normal -0.0832132 -0.994209 0.068006
    outer loop
      vertex -1.09694e-16 7.28479 17.994
      vertex -2.975 7.5 17.5
      vertex 3.27039e-16 7.15025 16.0271
    endloop
  endfacet
  facet normal -0.0760039 -0.629262 0.773468
    outer loop
      vertex 1.10696e-15 5.33484 12.5147
      vertex -0.723654 5.32717 12.4373
      vertex 1.12119e-15 5.25606 12.4506
    endloop
  endfacet
  facet normal -0.0565686 -0.792083 0.607786
    outer loop
      vertex -0.723654 5.32717 12.4373
      vertex 1.10409e-15 5.34477 12.5276
      vertex -2.975 6.49519 13.75
    endloop
  endfacet
  facet normal -0.056569 -0.792081 0.607789
    outer loop
      vertex 1.10409e-15 5.34477 12.5276
      vertex -0.723654 5.32717 12.4373
      vertex 1.10696e-15 5.33484 12.5147
    endloop
  endfacet
  facet normal -0.0565684 -0.792083 0.607787
    outer loop
      vertex -0.723654 5.32717 12.4373
      vertex -2.975 6.49519 13.75
      vertex -2.975 5.46782 12.4111
    endloop
  endfacet
  facet normal -0.0499833 -0.990206 -0.130364
    outer loop
      vertex -2.975 7.5 17.5
      vertex -1.13286e-16 7.28266 18.0102
      vertex -2.975 7.24444 19.4411
    endloop
  endfacet
  facet normal -0.0499791 -0.990203 -0.130387
    outer loop
      vertex -1.13286e-16 7.28266 18.0102
      vertex -2.975 7.5 17.5
      vertex -1.09694e-16 7.28479 17.994
    endloop
  endfacet
  facet normal -0.0518659 -0.99011 0.130351
    outer loop
      vertex -2.975 7.24444 15.5589
      vertex 3.27039e-16 7.15025 16.0271
      vertex -2.975 7.5 17.5
    endloop
  endfacet
  facet normal -0.0518718 -0.990105 0.130389
    outer loop
      vertex 3.27039e-16 7.15025 16.0271
      vertex -2.975 7.24444 15.5589
      vertex 3.30631e-16 7.14812 16.011
    endloop
  endfacet
  facet normal -0.164274 -0.916356 0.36511
    outer loop
      vertex -9 8.20008 15.2465
      vertex -9 7.71785 14.0362
      vertex -2.975 7.24444 15.5589
    endloop
  endfacet
  facet normal -0.159288 -0.872232 -0.462428
    outer loop
      vertex -3.85895 6.67842 21.2089
      vertex -9 7.30433 21.7992
      vertex -9 7.74411 20.9697
    endloop
  endfacet
  facet normal -0.168413 -0.977284 0.128662
    outer loop
      vertex -9 8.41085 16.5322
      vertex -2.975 7.5 17.5
      vertex -9 8.49533 17.1738
    endloop
  endfacet
  facet normal -0.168413 -0.977284 0.128662
    outer loop
      vertex -2.975 7.5 17.5
      vertex -9 8.41085 16.5322
      vertex -2.975 7.24444 15.5589
    endloop
  endfacet
  facet normal -0.166931 -0.910916 0.377314
    outer loop
      vertex -9 7.71785 14.0362
      vertex -2.975 6.49519 13.75
      vertex -2.975 7.24444 15.5589
    endloop
  endfacet
  facet normal -0.166931 -0.910916 0.377314
    outer loop
      vertex -2.975 6.49519 13.75
      vertex -9 7.71785 14.0362
      vertex -9 7.47018 13.4383
    endloop
  endfacet
  facet normal -0.159941 -0.985679 -0.0534417
    outer loop
      vertex -2.975 7.5 17.5
      vertex -9 8.4248 18.4747
      vertex -9 8.49533 17.1738
    endloop
  endfacet
  facet normal -0.170752 -0.976885 -0.128609
    outer loop
      vertex -9 8.4248 18.4747
      vertex -2.975 7.24444 19.4411
      vertex -9 8.34032 19.1164
    endloop
  endfacet
  facet normal -0.170752 -0.976885 -0.12861
    outer loop
      vertex -2.975 7.24444 19.4411
      vertex -9 8.4248 18.4747
      vertex -2.975 7.5 17.5
    endloop
  endfacet
  facet normal -0.160855 -0.816911 0.553879
    outer loop
      vertex -9 7.47018 13.4383
      vertex -9 6.73905 12.3599
      vertex -2.975 6.49519 13.75
    endloop
  endfacet
  facet normal -0.17005 -0.781799 0.599895
    outer loop
      vertex -9 6.73905 12.3599
      vertex -2.975 5.46782 12.4111
      vertex -2.975 6.49519 13.75
    endloop
  endfacet
  facet normal -0.17005 -0.781798 0.599895
    outer loop
      vertex -2.975 5.46782 12.4111
      vertex -9 6.73905 12.3599
      vertex -9 6.61424 12.1973
    endloop
  endfacet
  facet normal -0.162712 -0.973676 0.159626
    outer loop
      vertex -9 8.41085 16.5322
      vertex -9 8.20008 15.2465
      vertex -2.975 7.24444 15.5589
    endloop
  endfacet
  facet normal -0.158798 -0.951324 -0.264134
    outer loop
      vertex -2.975 7.24444 19.4411
      vertex -9 7.99178 20.3717
      vertex -9 8.34032 19.1164
    endloop
  endfacet
  facet normal -0.171142 -0.910249 -0.377037
    outer loop
      vertex -9 7.99178 20.3717
      vertex -3.85895 6.67842 21.2089
      vertex -9 7.74411 20.9697
    endloop
  endfacet
  facet normal -0.171142 -0.910249 -0.377038
    outer loop
      vertex -2.975 7.24444 19.4411
      vertex -3.85895 6.67842 21.2089
      vertex -9 7.99178 20.3717
    endloop
  endfacet
  facet normal -0.171141 -0.910249 -0.377037
    outer loop
      vertex -3.85895 6.67842 21.2089
      vertex -2.975 7.24444 19.4411
      vertex -2.975 6.55891 21.0962
    endloop
  endfacet
  facet normal 0.0490672 0.998795 -0
    outer loop
      vertex 5.88103 38.3111 4.825
      vertex 0 38.6 10.3
      vertex 5.88103 38.3111 10.3
    endloop
  endfacet
  facet normal 0.0490672 0.998795 0
    outer loop
      vertex 0 38.6 10.3
      vertex 5.88103 38.3111 4.825
      vertex 0 38.6 4.825
    endloop
  endfacet
  facet normal -0.0490672 0.998795 0
    outer loop
      vertex 0 38.6 4.825
      vertex -5.88103 38.3111 10.3
      vertex 0 38.6 10.3
    endloop
  endfacet
  facet normal -0.0490672 0.998795 0
    outer loop
      vertex -5.88103 38.3111 10.3
      vertex 0 38.6 4.825
      vertex -5.88103 38.3111 4.825
    endloop
  endfacet
  facet normal 0.146731 0.989176 -0
    outer loop
      vertex 9 37.8484 4.825
      vertex 5.88103 38.3111 10.3
      vertex 9 37.8484 10.3
    endloop
  endfacet
  facet normal 0.146731 0.989176 0
    outer loop
      vertex 5.88103 38.3111 10.3
      vertex 9 37.8484 4.825
      vertex 5.88103 38.3111 4.825
    endloop
  endfacet
  facet normal -0.146731 0.989176 0
    outer loop
      vertex -5.88103 38.3111 4.825
      vertex -9 37.8484 10.3
      vertex -5.88103 38.3111 10.3
    endloop
  endfacet
  facet normal -0.146731 0.989176 0
    outer loop
      vertex -9 37.8484 10.3
      vertex -5.88103 38.3111 4.825
      vertex -9 37.8484 4.825
    endloop
  endfacet
  facet normal 0.0347167 0.706681 0.70668
    outer loop
      vertex 4.28692 41.1 2.1144
      vertex 0 38.6 4.825
      vertex 5.88103 38.3111 4.825
    endloop
  endfacet
  facet normal 0.034717 0.70668 0.706681
    outer loop
      vertex 0 38.6 4.825
      vertex 4.28692 41.1 2.1144
      vertex 0 41.1 2.325
    endloop
  endfacet
  facet normal -0.034717 0.70668 0.706681
    outer loop
      vertex -4.28692 41.1 2.1144
      vertex 0 38.6 4.825
      vertex 0 41.1 2.325
    endloop
  endfacet
  facet normal -0.0347167 0.706681 0.70668
    outer loop
      vertex 0 38.6 4.825
      vertex -4.28692 41.1 2.1144
      vertex -5.88103 38.3111 4.825
    endloop
  endfacet
  facet normal 0.103817 0.699875 0.70668
    outer loop
      vertex 5.88103 38.3111 4.825
      vertex 7.67089 41.1 1.8
      vertex 6.15571 41.1 2.02259
    endloop
  endfacet
  facet normal 0.103817 0.699875 0.70668
    outer loop
      vertex 7.67089 41.1 1.8
      vertex 5.88103 38.3111 4.825
      vertex 8.23306 41.0166 1.8
    endloop
  endfacet
  facet normal -0.103817 0.699875 0.70668
    outer loop
      vertex -7.67089 41.1 1.8
      vertex -5.88103 38.3111 4.825
      vertex -6.15571 41.1 2.02259
    endloop
  endfacet
  facet normal -0.103817 0.699875 0.70668
    outer loop
      vertex -5.88103 38.3111 4.825
      vertex -7.67089 41.1 1.8
      vertex -8.23306 41.0166 1.8
    endloop
  endfacet
  facet normal -0.034717 0.706681 0.70668
    outer loop
      vertex -4.28692 41.1 2.1144
      vertex -6.15571 41.1 2.02259
      vertex -5.88103 38.3111 4.825
    endloop
  endfacet
  facet normal 0.103817 0.699875 0.70668
    outer loop
      vertex 8.23306 41.0166 1.8
      vertex 9 37.8484 4.825
      vertex 9 40.9028 1.8
    endloop
  endfacet
  facet normal 0.103817 0.699875 0.70668
    outer loop
      vertex 9 37.8484 4.825
      vertex 8.23306 41.0166 1.8
      vertex 5.88103 38.3111 4.825
    endloop
  endfacet
  facet normal -0.103817 0.699875 0.70668
    outer loop
      vertex -9 37.8484 4.825
      vertex -8.23306 41.0166 1.8
      vertex -9 40.9028 1.8
    endloop
  endfacet
  facet normal -0.103817 0.699875 0.70668
    outer loop
      vertex -8.23306 41.0166 1.8
      vertex -9 37.8484 4.825
      vertex -5.88103 38.3111 4.825
    endloop
  endfacet
  facet normal 0.034717 0.706681 0.70668
    outer loop
      vertex 6.15571 41.1 2.02259
      vertex 4.28692 41.1 2.1144
      vertex 5.88103 38.3111 4.825
    endloop
  endfacet
  facet normal 0 0 -1
    outer loop
      vertex 5.88103 38.3111 10.3
      vertex 9 41.1 10.3
      vertex 9 37.8484 10.3
    endloop
  endfacet
  facet normal 0 0 -1
    outer loop
      vertex 0 38.6 10.3
      vertex 9 41.1 10.3
      vertex 5.88103 38.3111 10.3
    endloop
  endfacet
  facet normal 0 0 -1
    outer loop
      vertex -9 41.1 10.3
      vertex 0 38.6 10.3
      vertex -5.88103 38.3111 10.3
    endloop
  endfacet
  facet normal 0 0 -1
    outer loop
      vertex -9 41.1 10.3
      vertex -5.88103 38.3111 10.3
      vertex -9 37.8484 10.3
    endloop
  endfacet
  facet normal 0 0 -1
    outer loop
      vertex 0 38.6 10.3
      vertex -9 41.1 10.3
      vertex 9 41.1 10.3
    endloop
  endfacet
endsolid OpenSCAD_Model
